G04 #@! TF.GenerationSoftware,KiCad,Pcbnew,(5.1.0)-1*
G04 #@! TF.CreationDate,2020-04-23T00:52:51+08:00*
G04 #@! TF.ProjectId,IRController,4952436f-6e74-4726-9f6c-6c65722e6b69,rev?*
G04 #@! TF.SameCoordinates,Original*
G04 #@! TF.FileFunction,Legend,Top*
G04 #@! TF.FilePolarity,Positive*
%FSLAX46Y46*%
G04 Gerber Fmt 4.6, Leading zero omitted, Abs format (unit mm)*
G04 Created by KiCad (PCBNEW (5.1.0)-1) date 2020-04-23 00:52:51*
%MOMM*%
%LPD*%
G04 APERTURE LIST*
%ADD10C,0.150000*%
%ADD11C,0.120000*%
G04 APERTURE END LIST*
D10*
X101501904Y-95702380D02*
X102073333Y-95702380D01*
X101787619Y-96702380D02*
X101787619Y-95702380D01*
X102406666Y-96178571D02*
X102740000Y-96178571D01*
X102882857Y-96702380D02*
X102406666Y-96702380D01*
X102406666Y-95702380D01*
X102882857Y-95702380D01*
X103882857Y-96702380D02*
X103549523Y-96226190D01*
X103311428Y-96702380D02*
X103311428Y-95702380D01*
X103692380Y-95702380D01*
X103787619Y-95750000D01*
X103835238Y-95797619D01*
X103882857Y-95892857D01*
X103882857Y-96035714D01*
X103835238Y-96130952D01*
X103787619Y-96178571D01*
X103692380Y-96226190D01*
X103311428Y-96226190D01*
X102772380Y-78568094D02*
X102772380Y-78377618D01*
X102820000Y-78282380D01*
X102915238Y-78187142D01*
X103105714Y-78139523D01*
X103439047Y-78139523D01*
X103629523Y-78187142D01*
X103724761Y-78282380D01*
X103772380Y-78377618D01*
X103772380Y-78568094D01*
X103724761Y-78663333D01*
X103629523Y-78758571D01*
X103439047Y-78806190D01*
X103105714Y-78806190D01*
X102915238Y-78758571D01*
X102820000Y-78663333D01*
X102772380Y-78568094D01*
X102772380Y-77710952D02*
X103581904Y-77710952D01*
X103677142Y-77663333D01*
X103724761Y-77615713D01*
X103772380Y-77520475D01*
X103772380Y-77329999D01*
X103724761Y-77234761D01*
X103677142Y-77187142D01*
X103581904Y-77139523D01*
X102772380Y-77139523D01*
X102772380Y-76806190D02*
X102772380Y-76234761D01*
X103772380Y-76520475D02*
X102772380Y-76520475D01*
X103772380Y-75901428D02*
X102772380Y-75901428D01*
X102772380Y-75520475D01*
X102820000Y-75425237D01*
X102867619Y-75377618D01*
X102962857Y-75329999D01*
X103105714Y-75329999D01*
X103200952Y-75377618D01*
X103248571Y-75425237D01*
X103296190Y-75520475D01*
X103296190Y-75901428D01*
X102772380Y-74901428D02*
X103581904Y-74901428D01*
X103677142Y-74853809D01*
X103724761Y-74806190D01*
X103772380Y-74710952D01*
X103772380Y-74520475D01*
X103724761Y-74425237D01*
X103677142Y-74377618D01*
X103581904Y-74329999D01*
X102772380Y-74329999D01*
X102772380Y-73996666D02*
X102772380Y-73425237D01*
X103772380Y-73710952D02*
X102772380Y-73710952D01*
X130492380Y-78758571D02*
X129492380Y-78758571D01*
X130492380Y-78282380D02*
X129492380Y-78282380D01*
X130492380Y-77710952D01*
X129492380Y-77710952D01*
X130492380Y-77234761D02*
X129492380Y-77234761D01*
X129492380Y-76853809D01*
X129540000Y-76758571D01*
X129587619Y-76710952D01*
X129682857Y-76663333D01*
X129825714Y-76663333D01*
X129920952Y-76710952D01*
X129968571Y-76758571D01*
X130016190Y-76853809D01*
X130016190Y-77234761D01*
X129492380Y-76234761D02*
X130301904Y-76234761D01*
X130397142Y-76187142D01*
X130444761Y-76139523D01*
X130492380Y-76044285D01*
X130492380Y-75853809D01*
X130444761Y-75758571D01*
X130397142Y-75710952D01*
X130301904Y-75663333D01*
X129492380Y-75663333D01*
X129492380Y-75330000D02*
X129492380Y-74758571D01*
X130492380Y-75044285D02*
X129492380Y-75044285D01*
X121195714Y-39516666D02*
X121671904Y-39516666D01*
X121100476Y-39802380D02*
X121433809Y-38802380D01*
X121767142Y-39802380D01*
X122005238Y-38802380D02*
X122624285Y-38802380D01*
X122290952Y-39183333D01*
X122433809Y-39183333D01*
X122529047Y-39230952D01*
X122576666Y-39278571D01*
X122624285Y-39373809D01*
X122624285Y-39611904D01*
X122576666Y-39707142D01*
X122529047Y-39754761D01*
X122433809Y-39802380D01*
X122148095Y-39802380D01*
X122052857Y-39754761D01*
X122005238Y-39707142D01*
X118640714Y-39516666D02*
X119116904Y-39516666D01*
X118545476Y-39802380D02*
X118878809Y-38802380D01*
X119212142Y-39802380D01*
X119497857Y-38897619D02*
X119545476Y-38850000D01*
X119640714Y-38802380D01*
X119878809Y-38802380D01*
X119974047Y-38850000D01*
X120021666Y-38897619D01*
X120069285Y-38992857D01*
X120069285Y-39088095D01*
X120021666Y-39230952D01*
X119450238Y-39802380D01*
X120069285Y-39802380D01*
X116085714Y-39516666D02*
X116561904Y-39516666D01*
X115990476Y-39802380D02*
X116323809Y-38802380D01*
X116657142Y-39802380D01*
X117514285Y-39802380D02*
X116942857Y-39802380D01*
X117228571Y-39802380D02*
X117228571Y-38802380D01*
X117133333Y-38945238D01*
X117038095Y-39040476D01*
X116942857Y-39088095D01*
X104888571Y-53061428D02*
X105650476Y-53061428D01*
X105269523Y-53442380D02*
X105269523Y-52680476D01*
X106031428Y-52442380D02*
X106650476Y-52442380D01*
X106317142Y-52823333D01*
X106460000Y-52823333D01*
X106555238Y-52870952D01*
X106602857Y-52918571D01*
X106650476Y-53013809D01*
X106650476Y-53251904D01*
X106602857Y-53347142D01*
X106555238Y-53394761D01*
X106460000Y-53442380D01*
X106174285Y-53442380D01*
X106079047Y-53394761D01*
X106031428Y-53347142D01*
X107079047Y-53347142D02*
X107126666Y-53394761D01*
X107079047Y-53442380D01*
X107031428Y-53394761D01*
X107079047Y-53347142D01*
X107079047Y-53442380D01*
X107460000Y-52442380D02*
X108079047Y-52442380D01*
X107745714Y-52823333D01*
X107888571Y-52823333D01*
X107983809Y-52870952D01*
X108031428Y-52918571D01*
X108079047Y-53013809D01*
X108079047Y-53251904D01*
X108031428Y-53347142D01*
X107983809Y-53394761D01*
X107888571Y-53442380D01*
X107602857Y-53442380D01*
X107507619Y-53394761D01*
X107460000Y-53347142D01*
D11*
X138050000Y-117155000D02*
X141490000Y-117155000D01*
X127408000Y-118031000D02*
X126900000Y-117523000D01*
X126392000Y-118031000D02*
X127408000Y-118031000D01*
X126900000Y-117523000D02*
X126392000Y-118031000D01*
X138050000Y-101135000D02*
X141490000Y-101135000D01*
X141490000Y-101135000D02*
X141490000Y-117155000D01*
X122620000Y-117155000D02*
X134550000Y-117155000D01*
X122620000Y-101135000D02*
X122620000Y-117155000D01*
X122620000Y-101135000D02*
X134550000Y-101135000D01*
X92745000Y-38900000D02*
X95285000Y-38900000D01*
X92745000Y-38900000D02*
X92745000Y-41440000D01*
X92995000Y-39150000D02*
X102345000Y-39150000D01*
X92995000Y-80330000D02*
X92995000Y-39150000D01*
X102345000Y-80330000D02*
X92995000Y-80330000D01*
X102345000Y-39150000D02*
X102345000Y-80330000D01*
X140591000Y-98649000D02*
X139351000Y-98649000D01*
X140591000Y-97409000D02*
X140591000Y-98649000D01*
X108030000Y-98410000D02*
X108030000Y-89189000D01*
X140350000Y-98410000D02*
X140350000Y-89189000D01*
X140350000Y-89189000D02*
X108030000Y-89189000D01*
X109180000Y-98410000D02*
X108030000Y-98410000D01*
X111720000Y-98410000D02*
X111320000Y-98410000D01*
X114260000Y-98410000D02*
X113860000Y-98410000D01*
X116800000Y-98410000D02*
X116400000Y-98410000D01*
X119340000Y-98410000D02*
X118940000Y-98410000D01*
X121880000Y-98410000D02*
X121480000Y-98410000D01*
X124420000Y-98410000D02*
X124020000Y-98410000D01*
X126960000Y-98410000D02*
X126560000Y-98410000D01*
X129500000Y-98410000D02*
X129100000Y-98410000D01*
X132040000Y-98410000D02*
X131639000Y-98410000D01*
X134580000Y-98410000D02*
X134180000Y-98410000D01*
X137120000Y-98410000D02*
X136719000Y-98410000D01*
X140350000Y-98410000D02*
X139260000Y-98410000D01*
X94750000Y-101135000D02*
X91310000Y-101135000D01*
X105392000Y-100259000D02*
X105900000Y-100767000D01*
X106408000Y-100259000D02*
X105392000Y-100259000D01*
X105900000Y-100767000D02*
X106408000Y-100259000D01*
X94750000Y-117155000D02*
X91310000Y-117155000D01*
X91310000Y-117155000D02*
X91310000Y-101135000D01*
X110180000Y-101135000D02*
X98250000Y-101135000D01*
X110180000Y-117155000D02*
X110180000Y-101135000D01*
X110180000Y-117155000D02*
X98250000Y-117155000D01*
X95571267Y-85090000D02*
X95228733Y-85090000D01*
X95571267Y-86110000D02*
X95228733Y-86110000D01*
X95228733Y-90610000D02*
X95571267Y-90610000D01*
X95228733Y-89590000D02*
X95571267Y-89590000D01*
X118710000Y-79171267D02*
X118710000Y-78828733D01*
X117690000Y-79171267D02*
X117690000Y-78828733D01*
X126110000Y-79171267D02*
X126110000Y-78828733D01*
X125090000Y-79171267D02*
X125090000Y-78828733D01*
X133570000Y-81130000D02*
X133570000Y-87870000D01*
X125830000Y-81130000D02*
X125830000Y-87870000D01*
X125830000Y-87870000D02*
X133570000Y-87870000D01*
X125830000Y-81130000D02*
X133570000Y-81130000D01*
X115261252Y-86390000D02*
X114738748Y-86390000D01*
X115261252Y-87810000D02*
X114738748Y-87810000D01*
X120050000Y-52300000D02*
X116150000Y-52300000D01*
X120600044Y-55300000D02*
X116150000Y-55300000D01*
X120600000Y-54500000D02*
X120600000Y-55300000D01*
X112247500Y-57040000D02*
X109562500Y-57040000D01*
X112247500Y-58960000D02*
X112247500Y-57040000D01*
X109562500Y-58960000D02*
X112247500Y-58960000D01*
X108870000Y-41070000D02*
X110200000Y-41070000D01*
X108870000Y-42400000D02*
X108870000Y-41070000D01*
X108870000Y-43670000D02*
X111530000Y-43670000D01*
X111530000Y-43670000D02*
X111530000Y-53890000D01*
X108870000Y-43670000D02*
X108870000Y-53890000D01*
X108870000Y-53890000D02*
X111530000Y-53890000D01*
X131145000Y-38900000D02*
X133685000Y-38900000D01*
X131145000Y-38900000D02*
X131145000Y-41440000D01*
X131395000Y-39150000D02*
X140745000Y-39150000D01*
X131395000Y-80330000D02*
X131395000Y-39150000D01*
X140745000Y-80330000D02*
X131395000Y-80330000D01*
X140745000Y-39150000D02*
X140745000Y-80330000D01*
X116910000Y-57886252D02*
X116910000Y-57363748D01*
X115490000Y-57886252D02*
X115490000Y-57363748D01*
X114910000Y-57886252D02*
X114910000Y-57363748D01*
X113490000Y-57886252D02*
X113490000Y-57363748D01*
X118910000Y-57886252D02*
X118910000Y-57363748D01*
X117490000Y-57886252D02*
X117490000Y-57363748D01*
X110661252Y-55090000D02*
X110138748Y-55090000D01*
X110661252Y-56510000D02*
X110138748Y-56510000D01*
X95433333Y-95465000D02*
X95433333Y-96735000D01*
X94080000Y-96665000D02*
X95433333Y-96665000D01*
X94080000Y-96545000D02*
X95433333Y-96545000D01*
X94080000Y-96425000D02*
X95433333Y-96425000D01*
X94080000Y-96305000D02*
X95433333Y-96305000D01*
X94080000Y-96185000D02*
X95433333Y-96185000D01*
X94080000Y-96065000D02*
X95433333Y-96065000D01*
X94080000Y-95945000D02*
X95433333Y-95945000D01*
X94080000Y-95825000D02*
X95433333Y-95825000D01*
X94080000Y-95705000D02*
X95433333Y-95705000D01*
X94080000Y-95585000D02*
X95433333Y-95585000D01*
X98140000Y-95465000D02*
X94080000Y-95465000D01*
X98140000Y-96735000D02*
X98140000Y-95465000D01*
X94080000Y-96735000D02*
X98140000Y-96735000D01*
X94080000Y-95465000D02*
X94080000Y-96735000D01*
X90920000Y-93440000D02*
X90920000Y-94823000D01*
X90920000Y-93440000D02*
X92304000Y-93440000D01*
X101060000Y-93680000D02*
X101060000Y-98520000D01*
X91160000Y-93680000D02*
X91160000Y-98520000D01*
X91160000Y-98520000D02*
X101060000Y-98520000D01*
X91160000Y-93680000D02*
X101060000Y-93680000D01*
X116571751Y-75754880D02*
X117519275Y-76702403D01*
X115900000Y-76426631D02*
X116571751Y-75754880D01*
X115228249Y-75754880D02*
X115900000Y-76426631D01*
X108673369Y-69200000D02*
X109345120Y-68528249D01*
X109345120Y-69871751D02*
X108673369Y-69200000D01*
X123126631Y-69200000D02*
X122454880Y-69871751D01*
X122454880Y-68528249D02*
X123126631Y-69200000D01*
X115900000Y-61973369D02*
X115228249Y-62645120D01*
X116571751Y-62645120D02*
X115900000Y-61973369D01*
D10*
X123275000Y-87425000D02*
X124675000Y-87425000D01*
X123275000Y-82325000D02*
X119125000Y-82325000D01*
X123275000Y-87475000D02*
X119125000Y-87475000D01*
X123275000Y-82325000D02*
X123275000Y-82470000D01*
X119125000Y-82325000D02*
X119125000Y-82470000D01*
X119125000Y-87475000D02*
X119125000Y-87330000D01*
X123275000Y-87475000D02*
X123275000Y-87425000D01*
D11*
X127410000Y-67886252D02*
X127410000Y-67363748D01*
X125990000Y-67886252D02*
X125990000Y-67363748D01*
X129410000Y-67886252D02*
X129410000Y-67363748D01*
X127990000Y-67886252D02*
X127990000Y-67363748D01*
X117255000Y-45133333D02*
X115985000Y-45133333D01*
X116055000Y-43780000D02*
X116055000Y-45133333D01*
X116175000Y-43780000D02*
X116175000Y-45133333D01*
X116295000Y-43780000D02*
X116295000Y-45133333D01*
X116415000Y-43780000D02*
X116415000Y-45133333D01*
X116535000Y-43780000D02*
X116535000Y-45133333D01*
X116655000Y-43780000D02*
X116655000Y-45133333D01*
X116775000Y-43780000D02*
X116775000Y-45133333D01*
X116895000Y-43780000D02*
X116895000Y-45133333D01*
X117015000Y-43780000D02*
X117015000Y-45133333D01*
X117135000Y-43780000D02*
X117135000Y-45133333D01*
X117255000Y-47840000D02*
X117255000Y-43780000D01*
X115985000Y-47840000D02*
X117255000Y-47840000D01*
X115985000Y-43780000D02*
X115985000Y-47840000D01*
X117255000Y-43780000D02*
X115985000Y-43780000D01*
X119795000Y-45133333D02*
X118525000Y-45133333D01*
X118595000Y-43780000D02*
X118595000Y-45133333D01*
X118715000Y-43780000D02*
X118715000Y-45133333D01*
X118835000Y-43780000D02*
X118835000Y-45133333D01*
X118955000Y-43780000D02*
X118955000Y-45133333D01*
X119075000Y-43780000D02*
X119075000Y-45133333D01*
X119195000Y-43780000D02*
X119195000Y-45133333D01*
X119315000Y-43780000D02*
X119315000Y-45133333D01*
X119435000Y-43780000D02*
X119435000Y-45133333D01*
X119555000Y-43780000D02*
X119555000Y-45133333D01*
X119675000Y-43780000D02*
X119675000Y-45133333D01*
X119795000Y-47840000D02*
X119795000Y-43780000D01*
X118525000Y-47840000D02*
X119795000Y-47840000D01*
X118525000Y-43780000D02*
X118525000Y-47840000D01*
X119795000Y-43780000D02*
X118525000Y-43780000D01*
X122335000Y-45133333D02*
X121065000Y-45133333D01*
X121135000Y-43780000D02*
X121135000Y-45133333D01*
X121255000Y-43780000D02*
X121255000Y-45133333D01*
X121375000Y-43780000D02*
X121375000Y-45133333D01*
X121495000Y-43780000D02*
X121495000Y-45133333D01*
X121615000Y-43780000D02*
X121615000Y-45133333D01*
X121735000Y-43780000D02*
X121735000Y-45133333D01*
X121855000Y-43780000D02*
X121855000Y-45133333D01*
X121975000Y-43780000D02*
X121975000Y-45133333D01*
X122095000Y-43780000D02*
X122095000Y-45133333D01*
X122215000Y-43780000D02*
X122215000Y-45133333D01*
X122335000Y-47840000D02*
X122335000Y-43780000D01*
X121065000Y-47840000D02*
X122335000Y-47840000D01*
X121065000Y-43780000D02*
X121065000Y-47840000D01*
X122335000Y-43780000D02*
X121065000Y-43780000D01*
X124360000Y-40620000D02*
X122977000Y-40620000D01*
X124360000Y-40620000D02*
X124360000Y-42004000D01*
X124120000Y-50760000D02*
X114200000Y-50760000D01*
X124120000Y-40860000D02*
X114200000Y-40860000D01*
X114200000Y-40860000D02*
X114200000Y-50760000D01*
X124120000Y-40860000D02*
X124120000Y-50760000D01*
X119250000Y-80650000D02*
X124550000Y-80650000D01*
X119250000Y-76950000D02*
X119250000Y-80650000D01*
D10*
X121012380Y-109478333D02*
X121726666Y-109478333D01*
X121869523Y-109525952D01*
X121964761Y-109621190D01*
X122012380Y-109764047D01*
X122012380Y-109859285D01*
X121107619Y-109049761D02*
X121060000Y-109002142D01*
X121012380Y-108906904D01*
X121012380Y-108668809D01*
X121060000Y-108573571D01*
X121107619Y-108525952D01*
X121202857Y-108478333D01*
X121298095Y-108478333D01*
X121440952Y-108525952D01*
X122012380Y-109097380D01*
X122012380Y-108478333D01*
X102936666Y-45122380D02*
X102936666Y-45836666D01*
X102889047Y-45979523D01*
X102793809Y-46074761D01*
X102650952Y-46122380D01*
X102555714Y-46122380D01*
X103889047Y-45122380D02*
X103412857Y-45122380D01*
X103365238Y-45598571D01*
X103412857Y-45550952D01*
X103508095Y-45503333D01*
X103746190Y-45503333D01*
X103841428Y-45550952D01*
X103889047Y-45598571D01*
X103936666Y-45693809D01*
X103936666Y-45931904D01*
X103889047Y-46027142D01*
X103841428Y-46074761D01*
X103746190Y-46122380D01*
X103508095Y-46122380D01*
X103412857Y-46074761D01*
X103365238Y-46027142D01*
X123481904Y-100151380D02*
X123481904Y-99151380D01*
X123720000Y-99151380D01*
X123862857Y-99199000D01*
X123958095Y-99294238D01*
X124005714Y-99389476D01*
X124053333Y-99579952D01*
X124053333Y-99722809D01*
X124005714Y-99913285D01*
X123958095Y-100008523D01*
X123862857Y-100103761D01*
X123720000Y-100151380D01*
X123481904Y-100151380D01*
X124910476Y-99484714D02*
X124910476Y-100151380D01*
X124672380Y-99103761D02*
X124434285Y-99818047D01*
X125053333Y-99818047D01*
X110692380Y-109478333D02*
X111406666Y-109478333D01*
X111549523Y-109525952D01*
X111644761Y-109621190D01*
X111692380Y-109764047D01*
X111692380Y-109859285D01*
X110692380Y-109097380D02*
X110692380Y-108478333D01*
X111073333Y-108811666D01*
X111073333Y-108668809D01*
X111120952Y-108573571D01*
X111168571Y-108525952D01*
X111263809Y-108478333D01*
X111501904Y-108478333D01*
X111597142Y-108525952D01*
X111644761Y-108573571D01*
X111692380Y-108668809D01*
X111692380Y-108954523D01*
X111644761Y-109049761D01*
X111597142Y-109097380D01*
X98013333Y-85987142D02*
X97965714Y-86034761D01*
X97822857Y-86082380D01*
X97727619Y-86082380D01*
X97584761Y-86034761D01*
X97489523Y-85939523D01*
X97441904Y-85844285D01*
X97394285Y-85653809D01*
X97394285Y-85510952D01*
X97441904Y-85320476D01*
X97489523Y-85225238D01*
X97584761Y-85130000D01*
X97727619Y-85082380D01*
X97822857Y-85082380D01*
X97965714Y-85130000D01*
X98013333Y-85177619D01*
X98965714Y-86082380D02*
X98394285Y-86082380D01*
X98680000Y-86082380D02*
X98680000Y-85082380D01*
X98584761Y-85225238D01*
X98489523Y-85320476D01*
X98394285Y-85368095D01*
X98013333Y-90447142D02*
X97965714Y-90494761D01*
X97822857Y-90542380D01*
X97727619Y-90542380D01*
X97584761Y-90494761D01*
X97489523Y-90399523D01*
X97441904Y-90304285D01*
X97394285Y-90113809D01*
X97394285Y-89970952D01*
X97441904Y-89780476D01*
X97489523Y-89685238D01*
X97584761Y-89590000D01*
X97727619Y-89542380D01*
X97822857Y-89542380D01*
X97965714Y-89590000D01*
X98013333Y-89637619D01*
X98394285Y-89637619D02*
X98441904Y-89590000D01*
X98537142Y-89542380D01*
X98775238Y-89542380D01*
X98870476Y-89590000D01*
X98918095Y-89637619D01*
X98965714Y-89732857D01*
X98965714Y-89828095D01*
X98918095Y-89970952D01*
X98346666Y-90542380D01*
X98965714Y-90542380D01*
X117127142Y-79166666D02*
X117174761Y-79214285D01*
X117222380Y-79357142D01*
X117222380Y-79452380D01*
X117174761Y-79595238D01*
X117079523Y-79690476D01*
X116984285Y-79738095D01*
X116793809Y-79785714D01*
X116650952Y-79785714D01*
X116460476Y-79738095D01*
X116365238Y-79690476D01*
X116270000Y-79595238D01*
X116222380Y-79452380D01*
X116222380Y-79357142D01*
X116270000Y-79214285D01*
X116317619Y-79166666D01*
X116222380Y-78261904D02*
X116222380Y-78738095D01*
X116698571Y-78785714D01*
X116650952Y-78738095D01*
X116603333Y-78642857D01*
X116603333Y-78404761D01*
X116650952Y-78309523D01*
X116698571Y-78261904D01*
X116793809Y-78214285D01*
X117031904Y-78214285D01*
X117127142Y-78261904D01*
X117174761Y-78309523D01*
X117222380Y-78404761D01*
X117222380Y-78642857D01*
X117174761Y-78738095D01*
X117127142Y-78785714D01*
X127357142Y-79166666D02*
X127404761Y-79214285D01*
X127452380Y-79357142D01*
X127452380Y-79452380D01*
X127404761Y-79595238D01*
X127309523Y-79690476D01*
X127214285Y-79738095D01*
X127023809Y-79785714D01*
X126880952Y-79785714D01*
X126690476Y-79738095D01*
X126595238Y-79690476D01*
X126500000Y-79595238D01*
X126452380Y-79452380D01*
X126452380Y-79357142D01*
X126500000Y-79214285D01*
X126547619Y-79166666D01*
X126452380Y-78309523D02*
X126452380Y-78500000D01*
X126500000Y-78595238D01*
X126547619Y-78642857D01*
X126690476Y-78738095D01*
X126880952Y-78785714D01*
X127261904Y-78785714D01*
X127357142Y-78738095D01*
X127404761Y-78690476D01*
X127452380Y-78595238D01*
X127452380Y-78404761D01*
X127404761Y-78309523D01*
X127357142Y-78261904D01*
X127261904Y-78214285D01*
X127023809Y-78214285D01*
X126928571Y-78261904D01*
X126880952Y-78309523D01*
X126833333Y-78404761D01*
X126833333Y-78595238D01*
X126880952Y-78690476D01*
X126928571Y-78738095D01*
X127023809Y-78785714D01*
X134557142Y-84737142D02*
X134509523Y-84784761D01*
X134366666Y-84832380D01*
X134271428Y-84832380D01*
X134128571Y-84784761D01*
X134033333Y-84689523D01*
X133985714Y-84594285D01*
X133938095Y-84403809D01*
X133938095Y-84260952D01*
X133985714Y-84070476D01*
X134033333Y-83975238D01*
X134128571Y-83880000D01*
X134271428Y-83832380D01*
X134366666Y-83832380D01*
X134509523Y-83880000D01*
X134557142Y-83927619D01*
X135509523Y-84832380D02*
X134938095Y-84832380D01*
X135223809Y-84832380D02*
X135223809Y-83832380D01*
X135128571Y-83975238D01*
X135033333Y-84070476D01*
X134938095Y-84118095D01*
X135842857Y-83832380D02*
X136461904Y-83832380D01*
X136128571Y-84213333D01*
X136271428Y-84213333D01*
X136366666Y-84260952D01*
X136414285Y-84308571D01*
X136461904Y-84403809D01*
X136461904Y-84641904D01*
X136414285Y-84737142D01*
X136366666Y-84784761D01*
X136271428Y-84832380D01*
X135985714Y-84832380D01*
X135890476Y-84784761D01*
X135842857Y-84737142D01*
X114257142Y-85857142D02*
X114209523Y-85904761D01*
X114066666Y-85952380D01*
X113971428Y-85952380D01*
X113828571Y-85904761D01*
X113733333Y-85809523D01*
X113685714Y-85714285D01*
X113638095Y-85523809D01*
X113638095Y-85380952D01*
X113685714Y-85190476D01*
X113733333Y-85095238D01*
X113828571Y-85000000D01*
X113971428Y-84952380D01*
X114066666Y-84952380D01*
X114209523Y-85000000D01*
X114257142Y-85047619D01*
X115209523Y-85952380D02*
X114638095Y-85952380D01*
X114923809Y-85952380D02*
X114923809Y-84952380D01*
X114828571Y-85095238D01*
X114733333Y-85190476D01*
X114638095Y-85238095D01*
X116066666Y-85285714D02*
X116066666Y-85952380D01*
X115828571Y-84904761D02*
X115590476Y-85619047D01*
X116209523Y-85619047D01*
X113861904Y-54252380D02*
X113861904Y-53252380D01*
X114100000Y-53252380D01*
X114242857Y-53300000D01*
X114338095Y-53395238D01*
X114385714Y-53490476D01*
X114433333Y-53680952D01*
X114433333Y-53823809D01*
X114385714Y-54014285D01*
X114338095Y-54109523D01*
X114242857Y-54204761D01*
X114100000Y-54252380D01*
X113861904Y-54252380D01*
X115385714Y-54252380D02*
X114814285Y-54252380D01*
X115100000Y-54252380D02*
X115100000Y-53252380D01*
X115004761Y-53395238D01*
X114909523Y-53490476D01*
X114814285Y-53538095D01*
X106861904Y-58452380D02*
X106861904Y-57452380D01*
X107100000Y-57452380D01*
X107242857Y-57500000D01*
X107338095Y-57595238D01*
X107385714Y-57690476D01*
X107433333Y-57880952D01*
X107433333Y-58023809D01*
X107385714Y-58214285D01*
X107338095Y-58309523D01*
X107242857Y-58404761D01*
X107100000Y-58452380D01*
X106861904Y-58452380D01*
X108338095Y-57452380D02*
X107861904Y-57452380D01*
X107814285Y-57928571D01*
X107861904Y-57880952D01*
X107957142Y-57833333D01*
X108195238Y-57833333D01*
X108290476Y-57880952D01*
X108338095Y-57928571D01*
X108385714Y-58023809D01*
X108385714Y-58261904D01*
X108338095Y-58357142D01*
X108290476Y-58404761D01*
X108195238Y-58452380D01*
X107957142Y-58452380D01*
X107861904Y-58404761D01*
X107814285Y-58357142D01*
X109866666Y-39522380D02*
X109866666Y-40236666D01*
X109819047Y-40379523D01*
X109723809Y-40474761D01*
X109580952Y-40522380D01*
X109485714Y-40522380D01*
X110866666Y-40522380D02*
X110295238Y-40522380D01*
X110580952Y-40522380D02*
X110580952Y-39522380D01*
X110485714Y-39665238D01*
X110390476Y-39760476D01*
X110295238Y-39808095D01*
X129446666Y-44562380D02*
X129446666Y-45276666D01*
X129399047Y-45419523D01*
X129303809Y-45514761D01*
X129160952Y-45562380D01*
X129065714Y-45562380D01*
X130351428Y-44895714D02*
X130351428Y-45562380D01*
X130113333Y-44514761D02*
X129875238Y-45229047D01*
X130494285Y-45229047D01*
X123052380Y-57666666D02*
X122576190Y-58000000D01*
X123052380Y-58238095D02*
X122052380Y-58238095D01*
X122052380Y-57857142D01*
X122100000Y-57761904D01*
X122147619Y-57714285D01*
X122242857Y-57666666D01*
X122385714Y-57666666D01*
X122480952Y-57714285D01*
X122528571Y-57761904D01*
X122576190Y-57857142D01*
X122576190Y-58238095D01*
X123052380Y-56714285D02*
X123052380Y-57285714D01*
X123052380Y-57000000D02*
X122052380Y-57000000D01*
X122195238Y-57095238D01*
X122290476Y-57190476D01*
X122338095Y-57285714D01*
X121552380Y-57666666D02*
X121076190Y-58000000D01*
X121552380Y-58238095D02*
X120552380Y-58238095D01*
X120552380Y-57857142D01*
X120600000Y-57761904D01*
X120647619Y-57714285D01*
X120742857Y-57666666D01*
X120885714Y-57666666D01*
X120980952Y-57714285D01*
X121028571Y-57761904D01*
X121076190Y-57857142D01*
X121076190Y-58238095D01*
X120647619Y-57285714D02*
X120600000Y-57238095D01*
X120552380Y-57142857D01*
X120552380Y-56904761D01*
X120600000Y-56809523D01*
X120647619Y-56761904D01*
X120742857Y-56714285D01*
X120838095Y-56714285D01*
X120980952Y-56761904D01*
X121552380Y-57333333D01*
X121552380Y-56714285D01*
X124652380Y-57666666D02*
X124176190Y-58000000D01*
X124652380Y-58238095D02*
X123652380Y-58238095D01*
X123652380Y-57857142D01*
X123700000Y-57761904D01*
X123747619Y-57714285D01*
X123842857Y-57666666D01*
X123985714Y-57666666D01*
X124080952Y-57714285D01*
X124128571Y-57761904D01*
X124176190Y-57857142D01*
X124176190Y-58238095D01*
X123652380Y-57333333D02*
X123652380Y-56714285D01*
X124033333Y-57047619D01*
X124033333Y-56904761D01*
X124080952Y-56809523D01*
X124128571Y-56761904D01*
X124223809Y-56714285D01*
X124461904Y-56714285D01*
X124557142Y-56761904D01*
X124604761Y-56809523D01*
X124652380Y-56904761D01*
X124652380Y-57190476D01*
X124604761Y-57285714D01*
X124557142Y-57333333D01*
X106357142Y-56152380D02*
X106023809Y-55676190D01*
X105785714Y-56152380D02*
X105785714Y-55152380D01*
X106166666Y-55152380D01*
X106261904Y-55200000D01*
X106309523Y-55247619D01*
X106357142Y-55342857D01*
X106357142Y-55485714D01*
X106309523Y-55580952D01*
X106261904Y-55628571D01*
X106166666Y-55676190D01*
X105785714Y-55676190D01*
X107309523Y-56152380D02*
X106738095Y-56152380D01*
X107023809Y-56152380D02*
X107023809Y-55152380D01*
X106928571Y-55295238D01*
X106833333Y-55390476D01*
X106738095Y-55438095D01*
X108166666Y-55152380D02*
X107976190Y-55152380D01*
X107880952Y-55200000D01*
X107833333Y-55247619D01*
X107738095Y-55390476D01*
X107690476Y-55580952D01*
X107690476Y-55961904D01*
X107738095Y-56057142D01*
X107785714Y-56104761D01*
X107880952Y-56152380D01*
X108071428Y-56152380D01*
X108166666Y-56104761D01*
X108214285Y-56057142D01*
X108261904Y-55961904D01*
X108261904Y-55723809D01*
X108214285Y-55628571D01*
X108166666Y-55580952D01*
X108071428Y-55533333D01*
X107880952Y-55533333D01*
X107785714Y-55580952D01*
X107738095Y-55628571D01*
X107690476Y-55723809D01*
X94776666Y-93084761D02*
X94919523Y-93132380D01*
X95157619Y-93132380D01*
X95252857Y-93084761D01*
X95300476Y-93037142D01*
X95348095Y-92941904D01*
X95348095Y-92846666D01*
X95300476Y-92751428D01*
X95252857Y-92703809D01*
X95157619Y-92656190D01*
X94967142Y-92608571D01*
X94871904Y-92560952D01*
X94824285Y-92513333D01*
X94776666Y-92418095D01*
X94776666Y-92322857D01*
X94824285Y-92227619D01*
X94871904Y-92180000D01*
X94967142Y-92132380D01*
X95205238Y-92132380D01*
X95348095Y-92180000D01*
X95681428Y-92132380D02*
X95919523Y-93132380D01*
X96110000Y-92418095D01*
X96300476Y-93132380D01*
X96538571Y-92132380D01*
X97443333Y-93132380D02*
X96871904Y-93132380D01*
X97157619Y-93132380D02*
X97157619Y-92132380D01*
X97062380Y-92275238D01*
X96967142Y-92370476D01*
X96871904Y-92418095D01*
X110515887Y-73506616D02*
X109943467Y-74079036D01*
X109909795Y-74180051D01*
X109909795Y-74247395D01*
X109943467Y-74348410D01*
X110078154Y-74483097D01*
X110179169Y-74516769D01*
X110246513Y-74516769D01*
X110347528Y-74483097D01*
X110919948Y-73910677D01*
X111324009Y-74786143D02*
X110852604Y-75257547D01*
X111425024Y-74348410D02*
X110751589Y-74685128D01*
X111189322Y-75122860D01*
X120438095Y-87852380D02*
X120438095Y-88661904D01*
X120485714Y-88757142D01*
X120533333Y-88804761D01*
X120628571Y-88852380D01*
X120819047Y-88852380D01*
X120914285Y-88804761D01*
X120961904Y-88757142D01*
X121009523Y-88661904D01*
X121009523Y-87852380D01*
X121961904Y-87852380D02*
X121485714Y-87852380D01*
X121438095Y-88328571D01*
X121485714Y-88280952D01*
X121580952Y-88233333D01*
X121819047Y-88233333D01*
X121914285Y-88280952D01*
X121961904Y-88328571D01*
X122009523Y-88423809D01*
X122009523Y-88661904D01*
X121961904Y-88757142D01*
X121914285Y-88804761D01*
X121819047Y-88852380D01*
X121580952Y-88852380D01*
X121485714Y-88804761D01*
X121438095Y-88757142D01*
X127252380Y-64967857D02*
X126776190Y-65301190D01*
X127252380Y-65539285D02*
X126252380Y-65539285D01*
X126252380Y-65158333D01*
X126300000Y-65063095D01*
X126347619Y-65015476D01*
X126442857Y-64967857D01*
X126585714Y-64967857D01*
X126680952Y-65015476D01*
X126728571Y-65063095D01*
X126776190Y-65158333D01*
X126776190Y-65539285D01*
X127252380Y-64015476D02*
X127252380Y-64586904D01*
X127252380Y-64301190D02*
X126252380Y-64301190D01*
X126395238Y-64396428D01*
X126490476Y-64491666D01*
X126538095Y-64586904D01*
X126252380Y-63682142D02*
X126252380Y-63015476D01*
X127252380Y-63444047D01*
X129252380Y-64942857D02*
X128776190Y-65276190D01*
X129252380Y-65514285D02*
X128252380Y-65514285D01*
X128252380Y-65133333D01*
X128300000Y-65038095D01*
X128347619Y-64990476D01*
X128442857Y-64942857D01*
X128585714Y-64942857D01*
X128680952Y-64990476D01*
X128728571Y-65038095D01*
X128776190Y-65133333D01*
X128776190Y-65514285D01*
X129252380Y-63990476D02*
X129252380Y-64561904D01*
X129252380Y-64276190D02*
X128252380Y-64276190D01*
X128395238Y-64371428D01*
X128490476Y-64466666D01*
X128538095Y-64561904D01*
X129252380Y-63514285D02*
X129252380Y-63323809D01*
X129204761Y-63228571D01*
X129157142Y-63180952D01*
X129014285Y-63085714D01*
X128823809Y-63038095D01*
X128442857Y-63038095D01*
X128347619Y-63085714D01*
X128300000Y-63133333D01*
X128252380Y-63228571D01*
X128252380Y-63419047D01*
X128300000Y-63514285D01*
X128347619Y-63561904D01*
X128442857Y-63609523D01*
X128680952Y-63609523D01*
X128776190Y-63561904D01*
X128823809Y-63514285D01*
X128871428Y-63419047D01*
X128871428Y-63228571D01*
X128823809Y-63133333D01*
X128776190Y-63085714D01*
X128680952Y-63038095D01*
X121236666Y-52214761D02*
X121379523Y-52262380D01*
X121617619Y-52262380D01*
X121712857Y-52214761D01*
X121760476Y-52167142D01*
X121808095Y-52071904D01*
X121808095Y-51976666D01*
X121760476Y-51881428D01*
X121712857Y-51833809D01*
X121617619Y-51786190D01*
X121427142Y-51738571D01*
X121331904Y-51690952D01*
X121284285Y-51643333D01*
X121236666Y-51548095D01*
X121236666Y-51452857D01*
X121284285Y-51357619D01*
X121331904Y-51310000D01*
X121427142Y-51262380D01*
X121665238Y-51262380D01*
X121808095Y-51310000D01*
X122141428Y-51262380D02*
X122379523Y-52262380D01*
X122570000Y-51548095D01*
X122760476Y-52262380D01*
X122998571Y-51262380D01*
X123331904Y-51357619D02*
X123379523Y-51310000D01*
X123474761Y-51262380D01*
X123712857Y-51262380D01*
X123808095Y-51310000D01*
X123855714Y-51357619D01*
X123903333Y-51452857D01*
X123903333Y-51548095D01*
X123855714Y-51690952D01*
X123284285Y-52262380D01*
X123903333Y-52262380D01*
X121090476Y-75452380D02*
X121757142Y-76452380D01*
X121757142Y-75452380D02*
X121090476Y-76452380D01*
X122661904Y-76452380D02*
X122090476Y-76452380D01*
X122376190Y-76452380D02*
X122376190Y-75452380D01*
X122280952Y-75595238D01*
X122185714Y-75690476D01*
X122090476Y-75738095D01*
M02*
