M48
; DRILL file {KiCad (5.1.0)-1} date 23.04.2020 0:52:54
; FORMAT={-:-/ absolute / inch / decimal}
; #@! TF.CreationDate,2020-04-23T00:52:54+08:00
; #@! TF.GenerationSoftware,Kicad,Pcbnew,(5.1.0)-1
FMAT,2
INCH
T1C0.0157
T2C0.0315
T3C0.0354
T4C0.0394
T5C0.0400
T6C0.0630
T7C0.1378
T8C0.1280
%
G90
G05
T1
X3.7283Y-3.315
X3.7323Y-3.689
X3.7844Y-3.6919
X3.7874Y-3.315
X3.8858Y-3.689
X3.8878Y-3.1713
X3.9562Y-3.1294
X4.061Y-4.6417
X4.0965Y-3.1329
X4.1467Y-4.5659
X4.1969Y-2.5669
X4.2559Y-2.7441
X4.2736Y-3.1594
X4.3465Y-2.998
X4.3622Y-2.3543
X4.3819Y-2.7598
X4.3927Y-3.063
X4.3949Y-4.3976
X4.3976Y-3.2165
X4.4134Y-3.3543
X4.4291Y-3.4252
X4.4508Y-3.0374
X4.4685Y-4.2913
X4.4921Y-4.0
X4.5Y-2.7165
X4.5197Y-2.8976
X4.5256Y-3.2067
X4.529Y-3.1638
X4.5472Y-3.122
X4.563Y-2.437
X4.5748Y-2.9094
X4.5906Y-3.1109
X4.5945Y-2.685
X4.5945Y-2.7323
X4.6063Y-4.3976
X4.6142Y-2.6024
X4.6299Y-4.0
X4.689Y-2.811
X4.689Y-3.0197
X4.7638Y-2.7165
X4.7756Y-3.6024
X4.7953Y-3.4331
X4.8031Y-3.315
X4.8382Y-4.5445
X4.874Y-2.1181
X4.8858Y-1.9685
X4.913Y-4.0449
X4.9213Y-3.878
X4.9252Y-3.4961
X4.9291Y-2.938
X4.9361Y-2.9855
X4.9764Y-3.8819
X5.0Y-2.8976
X5.0024Y-4.0437
X5.0236Y-3.0374
X5.0236Y-3.0866
X5.0591Y-2.813
X5.0591Y-2.8661
X5.0827Y-3.9372
X5.102Y-4.3429
X5.1476Y-2.9291
X5.2461Y-3.0413
X5.3571Y-4.2142
T2
X5.0079Y-3.3268
X5.2047Y-3.3268
X4.5913Y-1.6535
X4.5913Y-1.9535
X4.6913Y-1.6535
X4.6913Y-1.9535
X4.7913Y-1.6535
X4.7913Y-1.9535
X3.6339Y-3.7835
X3.9339Y-3.7835
T3
X4.562Y-3.0428
X4.8961Y-4.122
X4.8961Y-4.222
X4.8961Y-4.322
X4.8961Y-4.422
X4.9961Y-4.172
X4.9961Y-4.272
X4.9961Y-4.372
X4.9961Y-4.472
X4.1693Y-4.122
X4.1693Y-4.222
X4.1693Y-4.322
X4.1693Y-4.422
X4.2693Y-4.172
X4.2693Y-4.272
X4.2693Y-4.372
X4.2693Y-4.472
T4
X4.3386Y-1.6693
X4.3386Y-1.7693
X4.3386Y-1.8693
X4.3386Y-1.9693
X4.3386Y-2.0693
X4.3409Y-3.7244
X4.4409Y-3.7244
X4.5409Y-3.7244
X4.6409Y-3.7244
X5.2409Y-3.7244
X5.3409Y-3.7244
X5.4409Y-3.7244
T5
X5.3071Y-1.752
X5.3071Y-1.852
X5.3071Y-1.952
X5.3071Y-2.052
X5.3071Y-2.152
X5.3071Y-2.252
X5.3071Y-2.352
X5.3071Y-2.452
X5.3071Y-2.552
X5.3071Y-2.652
X5.3071Y-2.752
X5.3071Y-2.852
X5.3071Y-2.952
X5.4071Y-1.752
X5.4071Y-1.852
X5.4071Y-1.952
X5.4071Y-2.052
X5.4071Y-2.152
X5.4071Y-2.252
X5.4071Y-2.352
X5.4071Y-2.452
X5.4071Y-2.552
X5.4071Y-2.652
X5.4071Y-2.752
X5.4071Y-2.852
X5.4071Y-2.952
X3.7953Y-1.752
X3.7953Y-1.852
X3.7953Y-1.952
X3.7953Y-2.052
X3.7953Y-2.152
X3.7953Y-2.252
X3.7953Y-2.352
X3.7953Y-2.452
X3.7953Y-2.552
X3.7953Y-2.652
X3.7953Y-2.752
X3.7953Y-2.852
X3.7953Y-2.952
X3.8953Y-1.752
X3.8953Y-1.852
X3.8953Y-1.952
X3.8953Y-2.052
X3.8953Y-2.152
X3.8953Y-2.252
X3.8953Y-2.352
X3.8953Y-2.452
X3.8953Y-2.552
X3.8953Y-2.652
X3.8953Y-2.752
X3.8953Y-2.852
X3.8953Y-2.952
T6
X5.3661Y-3.9911
X5.3661Y-4.603
X3.7992Y-3.9911
X3.7992Y-4.603
T7
X4.1535Y-1.6102
X4.5866Y-4.5276
X5.0197Y-1.6102
T8
X5.2461Y-4.072
X5.2461Y-4.522
X3.9193Y-4.072
X3.9193Y-4.522
T0
M30
