G04 #@! TF.GenerationSoftware,KiCad,Pcbnew,(5.1.0)-1*
G04 #@! TF.CreationDate,2020-04-23T00:52:51+08:00*
G04 #@! TF.ProjectId,IRController,4952436f-6e74-4726-9f6c-6c65722e6b69,rev?*
G04 #@! TF.SameCoordinates,Original*
G04 #@! TF.FileFunction,Soldermask,Bot*
G04 #@! TF.FilePolarity,Negative*
%FSLAX46Y46*%
G04 Gerber Fmt 4.6, Leading zero omitted, Abs format (unit mm)*
G04 Created by KiCad (PCBNEW (5.1.0)-1) date 2020-04-23 00:52:51*
%MOMM*%
%LPD*%
G04 APERTURE LIST*
%ADD10C,0.100000*%
G04 APERTURE END LIST*
D10*
G36*
X136602585Y-115393802D02*
G01*
X136752410Y-115423604D01*
X137034674Y-115540521D01*
X137288705Y-115710259D01*
X137504741Y-115926295D01*
X137674479Y-116180326D01*
X137791396Y-116462590D01*
X137851000Y-116762240D01*
X137851000Y-117067760D01*
X137791396Y-117367410D01*
X137674479Y-117649674D01*
X137504741Y-117903705D01*
X137288705Y-118119741D01*
X137034674Y-118289479D01*
X136752410Y-118406396D01*
X136602585Y-118436198D01*
X136452761Y-118466000D01*
X136147239Y-118466000D01*
X135997415Y-118436198D01*
X135847590Y-118406396D01*
X135565326Y-118289479D01*
X135311295Y-118119741D01*
X135095259Y-117903705D01*
X134925521Y-117649674D01*
X134808604Y-117367410D01*
X134749000Y-117067760D01*
X134749000Y-116762240D01*
X134808604Y-116462590D01*
X134925521Y-116180326D01*
X135095259Y-115926295D01*
X135311295Y-115710259D01*
X135565326Y-115540521D01*
X135847590Y-115423604D01*
X135997415Y-115393802D01*
X136147239Y-115364000D01*
X136452761Y-115364000D01*
X136602585Y-115393802D01*
X136602585Y-115393802D01*
G37*
G36*
X96802585Y-115393802D02*
G01*
X96952410Y-115423604D01*
X97234674Y-115540521D01*
X97488705Y-115710259D01*
X97704741Y-115926295D01*
X97874479Y-116180326D01*
X97991396Y-116462590D01*
X98051000Y-116762240D01*
X98051000Y-117067760D01*
X97991396Y-117367410D01*
X97874479Y-117649674D01*
X97704741Y-117903705D01*
X97488705Y-118119741D01*
X97234674Y-118289479D01*
X96952410Y-118406396D01*
X96802585Y-118436198D01*
X96652761Y-118466000D01*
X96347239Y-118466000D01*
X96197415Y-118436198D01*
X96047590Y-118406396D01*
X95765326Y-118289479D01*
X95511295Y-118119741D01*
X95295259Y-117903705D01*
X95125521Y-117649674D01*
X95008604Y-117367410D01*
X94949000Y-117067760D01*
X94949000Y-116762240D01*
X95008604Y-116462590D01*
X95125521Y-116180326D01*
X95295259Y-115926295D01*
X95511295Y-115710259D01*
X95765326Y-115540521D01*
X96047590Y-115423604D01*
X96197415Y-115393802D01*
X96347239Y-115364000D01*
X96652761Y-115364000D01*
X96802585Y-115393802D01*
X96802585Y-115393802D01*
G37*
G36*
X133548718Y-113210584D02*
G01*
X133738871Y-113248408D01*
X134043883Y-113374748D01*
X134318387Y-113558166D01*
X134551834Y-113791613D01*
X134735252Y-114066117D01*
X134861592Y-114371129D01*
X134926000Y-114694928D01*
X134926000Y-115025072D01*
X134861592Y-115348871D01*
X134735252Y-115653883D01*
X134551834Y-115928387D01*
X134318387Y-116161834D01*
X134043883Y-116345252D01*
X133738871Y-116471592D01*
X133576971Y-116503796D01*
X133415073Y-116536000D01*
X133084927Y-116536000D01*
X132923029Y-116503796D01*
X132761129Y-116471592D01*
X132456117Y-116345252D01*
X132181613Y-116161834D01*
X131948166Y-115928387D01*
X131764748Y-115653883D01*
X131638408Y-115348871D01*
X131574000Y-115025072D01*
X131574000Y-114694928D01*
X131638408Y-114371129D01*
X131764748Y-114066117D01*
X131948166Y-113791613D01*
X132181613Y-113558166D01*
X132456117Y-113374748D01*
X132761129Y-113248408D01*
X132951282Y-113210584D01*
X133084927Y-113184000D01*
X133415073Y-113184000D01*
X133548718Y-113210584D01*
X133548718Y-113210584D01*
G37*
G36*
X99848718Y-113210584D02*
G01*
X100038871Y-113248408D01*
X100343883Y-113374748D01*
X100618387Y-113558166D01*
X100851834Y-113791613D01*
X101035252Y-114066117D01*
X101161592Y-114371129D01*
X101226000Y-114694928D01*
X101226000Y-115025072D01*
X101161592Y-115348871D01*
X101035252Y-115653883D01*
X100851834Y-115928387D01*
X100618387Y-116161834D01*
X100343883Y-116345252D01*
X100038871Y-116471592D01*
X99876971Y-116503796D01*
X99715073Y-116536000D01*
X99384927Y-116536000D01*
X99223029Y-116503796D01*
X99061129Y-116471592D01*
X98756117Y-116345252D01*
X98481613Y-116161834D01*
X98248166Y-115928387D01*
X98064748Y-115653883D01*
X97938408Y-115348871D01*
X97874000Y-115025072D01*
X97874000Y-114694928D01*
X97938408Y-114371129D01*
X98064748Y-114066117D01*
X98248166Y-113791613D01*
X98481613Y-113558166D01*
X98756117Y-113374748D01*
X99061129Y-113248408D01*
X99251282Y-113210584D01*
X99384927Y-113184000D01*
X99715073Y-113184000D01*
X99848718Y-113210584D01*
X99848718Y-113210584D01*
G37*
G36*
X127701000Y-114391000D02*
G01*
X126099000Y-114391000D01*
X126099000Y-112789000D01*
X127701000Y-112789000D01*
X127701000Y-114391000D01*
X127701000Y-114391000D01*
G37*
G36*
X108673642Y-112819781D02*
G01*
X108819414Y-112880162D01*
X108819416Y-112880163D01*
X108950608Y-112967822D01*
X109062178Y-113079392D01*
X109069412Y-113090219D01*
X109149838Y-113210586D01*
X109210219Y-113356358D01*
X109241000Y-113511107D01*
X109241000Y-113668893D01*
X109210219Y-113823642D01*
X109149838Y-113969414D01*
X109149837Y-113969416D01*
X109062178Y-114100608D01*
X108950608Y-114212178D01*
X108819416Y-114299837D01*
X108819415Y-114299838D01*
X108819414Y-114299838D01*
X108673642Y-114360219D01*
X108518893Y-114391000D01*
X108361107Y-114391000D01*
X108206358Y-114360219D01*
X108060586Y-114299838D01*
X108060585Y-114299838D01*
X108060584Y-114299837D01*
X107929392Y-114212178D01*
X107817822Y-114100608D01*
X107730163Y-113969416D01*
X107730162Y-113969414D01*
X107669781Y-113823642D01*
X107639000Y-113668893D01*
X107639000Y-113511107D01*
X107669781Y-113356358D01*
X107730162Y-113210586D01*
X107810588Y-113090219D01*
X107817822Y-113079392D01*
X107929392Y-112967822D01*
X108060584Y-112880163D01*
X108060586Y-112880162D01*
X108206358Y-112819781D01*
X108361107Y-112789000D01*
X108518893Y-112789000D01*
X108673642Y-112819781D01*
X108673642Y-112819781D01*
G37*
G36*
X106133642Y-111549781D02*
G01*
X106279414Y-111610162D01*
X106279416Y-111610163D01*
X106410608Y-111697822D01*
X106522178Y-111809392D01*
X106529412Y-111820219D01*
X106609838Y-111940586D01*
X106670219Y-112086358D01*
X106701000Y-112241107D01*
X106701000Y-112398893D01*
X106670219Y-112553642D01*
X106609838Y-112699414D01*
X106609837Y-112699416D01*
X106522178Y-112830608D01*
X106410608Y-112942178D01*
X106279416Y-113029837D01*
X106279415Y-113029838D01*
X106279414Y-113029838D01*
X106133642Y-113090219D01*
X105978893Y-113121000D01*
X105821107Y-113121000D01*
X105666358Y-113090219D01*
X105520586Y-113029838D01*
X105520585Y-113029838D01*
X105520584Y-113029837D01*
X105389392Y-112942178D01*
X105277822Y-112830608D01*
X105190163Y-112699416D01*
X105190162Y-112699414D01*
X105129781Y-112553642D01*
X105099000Y-112398893D01*
X105099000Y-112241107D01*
X105129781Y-112086358D01*
X105190162Y-111940586D01*
X105270588Y-111820219D01*
X105277822Y-111809392D01*
X105389392Y-111697822D01*
X105520584Y-111610163D01*
X105520586Y-111610162D01*
X105666358Y-111549781D01*
X105821107Y-111519000D01*
X105978893Y-111519000D01*
X106133642Y-111549781D01*
X106133642Y-111549781D01*
G37*
G36*
X124593642Y-111549781D02*
G01*
X124739414Y-111610162D01*
X124739416Y-111610163D01*
X124870608Y-111697822D01*
X124982178Y-111809392D01*
X124989412Y-111820219D01*
X125069838Y-111940586D01*
X125130219Y-112086358D01*
X125161000Y-112241107D01*
X125161000Y-112398893D01*
X125130219Y-112553642D01*
X125069838Y-112699414D01*
X125069837Y-112699416D01*
X124982178Y-112830608D01*
X124870608Y-112942178D01*
X124739416Y-113029837D01*
X124739415Y-113029838D01*
X124739414Y-113029838D01*
X124593642Y-113090219D01*
X124438893Y-113121000D01*
X124281107Y-113121000D01*
X124126358Y-113090219D01*
X123980586Y-113029838D01*
X123980585Y-113029838D01*
X123980584Y-113029837D01*
X123849392Y-112942178D01*
X123737822Y-112830608D01*
X123650163Y-112699416D01*
X123650162Y-112699414D01*
X123589781Y-112553642D01*
X123559000Y-112398893D01*
X123559000Y-112241107D01*
X123589781Y-112086358D01*
X123650162Y-111940586D01*
X123730588Y-111820219D01*
X123737822Y-111809392D01*
X123849392Y-111697822D01*
X123980584Y-111610163D01*
X123980586Y-111610162D01*
X124126358Y-111549781D01*
X124281107Y-111519000D01*
X124438893Y-111519000D01*
X124593642Y-111549781D01*
X124593642Y-111549781D01*
G37*
G36*
X108673642Y-110279781D02*
G01*
X108819414Y-110340162D01*
X108819416Y-110340163D01*
X108950608Y-110427822D01*
X109062178Y-110539392D01*
X109069412Y-110550219D01*
X109149838Y-110670586D01*
X109210219Y-110816358D01*
X109241000Y-110971107D01*
X109241000Y-111128893D01*
X109210219Y-111283642D01*
X109169070Y-111382983D01*
X109149837Y-111429416D01*
X109062178Y-111560608D01*
X108950608Y-111672178D01*
X108819416Y-111759837D01*
X108819415Y-111759838D01*
X108819414Y-111759838D01*
X108673642Y-111820219D01*
X108518893Y-111851000D01*
X108361107Y-111851000D01*
X108206358Y-111820219D01*
X108060586Y-111759838D01*
X108060585Y-111759838D01*
X108060584Y-111759837D01*
X107929392Y-111672178D01*
X107817822Y-111560608D01*
X107730163Y-111429416D01*
X107710930Y-111382983D01*
X107669781Y-111283642D01*
X107639000Y-111128893D01*
X107639000Y-110971107D01*
X107669781Y-110816358D01*
X107730162Y-110670586D01*
X107810588Y-110550219D01*
X107817822Y-110539392D01*
X107929392Y-110427822D01*
X108060584Y-110340163D01*
X108060586Y-110340162D01*
X108206358Y-110279781D01*
X108361107Y-110249000D01*
X108518893Y-110249000D01*
X108673642Y-110279781D01*
X108673642Y-110279781D01*
G37*
G36*
X127133642Y-110279781D02*
G01*
X127279414Y-110340162D01*
X127279416Y-110340163D01*
X127410608Y-110427822D01*
X127522178Y-110539392D01*
X127529412Y-110550219D01*
X127609838Y-110670586D01*
X127670219Y-110816358D01*
X127701000Y-110971107D01*
X127701000Y-111128893D01*
X127670219Y-111283642D01*
X127629070Y-111382983D01*
X127609837Y-111429416D01*
X127522178Y-111560608D01*
X127410608Y-111672178D01*
X127279416Y-111759837D01*
X127279415Y-111759838D01*
X127279414Y-111759838D01*
X127133642Y-111820219D01*
X126978893Y-111851000D01*
X126821107Y-111851000D01*
X126666358Y-111820219D01*
X126520586Y-111759838D01*
X126520585Y-111759838D01*
X126520584Y-111759837D01*
X126389392Y-111672178D01*
X126277822Y-111560608D01*
X126190163Y-111429416D01*
X126170930Y-111382983D01*
X126129781Y-111283642D01*
X126099000Y-111128893D01*
X126099000Y-110971107D01*
X126129781Y-110816358D01*
X126190162Y-110670586D01*
X126270588Y-110550219D01*
X126277822Y-110539392D01*
X126389392Y-110427822D01*
X126520584Y-110340163D01*
X126520586Y-110340162D01*
X126666358Y-110279781D01*
X126821107Y-110249000D01*
X126978893Y-110249000D01*
X127133642Y-110279781D01*
X127133642Y-110279781D01*
G37*
G36*
X119838674Y-110053465D02*
G01*
X119876367Y-110064899D01*
X119911103Y-110083466D01*
X119941548Y-110108452D01*
X119966534Y-110138897D01*
X119985101Y-110173633D01*
X119996535Y-110211326D01*
X120001000Y-110256661D01*
X120001000Y-111343339D01*
X119996535Y-111388674D01*
X119985101Y-111426367D01*
X119966534Y-111461103D01*
X119941548Y-111491548D01*
X119911103Y-111516534D01*
X119876367Y-111535101D01*
X119838674Y-111546535D01*
X119793339Y-111551000D01*
X118956661Y-111551000D01*
X118911326Y-111546535D01*
X118873633Y-111535101D01*
X118838897Y-111516534D01*
X118808452Y-111491548D01*
X118783466Y-111461103D01*
X118764899Y-111426367D01*
X118753465Y-111388674D01*
X118749000Y-111343339D01*
X118749000Y-110256661D01*
X118753465Y-110211326D01*
X118764899Y-110173633D01*
X118783466Y-110138897D01*
X118808452Y-110108452D01*
X118838897Y-110083466D01*
X118873633Y-110064899D01*
X118911326Y-110053465D01*
X118956661Y-110049000D01*
X119793339Y-110049000D01*
X119838674Y-110053465D01*
X119838674Y-110053465D01*
G37*
G36*
X121888674Y-110053465D02*
G01*
X121926367Y-110064899D01*
X121961103Y-110083466D01*
X121991548Y-110108452D01*
X122016534Y-110138897D01*
X122035101Y-110173633D01*
X122046535Y-110211326D01*
X122051000Y-110256661D01*
X122051000Y-111343339D01*
X122046535Y-111388674D01*
X122035101Y-111426367D01*
X122016534Y-111461103D01*
X121991548Y-111491548D01*
X121961103Y-111516534D01*
X121926367Y-111535101D01*
X121888674Y-111546535D01*
X121843339Y-111551000D01*
X121006661Y-111551000D01*
X120961326Y-111546535D01*
X120923633Y-111535101D01*
X120888897Y-111516534D01*
X120858452Y-111491548D01*
X120833466Y-111461103D01*
X120814899Y-111426367D01*
X120803465Y-111388674D01*
X120799000Y-111343339D01*
X120799000Y-110256661D01*
X120803465Y-110211326D01*
X120814899Y-110173633D01*
X120833466Y-110138897D01*
X120858452Y-110108452D01*
X120888897Y-110083466D01*
X120923633Y-110064899D01*
X120961326Y-110053465D01*
X121006661Y-110049000D01*
X121843339Y-110049000D01*
X121888674Y-110053465D01*
X121888674Y-110053465D01*
G37*
G36*
X135951000Y-111501000D02*
G01*
X135049000Y-111501000D01*
X135049000Y-110499000D01*
X135951000Y-110499000D01*
X135951000Y-111501000D01*
X135951000Y-111501000D01*
G37*
G36*
X106133642Y-109009781D02*
G01*
X106279414Y-109070162D01*
X106279416Y-109070163D01*
X106410608Y-109157822D01*
X106522178Y-109269392D01*
X106529412Y-109280219D01*
X106609838Y-109400586D01*
X106670219Y-109546358D01*
X106701000Y-109701107D01*
X106701000Y-109858893D01*
X106670219Y-110013642D01*
X106618336Y-110138897D01*
X106609837Y-110159416D01*
X106522178Y-110290608D01*
X106410608Y-110402178D01*
X106279416Y-110489837D01*
X106279415Y-110489838D01*
X106279414Y-110489838D01*
X106133642Y-110550219D01*
X105978893Y-110581000D01*
X105821107Y-110581000D01*
X105666358Y-110550219D01*
X105520586Y-110489838D01*
X105520585Y-110489838D01*
X105520584Y-110489837D01*
X105389392Y-110402178D01*
X105277822Y-110290608D01*
X105190163Y-110159416D01*
X105181664Y-110138897D01*
X105129781Y-110013642D01*
X105099000Y-109858893D01*
X105099000Y-109701107D01*
X105129781Y-109546358D01*
X105190162Y-109400586D01*
X105270588Y-109280219D01*
X105277822Y-109269392D01*
X105389392Y-109157822D01*
X105520584Y-109070163D01*
X105520586Y-109070162D01*
X105666358Y-109009781D01*
X105821107Y-108979000D01*
X105978893Y-108979000D01*
X106133642Y-109009781D01*
X106133642Y-109009781D01*
G37*
G36*
X124593642Y-109009781D02*
G01*
X124739414Y-109070162D01*
X124739416Y-109070163D01*
X124870608Y-109157822D01*
X124982178Y-109269392D01*
X124989412Y-109280219D01*
X125069838Y-109400586D01*
X125130219Y-109546358D01*
X125161000Y-109701107D01*
X125161000Y-109858893D01*
X125130219Y-110013642D01*
X125078336Y-110138897D01*
X125069837Y-110159416D01*
X124982178Y-110290608D01*
X124870608Y-110402178D01*
X124739416Y-110489837D01*
X124739415Y-110489838D01*
X124739414Y-110489838D01*
X124593642Y-110550219D01*
X124438893Y-110581000D01*
X124281107Y-110581000D01*
X124126358Y-110550219D01*
X123980586Y-110489838D01*
X123980585Y-110489838D01*
X123980584Y-110489837D01*
X123849392Y-110402178D01*
X123737822Y-110290608D01*
X123650163Y-110159416D01*
X123641664Y-110138897D01*
X123589781Y-110013642D01*
X123559000Y-109858893D01*
X123559000Y-109701107D01*
X123589781Y-109546358D01*
X123650162Y-109400586D01*
X123730588Y-109280219D01*
X123737822Y-109269392D01*
X123849392Y-109157822D01*
X123980584Y-109070163D01*
X123980586Y-109070162D01*
X124126358Y-109009781D01*
X124281107Y-108979000D01*
X124438893Y-108979000D01*
X124593642Y-109009781D01*
X124593642Y-109009781D01*
G37*
G36*
X136901000Y-109501000D02*
G01*
X135999000Y-109501000D01*
X135999000Y-108499000D01*
X136901000Y-108499000D01*
X136901000Y-109501000D01*
X136901000Y-109501000D01*
G37*
G36*
X135001000Y-109501000D02*
G01*
X134099000Y-109501000D01*
X134099000Y-108499000D01*
X135001000Y-108499000D01*
X135001000Y-109501000D01*
X135001000Y-109501000D01*
G37*
G36*
X127133642Y-107739781D02*
G01*
X127279414Y-107800162D01*
X127279416Y-107800163D01*
X127410608Y-107887822D01*
X127522178Y-107999392D01*
X127590185Y-108101173D01*
X127609838Y-108130586D01*
X127670219Y-108276358D01*
X127701000Y-108431107D01*
X127701000Y-108588893D01*
X127670219Y-108743642D01*
X127609838Y-108889414D01*
X127609837Y-108889416D01*
X127522178Y-109020608D01*
X127410608Y-109132178D01*
X127279416Y-109219837D01*
X127279415Y-109219838D01*
X127279414Y-109219838D01*
X127133642Y-109280219D01*
X126978893Y-109311000D01*
X126821107Y-109311000D01*
X126666358Y-109280219D01*
X126520586Y-109219838D01*
X126520585Y-109219838D01*
X126520584Y-109219837D01*
X126389392Y-109132178D01*
X126277822Y-109020608D01*
X126190163Y-108889416D01*
X126190162Y-108889414D01*
X126129781Y-108743642D01*
X126099000Y-108588893D01*
X126099000Y-108431107D01*
X126129781Y-108276358D01*
X126190162Y-108130586D01*
X126209815Y-108101173D01*
X126277822Y-107999392D01*
X126389392Y-107887822D01*
X126520584Y-107800163D01*
X126520586Y-107800162D01*
X126666358Y-107739781D01*
X126821107Y-107709000D01*
X126978893Y-107709000D01*
X127133642Y-107739781D01*
X127133642Y-107739781D01*
G37*
G36*
X108673642Y-107739781D02*
G01*
X108819414Y-107800162D01*
X108819416Y-107800163D01*
X108950608Y-107887822D01*
X109062178Y-107999392D01*
X109130185Y-108101173D01*
X109149838Y-108130586D01*
X109210219Y-108276358D01*
X109241000Y-108431107D01*
X109241000Y-108588893D01*
X109210219Y-108743642D01*
X109149838Y-108889414D01*
X109149837Y-108889416D01*
X109062178Y-109020608D01*
X108950608Y-109132178D01*
X108819416Y-109219837D01*
X108819415Y-109219838D01*
X108819414Y-109219838D01*
X108673642Y-109280219D01*
X108518893Y-109311000D01*
X108361107Y-109311000D01*
X108206358Y-109280219D01*
X108060586Y-109219838D01*
X108060585Y-109219838D01*
X108060584Y-109219837D01*
X107929392Y-109132178D01*
X107817822Y-109020608D01*
X107730163Y-108889416D01*
X107730162Y-108889414D01*
X107669781Y-108743642D01*
X107639000Y-108588893D01*
X107639000Y-108431107D01*
X107669781Y-108276358D01*
X107730162Y-108130586D01*
X107749815Y-108101173D01*
X107817822Y-107999392D01*
X107929392Y-107887822D01*
X108060584Y-107800163D01*
X108060586Y-107800162D01*
X108206358Y-107739781D01*
X108361107Y-107709000D01*
X108518893Y-107709000D01*
X108673642Y-107739781D01*
X108673642Y-107739781D01*
G37*
G36*
X121509928Y-108556764D02*
G01*
X121531009Y-108563160D01*
X121550445Y-108573548D01*
X121567476Y-108587524D01*
X121581452Y-108604555D01*
X121591840Y-108623991D01*
X121598236Y-108645072D01*
X121601000Y-108673140D01*
X121601000Y-109136860D01*
X121598236Y-109164928D01*
X121591840Y-109186009D01*
X121581452Y-109205445D01*
X121567476Y-109222476D01*
X121550445Y-109236452D01*
X121531009Y-109246840D01*
X121509928Y-109253236D01*
X121481860Y-109256000D01*
X119868140Y-109256000D01*
X119840072Y-109253236D01*
X119818991Y-109246840D01*
X119799555Y-109236452D01*
X119782524Y-109222476D01*
X119768548Y-109205445D01*
X119758160Y-109186009D01*
X119751764Y-109164928D01*
X119749000Y-109136860D01*
X119749000Y-108673140D01*
X119751764Y-108645072D01*
X119758160Y-108623991D01*
X119768548Y-108604555D01*
X119782524Y-108587524D01*
X119799555Y-108573548D01*
X119818991Y-108563160D01*
X119840072Y-108556764D01*
X119868140Y-108554000D01*
X121481860Y-108554000D01*
X121509928Y-108556764D01*
X121509928Y-108556764D01*
G37*
G36*
X116359928Y-108556764D02*
G01*
X116381009Y-108563160D01*
X116400445Y-108573548D01*
X116417476Y-108587524D01*
X116431452Y-108604555D01*
X116441840Y-108623991D01*
X116448236Y-108645072D01*
X116451000Y-108673140D01*
X116451000Y-109136860D01*
X116448236Y-109164928D01*
X116441840Y-109186009D01*
X116431452Y-109205445D01*
X116417476Y-109222476D01*
X116400445Y-109236452D01*
X116381009Y-109246840D01*
X116359928Y-109253236D01*
X116331860Y-109256000D01*
X114718140Y-109256000D01*
X114690072Y-109253236D01*
X114668991Y-109246840D01*
X114649555Y-109236452D01*
X114632524Y-109222476D01*
X114618548Y-109205445D01*
X114608160Y-109186009D01*
X114601764Y-109164928D01*
X114599000Y-109136860D01*
X114599000Y-108673140D01*
X114601764Y-108645072D01*
X114608160Y-108623991D01*
X114618548Y-108604555D01*
X114632524Y-108587524D01*
X114649555Y-108573548D01*
X114668991Y-108563160D01*
X114690072Y-108556764D01*
X114718140Y-108554000D01*
X116331860Y-108554000D01*
X116359928Y-108556764D01*
X116359928Y-108556764D01*
G37*
G36*
X130178674Y-107833465D02*
G01*
X130216367Y-107844899D01*
X130251103Y-107863466D01*
X130281548Y-107888452D01*
X130306534Y-107918897D01*
X130325101Y-107953633D01*
X130336535Y-107991326D01*
X130341000Y-108036661D01*
X130341000Y-108873339D01*
X130336535Y-108918674D01*
X130325101Y-108956367D01*
X130306534Y-108991103D01*
X130281548Y-109021548D01*
X130251103Y-109046534D01*
X130216367Y-109065101D01*
X130178674Y-109076535D01*
X130133339Y-109081000D01*
X129046661Y-109081000D01*
X129001326Y-109076535D01*
X128963633Y-109065101D01*
X128928897Y-109046534D01*
X128898452Y-109021548D01*
X128873466Y-108991103D01*
X128854899Y-108956367D01*
X128843465Y-108918674D01*
X128839000Y-108873339D01*
X128839000Y-108036661D01*
X128843465Y-107991326D01*
X128854899Y-107953633D01*
X128873466Y-107918897D01*
X128898452Y-107888452D01*
X128928897Y-107863466D01*
X128963633Y-107844899D01*
X129001326Y-107833465D01*
X129046661Y-107829000D01*
X130133339Y-107829000D01*
X130178674Y-107833465D01*
X130178674Y-107833465D01*
G37*
G36*
X132668674Y-107813465D02*
G01*
X132706367Y-107824899D01*
X132741103Y-107843466D01*
X132771548Y-107868452D01*
X132796534Y-107898897D01*
X132815101Y-107933633D01*
X132826535Y-107971326D01*
X132831000Y-108016661D01*
X132831000Y-108853339D01*
X132826535Y-108898674D01*
X132815101Y-108936367D01*
X132796534Y-108971103D01*
X132771548Y-109001548D01*
X132741103Y-109026534D01*
X132706367Y-109045101D01*
X132668674Y-109056535D01*
X132623339Y-109061000D01*
X131536661Y-109061000D01*
X131491326Y-109056535D01*
X131453633Y-109045101D01*
X131418897Y-109026534D01*
X131388452Y-109001548D01*
X131363466Y-108971103D01*
X131344899Y-108936367D01*
X131333465Y-108898674D01*
X131329000Y-108853339D01*
X131329000Y-108016661D01*
X131333465Y-107971326D01*
X131344899Y-107933633D01*
X131363466Y-107898897D01*
X131388452Y-107868452D01*
X131418897Y-107843466D01*
X131453633Y-107824899D01*
X131491326Y-107813465D01*
X131536661Y-107809000D01*
X132623339Y-107809000D01*
X132668674Y-107813465D01*
X132668674Y-107813465D01*
G37*
G36*
X97138674Y-106853465D02*
G01*
X97176367Y-106864899D01*
X97211103Y-106883466D01*
X97241548Y-106908452D01*
X97266534Y-106938897D01*
X97285101Y-106973633D01*
X97296535Y-107011326D01*
X97301000Y-107056661D01*
X97301000Y-108143339D01*
X97296535Y-108188674D01*
X97285101Y-108226367D01*
X97266534Y-108261103D01*
X97241548Y-108291548D01*
X97211103Y-108316534D01*
X97176367Y-108335101D01*
X97138674Y-108346535D01*
X97093339Y-108351000D01*
X96256661Y-108351000D01*
X96211326Y-108346535D01*
X96173633Y-108335101D01*
X96138897Y-108316534D01*
X96108452Y-108291548D01*
X96083466Y-108261103D01*
X96064899Y-108226367D01*
X96053465Y-108188674D01*
X96049000Y-108143339D01*
X96049000Y-107056661D01*
X96053465Y-107011326D01*
X96064899Y-106973633D01*
X96083466Y-106938897D01*
X96108452Y-106908452D01*
X96138897Y-106883466D01*
X96173633Y-106864899D01*
X96211326Y-106853465D01*
X96256661Y-106849000D01*
X97093339Y-106849000D01*
X97138674Y-106853465D01*
X97138674Y-106853465D01*
G37*
G36*
X99188674Y-106853465D02*
G01*
X99226367Y-106864899D01*
X99261103Y-106883466D01*
X99291548Y-106908452D01*
X99316534Y-106938897D01*
X99335101Y-106973633D01*
X99346535Y-107011326D01*
X99351000Y-107056661D01*
X99351000Y-108143339D01*
X99346535Y-108188674D01*
X99335101Y-108226367D01*
X99316534Y-108261103D01*
X99291548Y-108291548D01*
X99261103Y-108316534D01*
X99226367Y-108335101D01*
X99188674Y-108346535D01*
X99143339Y-108351000D01*
X98306661Y-108351000D01*
X98261326Y-108346535D01*
X98223633Y-108335101D01*
X98188897Y-108316534D01*
X98158452Y-108291548D01*
X98133466Y-108261103D01*
X98114899Y-108226367D01*
X98103465Y-108188674D01*
X98099000Y-108143339D01*
X98099000Y-107056661D01*
X98103465Y-107011326D01*
X98114899Y-106973633D01*
X98133466Y-106938897D01*
X98158452Y-106908452D01*
X98188897Y-106883466D01*
X98223633Y-106864899D01*
X98261326Y-106853465D01*
X98306661Y-106849000D01*
X99143339Y-106849000D01*
X99188674Y-106853465D01*
X99188674Y-106853465D01*
G37*
G36*
X124593642Y-106469781D02*
G01*
X124739414Y-106530162D01*
X124739416Y-106530163D01*
X124870608Y-106617822D01*
X124982178Y-106729392D01*
X125058076Y-106842983D01*
X125069838Y-106860586D01*
X125130219Y-107006358D01*
X125161000Y-107161107D01*
X125161000Y-107318893D01*
X125130219Y-107473642D01*
X125069838Y-107619414D01*
X125069837Y-107619416D01*
X124982178Y-107750608D01*
X124870608Y-107862178D01*
X124739416Y-107949837D01*
X124739415Y-107949838D01*
X124739414Y-107949838D01*
X124593642Y-108010219D01*
X124438893Y-108041000D01*
X124281107Y-108041000D01*
X124126358Y-108010219D01*
X123980586Y-107949838D01*
X123980585Y-107949838D01*
X123980584Y-107949837D01*
X123849392Y-107862178D01*
X123737822Y-107750608D01*
X123650163Y-107619416D01*
X123650162Y-107619414D01*
X123589781Y-107473642D01*
X123559000Y-107318893D01*
X123559000Y-107161107D01*
X123589781Y-107006358D01*
X123650162Y-106860586D01*
X123661924Y-106842983D01*
X123737822Y-106729392D01*
X123849392Y-106617822D01*
X123980584Y-106530163D01*
X123980586Y-106530162D01*
X124126358Y-106469781D01*
X124281107Y-106439000D01*
X124438893Y-106439000D01*
X124593642Y-106469781D01*
X124593642Y-106469781D01*
G37*
G36*
X106133642Y-106469781D02*
G01*
X106279414Y-106530162D01*
X106279416Y-106530163D01*
X106410608Y-106617822D01*
X106522178Y-106729392D01*
X106598076Y-106842983D01*
X106609838Y-106860586D01*
X106670219Y-107006358D01*
X106701000Y-107161107D01*
X106701000Y-107318893D01*
X106670219Y-107473642D01*
X106609838Y-107619414D01*
X106609837Y-107619416D01*
X106522178Y-107750608D01*
X106410608Y-107862178D01*
X106279416Y-107949837D01*
X106279415Y-107949838D01*
X106279414Y-107949838D01*
X106133642Y-108010219D01*
X105978893Y-108041000D01*
X105821107Y-108041000D01*
X105666358Y-108010219D01*
X105520586Y-107949838D01*
X105520585Y-107949838D01*
X105520584Y-107949837D01*
X105389392Y-107862178D01*
X105277822Y-107750608D01*
X105190163Y-107619416D01*
X105190162Y-107619414D01*
X105129781Y-107473642D01*
X105099000Y-107318893D01*
X105099000Y-107161107D01*
X105129781Y-107006358D01*
X105190162Y-106860586D01*
X105201924Y-106842983D01*
X105277822Y-106729392D01*
X105389392Y-106617822D01*
X105520584Y-106530163D01*
X105520586Y-106530162D01*
X105666358Y-106469781D01*
X105821107Y-106439000D01*
X105978893Y-106439000D01*
X106133642Y-106469781D01*
X106133642Y-106469781D01*
G37*
G36*
X121509928Y-107286764D02*
G01*
X121531009Y-107293160D01*
X121550445Y-107303548D01*
X121567476Y-107317524D01*
X121581452Y-107334555D01*
X121591840Y-107353991D01*
X121598236Y-107375072D01*
X121601000Y-107403140D01*
X121601000Y-107866860D01*
X121598236Y-107894928D01*
X121591840Y-107916009D01*
X121581452Y-107935445D01*
X121567476Y-107952476D01*
X121550445Y-107966452D01*
X121531009Y-107976840D01*
X121509928Y-107983236D01*
X121481860Y-107986000D01*
X119868140Y-107986000D01*
X119840072Y-107983236D01*
X119818991Y-107976840D01*
X119799555Y-107966452D01*
X119782524Y-107952476D01*
X119768548Y-107935445D01*
X119758160Y-107916009D01*
X119751764Y-107894928D01*
X119749000Y-107866860D01*
X119749000Y-107403140D01*
X119751764Y-107375072D01*
X119758160Y-107353991D01*
X119768548Y-107334555D01*
X119782524Y-107317524D01*
X119799555Y-107303548D01*
X119818991Y-107293160D01*
X119840072Y-107286764D01*
X119868140Y-107284000D01*
X121481860Y-107284000D01*
X121509928Y-107286764D01*
X121509928Y-107286764D01*
G37*
G36*
X116359928Y-107286764D02*
G01*
X116381009Y-107293160D01*
X116400445Y-107303548D01*
X116417476Y-107317524D01*
X116431452Y-107334555D01*
X116441840Y-107353991D01*
X116448236Y-107375072D01*
X116451000Y-107403140D01*
X116451000Y-107866860D01*
X116448236Y-107894928D01*
X116441840Y-107916009D01*
X116431452Y-107935445D01*
X116417476Y-107952476D01*
X116400445Y-107966452D01*
X116381009Y-107976840D01*
X116359928Y-107983236D01*
X116331860Y-107986000D01*
X114718140Y-107986000D01*
X114690072Y-107983236D01*
X114668991Y-107976840D01*
X114649555Y-107966452D01*
X114632524Y-107952476D01*
X114618548Y-107935445D01*
X114608160Y-107916009D01*
X114601764Y-107894928D01*
X114599000Y-107866860D01*
X114599000Y-107403140D01*
X114601764Y-107375072D01*
X114608160Y-107353991D01*
X114618548Y-107334555D01*
X114632524Y-107317524D01*
X114649555Y-107303548D01*
X114668991Y-107293160D01*
X114690072Y-107286764D01*
X114718140Y-107284000D01*
X116331860Y-107284000D01*
X116359928Y-107286764D01*
X116359928Y-107286764D01*
G37*
G36*
X130178674Y-105783465D02*
G01*
X130216367Y-105794899D01*
X130251103Y-105813466D01*
X130281548Y-105838452D01*
X130306534Y-105868897D01*
X130325101Y-105903633D01*
X130336535Y-105941326D01*
X130341000Y-105986661D01*
X130341000Y-106823339D01*
X130336535Y-106868674D01*
X130325101Y-106906367D01*
X130306534Y-106941103D01*
X130281548Y-106971548D01*
X130251103Y-106996534D01*
X130216367Y-107015101D01*
X130178674Y-107026535D01*
X130133339Y-107031000D01*
X129046661Y-107031000D01*
X129001326Y-107026535D01*
X128963633Y-107015101D01*
X128928897Y-106996534D01*
X128898452Y-106971548D01*
X128873466Y-106941103D01*
X128854899Y-106906367D01*
X128843465Y-106868674D01*
X128839000Y-106823339D01*
X128839000Y-105986661D01*
X128843465Y-105941326D01*
X128854899Y-105903633D01*
X128873466Y-105868897D01*
X128898452Y-105838452D01*
X128928897Y-105813466D01*
X128963633Y-105794899D01*
X129001326Y-105783465D01*
X129046661Y-105779000D01*
X130133339Y-105779000D01*
X130178674Y-105783465D01*
X130178674Y-105783465D01*
G37*
G36*
X132668674Y-105763465D02*
G01*
X132706367Y-105774899D01*
X132741103Y-105793466D01*
X132771548Y-105818452D01*
X132796534Y-105848897D01*
X132815101Y-105883633D01*
X132826535Y-105921326D01*
X132831000Y-105966661D01*
X132831000Y-106803339D01*
X132826535Y-106848674D01*
X132815101Y-106886367D01*
X132796534Y-106921103D01*
X132771548Y-106951548D01*
X132741103Y-106976534D01*
X132706367Y-106995101D01*
X132668674Y-107006535D01*
X132623339Y-107011000D01*
X131536661Y-107011000D01*
X131491326Y-107006535D01*
X131453633Y-106995101D01*
X131418897Y-106976534D01*
X131388452Y-106951548D01*
X131363466Y-106921103D01*
X131344899Y-106886367D01*
X131333465Y-106848674D01*
X131329000Y-106803339D01*
X131329000Y-105966661D01*
X131333465Y-105921326D01*
X131344899Y-105883633D01*
X131363466Y-105848897D01*
X131388452Y-105818452D01*
X131418897Y-105793466D01*
X131453633Y-105774899D01*
X131491326Y-105763465D01*
X131536661Y-105759000D01*
X132623339Y-105759000D01*
X132668674Y-105763465D01*
X132668674Y-105763465D01*
G37*
G36*
X108673642Y-105199781D02*
G01*
X108819414Y-105260162D01*
X108819416Y-105260163D01*
X108950608Y-105347822D01*
X109062178Y-105459392D01*
X109069412Y-105470219D01*
X109149838Y-105590586D01*
X109210219Y-105736358D01*
X109241000Y-105891107D01*
X109241000Y-106048893D01*
X109210219Y-106203642D01*
X109149838Y-106349414D01*
X109149837Y-106349416D01*
X109062178Y-106480608D01*
X108950608Y-106592178D01*
X108819416Y-106679837D01*
X108819415Y-106679838D01*
X108819414Y-106679838D01*
X108673642Y-106740219D01*
X108518893Y-106771000D01*
X108361107Y-106771000D01*
X108206358Y-106740219D01*
X108060586Y-106679838D01*
X108060585Y-106679838D01*
X108060584Y-106679837D01*
X107929392Y-106592178D01*
X107817822Y-106480608D01*
X107730163Y-106349416D01*
X107730162Y-106349414D01*
X107669781Y-106203642D01*
X107639000Y-106048893D01*
X107639000Y-105891107D01*
X107669781Y-105736358D01*
X107730162Y-105590586D01*
X107810588Y-105470219D01*
X107817822Y-105459392D01*
X107929392Y-105347822D01*
X108060584Y-105260163D01*
X108060586Y-105260162D01*
X108206358Y-105199781D01*
X108361107Y-105169000D01*
X108518893Y-105169000D01*
X108673642Y-105199781D01*
X108673642Y-105199781D01*
G37*
G36*
X127133642Y-105199781D02*
G01*
X127279414Y-105260162D01*
X127279416Y-105260163D01*
X127410608Y-105347822D01*
X127522178Y-105459392D01*
X127529412Y-105470219D01*
X127609838Y-105590586D01*
X127670219Y-105736358D01*
X127701000Y-105891107D01*
X127701000Y-106048893D01*
X127670219Y-106203642D01*
X127609838Y-106349414D01*
X127609837Y-106349416D01*
X127522178Y-106480608D01*
X127410608Y-106592178D01*
X127279416Y-106679837D01*
X127279415Y-106679838D01*
X127279414Y-106679838D01*
X127133642Y-106740219D01*
X126978893Y-106771000D01*
X126821107Y-106771000D01*
X126666358Y-106740219D01*
X126520586Y-106679838D01*
X126520585Y-106679838D01*
X126520584Y-106679837D01*
X126389392Y-106592178D01*
X126277822Y-106480608D01*
X126190163Y-106349416D01*
X126190162Y-106349414D01*
X126129781Y-106203642D01*
X126099000Y-106048893D01*
X126099000Y-105891107D01*
X126129781Y-105736358D01*
X126190162Y-105590586D01*
X126270588Y-105470219D01*
X126277822Y-105459392D01*
X126389392Y-105347822D01*
X126520584Y-105260163D01*
X126520586Y-105260162D01*
X126666358Y-105199781D01*
X126821107Y-105169000D01*
X126978893Y-105169000D01*
X127133642Y-105199781D01*
X127133642Y-105199781D01*
G37*
G36*
X121509928Y-106016764D02*
G01*
X121531009Y-106023160D01*
X121550445Y-106033548D01*
X121567476Y-106047524D01*
X121581452Y-106064555D01*
X121591840Y-106083991D01*
X121598236Y-106105072D01*
X121601000Y-106133140D01*
X121601000Y-106596860D01*
X121598236Y-106624928D01*
X121591840Y-106646009D01*
X121581452Y-106665445D01*
X121567476Y-106682476D01*
X121550445Y-106696452D01*
X121531009Y-106706840D01*
X121509928Y-106713236D01*
X121481860Y-106716000D01*
X119868140Y-106716000D01*
X119840072Y-106713236D01*
X119818991Y-106706840D01*
X119799555Y-106696452D01*
X119782524Y-106682476D01*
X119768548Y-106665445D01*
X119758160Y-106646009D01*
X119751764Y-106624928D01*
X119749000Y-106596860D01*
X119749000Y-106133140D01*
X119751764Y-106105072D01*
X119758160Y-106083991D01*
X119768548Y-106064555D01*
X119782524Y-106047524D01*
X119799555Y-106033548D01*
X119818991Y-106023160D01*
X119840072Y-106016764D01*
X119868140Y-106014000D01*
X121481860Y-106014000D01*
X121509928Y-106016764D01*
X121509928Y-106016764D01*
G37*
G36*
X116359928Y-106016764D02*
G01*
X116381009Y-106023160D01*
X116400445Y-106033548D01*
X116417476Y-106047524D01*
X116431452Y-106064555D01*
X116441840Y-106083991D01*
X116448236Y-106105072D01*
X116451000Y-106133140D01*
X116451000Y-106596860D01*
X116448236Y-106624928D01*
X116441840Y-106646009D01*
X116431452Y-106665445D01*
X116417476Y-106682476D01*
X116400445Y-106696452D01*
X116381009Y-106706840D01*
X116359928Y-106713236D01*
X116331860Y-106716000D01*
X114718140Y-106716000D01*
X114690072Y-106713236D01*
X114668991Y-106706840D01*
X114649555Y-106696452D01*
X114632524Y-106682476D01*
X114618548Y-106665445D01*
X114608160Y-106646009D01*
X114601764Y-106624928D01*
X114599000Y-106596860D01*
X114599000Y-106133140D01*
X114601764Y-106105072D01*
X114608160Y-106083991D01*
X114618548Y-106064555D01*
X114632524Y-106047524D01*
X114649555Y-106033548D01*
X114668991Y-106023160D01*
X114690072Y-106016764D01*
X114718140Y-106014000D01*
X116331860Y-106014000D01*
X116359928Y-106016764D01*
X116359928Y-106016764D01*
G37*
G36*
X106701000Y-105501000D02*
G01*
X105099000Y-105501000D01*
X105099000Y-103899000D01*
X106701000Y-103899000D01*
X106701000Y-105501000D01*
X106701000Y-105501000D01*
G37*
G36*
X124593642Y-103929781D02*
G01*
X124739414Y-103990162D01*
X124739416Y-103990163D01*
X124870608Y-104077822D01*
X124982178Y-104189392D01*
X125069837Y-104320584D01*
X125069838Y-104320586D01*
X125130219Y-104466358D01*
X125161000Y-104621107D01*
X125161000Y-104778893D01*
X125130219Y-104933642D01*
X125085504Y-105041592D01*
X125069837Y-105079416D01*
X124982178Y-105210608D01*
X124870608Y-105322178D01*
X124739416Y-105409837D01*
X124739415Y-105409838D01*
X124739414Y-105409838D01*
X124593642Y-105470219D01*
X124438893Y-105501000D01*
X124281107Y-105501000D01*
X124126358Y-105470219D01*
X123980586Y-105409838D01*
X123980585Y-105409838D01*
X123980584Y-105409837D01*
X123849392Y-105322178D01*
X123737822Y-105210608D01*
X123650163Y-105079416D01*
X123634496Y-105041592D01*
X123589781Y-104933642D01*
X123559000Y-104778893D01*
X123559000Y-104621107D01*
X123589781Y-104466358D01*
X123650162Y-104320586D01*
X123650163Y-104320584D01*
X123737822Y-104189392D01*
X123849392Y-104077822D01*
X123980584Y-103990163D01*
X123980586Y-103990162D01*
X124126358Y-103929781D01*
X124281107Y-103899000D01*
X124438893Y-103899000D01*
X124593642Y-103929781D01*
X124593642Y-103929781D01*
G37*
G36*
X121509928Y-104746764D02*
G01*
X121531009Y-104753160D01*
X121550445Y-104763548D01*
X121567476Y-104777524D01*
X121581452Y-104794555D01*
X121591840Y-104813991D01*
X121598236Y-104835072D01*
X121601000Y-104863140D01*
X121601000Y-105326860D01*
X121598236Y-105354928D01*
X121591840Y-105376009D01*
X121581452Y-105395445D01*
X121567476Y-105412476D01*
X121550445Y-105426452D01*
X121531009Y-105436840D01*
X121509928Y-105443236D01*
X121481860Y-105446000D01*
X119868140Y-105446000D01*
X119840072Y-105443236D01*
X119818991Y-105436840D01*
X119799555Y-105426452D01*
X119782524Y-105412476D01*
X119768548Y-105395445D01*
X119758160Y-105376009D01*
X119751764Y-105354928D01*
X119749000Y-105326860D01*
X119749000Y-104863140D01*
X119751764Y-104835072D01*
X119758160Y-104813991D01*
X119768548Y-104794555D01*
X119782524Y-104777524D01*
X119799555Y-104763548D01*
X119818991Y-104753160D01*
X119840072Y-104746764D01*
X119868140Y-104744000D01*
X121481860Y-104744000D01*
X121509928Y-104746764D01*
X121509928Y-104746764D01*
G37*
G36*
X116359928Y-104746764D02*
G01*
X116381009Y-104753160D01*
X116400445Y-104763548D01*
X116417476Y-104777524D01*
X116431452Y-104794555D01*
X116441840Y-104813991D01*
X116448236Y-104835072D01*
X116451000Y-104863140D01*
X116451000Y-105326860D01*
X116448236Y-105354928D01*
X116441840Y-105376009D01*
X116431452Y-105395445D01*
X116417476Y-105412476D01*
X116400445Y-105426452D01*
X116381009Y-105436840D01*
X116359928Y-105443236D01*
X116331860Y-105446000D01*
X114718140Y-105446000D01*
X114690072Y-105443236D01*
X114668991Y-105436840D01*
X114649555Y-105426452D01*
X114632524Y-105412476D01*
X114618548Y-105395445D01*
X114608160Y-105376009D01*
X114601764Y-105354928D01*
X114599000Y-105326860D01*
X114599000Y-104863140D01*
X114601764Y-104835072D01*
X114608160Y-104813991D01*
X114618548Y-104794555D01*
X114632524Y-104777524D01*
X114649555Y-104763548D01*
X114668991Y-104753160D01*
X114690072Y-104746764D01*
X114718140Y-104744000D01*
X116331860Y-104744000D01*
X116359928Y-104746764D01*
X116359928Y-104746764D01*
G37*
G36*
X99860779Y-101782983D02*
G01*
X100038871Y-101818408D01*
X100343883Y-101944748D01*
X100618387Y-102128166D01*
X100851834Y-102361613D01*
X101035252Y-102636117D01*
X101161592Y-102941129D01*
X101226000Y-103264928D01*
X101226000Y-103595072D01*
X101161592Y-103918871D01*
X101035252Y-104223883D01*
X100851834Y-104498387D01*
X100618387Y-104731834D01*
X100343883Y-104915252D01*
X100038871Y-105041592D01*
X99876971Y-105073796D01*
X99715073Y-105106000D01*
X99384927Y-105106000D01*
X99061129Y-105041592D01*
X98756117Y-104915252D01*
X98481613Y-104731834D01*
X98248166Y-104498387D01*
X98064748Y-104223883D01*
X97938408Y-103918871D01*
X97874000Y-103595072D01*
X97874000Y-103264928D01*
X97938408Y-102941129D01*
X98064748Y-102636117D01*
X98248166Y-102361613D01*
X98481613Y-102128166D01*
X98756117Y-101944748D01*
X99061129Y-101818408D01*
X99239221Y-101782983D01*
X99384927Y-101754000D01*
X99715073Y-101754000D01*
X99860779Y-101782983D01*
X99860779Y-101782983D01*
G37*
G36*
X133560779Y-101782983D02*
G01*
X133738871Y-101818408D01*
X134043883Y-101944748D01*
X134318387Y-102128166D01*
X134551834Y-102361613D01*
X134735252Y-102636117D01*
X134861592Y-102941129D01*
X134926000Y-103264928D01*
X134926000Y-103595072D01*
X134861592Y-103918871D01*
X134735252Y-104223883D01*
X134551834Y-104498387D01*
X134318387Y-104731834D01*
X134043883Y-104915252D01*
X133738871Y-105041592D01*
X133576971Y-105073796D01*
X133415073Y-105106000D01*
X133084927Y-105106000D01*
X132761129Y-105041592D01*
X132456117Y-104915252D01*
X132181613Y-104731834D01*
X131948166Y-104498387D01*
X131764748Y-104223883D01*
X131638408Y-103918871D01*
X131574000Y-103595072D01*
X131574000Y-103264928D01*
X131638408Y-102941129D01*
X131764748Y-102636117D01*
X131948166Y-102361613D01*
X132181613Y-102128166D01*
X132456117Y-101944748D01*
X132761129Y-101818408D01*
X132939221Y-101782983D01*
X133084927Y-101754000D01*
X133415073Y-101754000D01*
X133560779Y-101782983D01*
X133560779Y-101782983D01*
G37*
G36*
X136540980Y-99841548D02*
G01*
X136752410Y-99883604D01*
X137034674Y-100000521D01*
X137288705Y-100170259D01*
X137504741Y-100386295D01*
X137674479Y-100640326D01*
X137791396Y-100922590D01*
X137791396Y-100922591D01*
X137851000Y-101222239D01*
X137851000Y-101527761D01*
X137821198Y-101677585D01*
X137791396Y-101827410D01*
X137674479Y-102109674D01*
X137504741Y-102363705D01*
X137288705Y-102579741D01*
X137034674Y-102749479D01*
X136752410Y-102866396D01*
X136602585Y-102896198D01*
X136452761Y-102926000D01*
X136147239Y-102926000D01*
X135997415Y-102896198D01*
X135847590Y-102866396D01*
X135565326Y-102749479D01*
X135311295Y-102579741D01*
X135095259Y-102363705D01*
X134925521Y-102109674D01*
X134808604Y-101827410D01*
X134778802Y-101677585D01*
X134749000Y-101527761D01*
X134749000Y-101222239D01*
X134808604Y-100922591D01*
X134808604Y-100922590D01*
X134925521Y-100640326D01*
X135095259Y-100386295D01*
X135311295Y-100170259D01*
X135565326Y-100000521D01*
X135847590Y-99883604D01*
X136059020Y-99841548D01*
X136147239Y-99824000D01*
X136452761Y-99824000D01*
X136540980Y-99841548D01*
X136540980Y-99841548D01*
G37*
G36*
X96740980Y-99841548D02*
G01*
X96952410Y-99883604D01*
X97234674Y-100000521D01*
X97488705Y-100170259D01*
X97704741Y-100386295D01*
X97874479Y-100640326D01*
X97991396Y-100922590D01*
X97991396Y-100922591D01*
X98051000Y-101222239D01*
X98051000Y-101527761D01*
X98021198Y-101677585D01*
X97991396Y-101827410D01*
X97874479Y-102109674D01*
X97704741Y-102363705D01*
X97488705Y-102579741D01*
X97234674Y-102749479D01*
X96952410Y-102866396D01*
X96802585Y-102896198D01*
X96652761Y-102926000D01*
X96347239Y-102926000D01*
X96197415Y-102896198D01*
X96047590Y-102866396D01*
X95765326Y-102749479D01*
X95511295Y-102579741D01*
X95295259Y-102363705D01*
X95125521Y-102109674D01*
X95008604Y-101827410D01*
X94978802Y-101677585D01*
X94949000Y-101527761D01*
X94949000Y-101222239D01*
X95008604Y-100922591D01*
X95008604Y-100922590D01*
X95125521Y-100640326D01*
X95295259Y-100386295D01*
X95511295Y-100170259D01*
X95765326Y-100000521D01*
X96047590Y-99883604D01*
X96259020Y-99841548D01*
X96347239Y-99824000D01*
X96652761Y-99824000D01*
X96740980Y-99841548D01*
X96740980Y-99841548D01*
G37*
G36*
X122088674Y-100703465D02*
G01*
X122126367Y-100714899D01*
X122161103Y-100733466D01*
X122191548Y-100758452D01*
X122216534Y-100788897D01*
X122235101Y-100823633D01*
X122246535Y-100861326D01*
X122251000Y-100906661D01*
X122251000Y-101743339D01*
X122246535Y-101788674D01*
X122235101Y-101826367D01*
X122216534Y-101861103D01*
X122191548Y-101891548D01*
X122161103Y-101916534D01*
X122126367Y-101935101D01*
X122088674Y-101946535D01*
X122043339Y-101951000D01*
X120956661Y-101951000D01*
X120911326Y-101946535D01*
X120873633Y-101935101D01*
X120838897Y-101916534D01*
X120808452Y-101891548D01*
X120783466Y-101861103D01*
X120764899Y-101826367D01*
X120753465Y-101788674D01*
X120749000Y-101743339D01*
X120749000Y-100906661D01*
X120753465Y-100861326D01*
X120764899Y-100823633D01*
X120783466Y-100788897D01*
X120808452Y-100758452D01*
X120838897Y-100733466D01*
X120873633Y-100714899D01*
X120911326Y-100703465D01*
X120956661Y-100699000D01*
X122043339Y-100699000D01*
X122088674Y-100703465D01*
X122088674Y-100703465D01*
G37*
G36*
X123846000Y-101926000D02*
G01*
X123144000Y-101926000D01*
X123144000Y-100274000D01*
X123846000Y-100274000D01*
X123846000Y-101926000D01*
X123846000Y-101926000D01*
G37*
G36*
X125116000Y-101926000D02*
G01*
X124414000Y-101926000D01*
X124414000Y-100274000D01*
X125116000Y-100274000D01*
X125116000Y-101926000D01*
X125116000Y-101926000D01*
G37*
G36*
X127656000Y-101926000D02*
G01*
X126954000Y-101926000D01*
X126954000Y-100274000D01*
X127656000Y-100274000D01*
X127656000Y-101926000D01*
X127656000Y-101926000D01*
G37*
G36*
X126386000Y-101926000D02*
G01*
X125684000Y-101926000D01*
X125684000Y-100274000D01*
X126386000Y-100274000D01*
X126386000Y-101926000D01*
X126386000Y-101926000D01*
G37*
G36*
X120064499Y-100428445D02*
G01*
X120101995Y-100439820D01*
X120136554Y-100458292D01*
X120166847Y-100483153D01*
X120191708Y-100513446D01*
X120210180Y-100548005D01*
X120221555Y-100585501D01*
X120226000Y-100630638D01*
X120226000Y-101369362D01*
X120221555Y-101414499D01*
X120210180Y-101451995D01*
X120191708Y-101486554D01*
X120166847Y-101516847D01*
X120136554Y-101541708D01*
X120101995Y-101560180D01*
X120064499Y-101571555D01*
X120019362Y-101576000D01*
X119380638Y-101576000D01*
X119335501Y-101571555D01*
X119298005Y-101560180D01*
X119263446Y-101541708D01*
X119233153Y-101516847D01*
X119208292Y-101486554D01*
X119189820Y-101451995D01*
X119178445Y-101414499D01*
X119174000Y-101369362D01*
X119174000Y-100630638D01*
X119178445Y-100585501D01*
X119189820Y-100548005D01*
X119208292Y-100513446D01*
X119233153Y-100483153D01*
X119263446Y-100458292D01*
X119298005Y-100439820D01*
X119335501Y-100428445D01*
X119380638Y-100424000D01*
X120019362Y-100424000D01*
X120064499Y-100428445D01*
X120064499Y-100428445D01*
G37*
G36*
X122088674Y-98653465D02*
G01*
X122126367Y-98664899D01*
X122161103Y-98683466D01*
X122191548Y-98708452D01*
X122216534Y-98738897D01*
X122235101Y-98773633D01*
X122246535Y-98811326D01*
X122251000Y-98856661D01*
X122251000Y-99693339D01*
X122246535Y-99738674D01*
X122235102Y-99776364D01*
X122216534Y-99811103D01*
X122191548Y-99841548D01*
X122161103Y-99866534D01*
X122126367Y-99885101D01*
X122088674Y-99896535D01*
X122043339Y-99901000D01*
X120956661Y-99901000D01*
X120911326Y-99896535D01*
X120873633Y-99885101D01*
X120838897Y-99866534D01*
X120808452Y-99841548D01*
X120783466Y-99811103D01*
X120764898Y-99776364D01*
X120753465Y-99738674D01*
X120749000Y-99693339D01*
X120749000Y-98856661D01*
X120753465Y-98811326D01*
X120764899Y-98773633D01*
X120783466Y-98738897D01*
X120808452Y-98708452D01*
X120838897Y-98683466D01*
X120873633Y-98664899D01*
X120911326Y-98653465D01*
X120956661Y-98649000D01*
X122043339Y-98649000D01*
X122088674Y-98653465D01*
X122088674Y-98653465D01*
G37*
G36*
X120064499Y-98678445D02*
G01*
X120101995Y-98689820D01*
X120136554Y-98708292D01*
X120166847Y-98733153D01*
X120191708Y-98763446D01*
X120210180Y-98798005D01*
X120221555Y-98835501D01*
X120226000Y-98880638D01*
X120226000Y-99619362D01*
X120221555Y-99664499D01*
X120210180Y-99701995D01*
X120191708Y-99736554D01*
X120166847Y-99766847D01*
X120136554Y-99791708D01*
X120101995Y-99810180D01*
X120064499Y-99821555D01*
X120019362Y-99826000D01*
X119380638Y-99826000D01*
X119335501Y-99821555D01*
X119298005Y-99810180D01*
X119263446Y-99791708D01*
X119233153Y-99766847D01*
X119208292Y-99736554D01*
X119189820Y-99701995D01*
X119178445Y-99664499D01*
X119174000Y-99619362D01*
X119174000Y-98880638D01*
X119178445Y-98835501D01*
X119189820Y-98798005D01*
X119208292Y-98763446D01*
X119233153Y-98733153D01*
X119263446Y-98708292D01*
X119298005Y-98689820D01*
X119335501Y-98678445D01*
X119380638Y-98674000D01*
X120019362Y-98674000D01*
X120064499Y-98678445D01*
X120064499Y-98678445D01*
G37*
G36*
X122088674Y-96903465D02*
G01*
X122126367Y-96914899D01*
X122161103Y-96933466D01*
X122191548Y-96958452D01*
X122216534Y-96988897D01*
X122235101Y-97023633D01*
X122246535Y-97061326D01*
X122251000Y-97106661D01*
X122251000Y-97943339D01*
X122246535Y-97988674D01*
X122235101Y-98026367D01*
X122216534Y-98061103D01*
X122191548Y-98091548D01*
X122161103Y-98116534D01*
X122126367Y-98135101D01*
X122088674Y-98146535D01*
X122043339Y-98151000D01*
X120956661Y-98151000D01*
X120911326Y-98146535D01*
X120873633Y-98135101D01*
X120838897Y-98116534D01*
X120808452Y-98091548D01*
X120783466Y-98061103D01*
X120764899Y-98026367D01*
X120753465Y-97988674D01*
X120749000Y-97943339D01*
X120749000Y-97106661D01*
X120753465Y-97061326D01*
X120764899Y-97023633D01*
X120783466Y-96988897D01*
X120808452Y-96958452D01*
X120838897Y-96933466D01*
X120873633Y-96914899D01*
X120911326Y-96903465D01*
X120956661Y-96899000D01*
X122043339Y-96899000D01*
X122088674Y-96903465D01*
X122088674Y-96903465D01*
G37*
G36*
X129688674Y-96903465D02*
G01*
X129726367Y-96914899D01*
X129761103Y-96933466D01*
X129791548Y-96958452D01*
X129816534Y-96988897D01*
X129835101Y-97023633D01*
X129846535Y-97061326D01*
X129851000Y-97106661D01*
X129851000Y-97943339D01*
X129846535Y-97988674D01*
X129835101Y-98026367D01*
X129816534Y-98061103D01*
X129791548Y-98091548D01*
X129761103Y-98116534D01*
X129726367Y-98135101D01*
X129688674Y-98146535D01*
X129643339Y-98151000D01*
X128556661Y-98151000D01*
X128511326Y-98146535D01*
X128473633Y-98135101D01*
X128438897Y-98116534D01*
X128408452Y-98091548D01*
X128383466Y-98061103D01*
X128364899Y-98026367D01*
X128353465Y-97988674D01*
X128349000Y-97943339D01*
X128349000Y-97106661D01*
X128353465Y-97061326D01*
X128364899Y-97023633D01*
X128383466Y-96988897D01*
X128408452Y-96958452D01*
X128438897Y-96933466D01*
X128473633Y-96914899D01*
X128511326Y-96903465D01*
X128556661Y-96899000D01*
X129643339Y-96899000D01*
X129688674Y-96903465D01*
X129688674Y-96903465D01*
G37*
G36*
X100086823Y-95261313D02*
G01*
X100217380Y-95300917D01*
X100240765Y-95308011D01*
X100247242Y-95309976D01*
X100379906Y-95380886D01*
X100395078Y-95388996D01*
X100524659Y-95495341D01*
X100631004Y-95624922D01*
X100631005Y-95624924D01*
X100710024Y-95772758D01*
X100758687Y-95933177D01*
X100775117Y-96100000D01*
X100758687Y-96266823D01*
X100710024Y-96427242D01*
X100657237Y-96526000D01*
X100631004Y-96575078D01*
X100524659Y-96704659D01*
X100395078Y-96811004D01*
X100395076Y-96811005D01*
X100247242Y-96890024D01*
X100086823Y-96938687D01*
X99961804Y-96951000D01*
X99878196Y-96951000D01*
X99753177Y-96938687D01*
X99592758Y-96890024D01*
X99444924Y-96811005D01*
X99444922Y-96811004D01*
X99315341Y-96704659D01*
X99208996Y-96575078D01*
X99182763Y-96526000D01*
X99129976Y-96427242D01*
X99081313Y-96266823D01*
X99064883Y-96100000D01*
X99081313Y-95933177D01*
X99129976Y-95772758D01*
X99208995Y-95624924D01*
X99208996Y-95624922D01*
X99315341Y-95495341D01*
X99444922Y-95388996D01*
X99460094Y-95380886D01*
X99592758Y-95309976D01*
X99599236Y-95308011D01*
X99622620Y-95300917D01*
X99753177Y-95261313D01*
X99878196Y-95249000D01*
X99961804Y-95249000D01*
X100086823Y-95261313D01*
X100086823Y-95261313D01*
G37*
G36*
X93151000Y-96951000D02*
G01*
X91449000Y-96951000D01*
X91449000Y-95249000D01*
X93151000Y-95249000D01*
X93151000Y-96951000D01*
X93151000Y-96951000D01*
G37*
G36*
X123846000Y-96526000D02*
G01*
X123144000Y-96526000D01*
X123144000Y-94874000D01*
X123846000Y-94874000D01*
X123846000Y-96526000D01*
X123846000Y-96526000D01*
G37*
G36*
X125116000Y-96526000D02*
G01*
X124414000Y-96526000D01*
X124414000Y-94874000D01*
X125116000Y-94874000D01*
X125116000Y-96526000D01*
X125116000Y-96526000D01*
G37*
G36*
X126386000Y-96526000D02*
G01*
X125684000Y-96526000D01*
X125684000Y-94874000D01*
X126386000Y-94874000D01*
X126386000Y-96526000D01*
X126386000Y-96526000D01*
G37*
G36*
X127656000Y-96526000D02*
G01*
X126954000Y-96526000D01*
X126954000Y-94874000D01*
X127656000Y-94874000D01*
X127656000Y-96526000D01*
X127656000Y-96526000D01*
G37*
G36*
X122088674Y-94853465D02*
G01*
X122126367Y-94864899D01*
X122161103Y-94883466D01*
X122191548Y-94908452D01*
X122216534Y-94938897D01*
X122235101Y-94973633D01*
X122246535Y-95011326D01*
X122251000Y-95056661D01*
X122251000Y-95893339D01*
X122246535Y-95938674D01*
X122235101Y-95976367D01*
X122216534Y-96011103D01*
X122191548Y-96041548D01*
X122161103Y-96066534D01*
X122126367Y-96085101D01*
X122088674Y-96096535D01*
X122043339Y-96101000D01*
X120956661Y-96101000D01*
X120911326Y-96096535D01*
X120873633Y-96085101D01*
X120838897Y-96066534D01*
X120808452Y-96041548D01*
X120783466Y-96011103D01*
X120764899Y-95976367D01*
X120753465Y-95938674D01*
X120749000Y-95893339D01*
X120749000Y-95056661D01*
X120753465Y-95011326D01*
X120764899Y-94973633D01*
X120783466Y-94938897D01*
X120808452Y-94908452D01*
X120838897Y-94883466D01*
X120873633Y-94864899D01*
X120911326Y-94853465D01*
X120956661Y-94849000D01*
X122043339Y-94849000D01*
X122088674Y-94853465D01*
X122088674Y-94853465D01*
G37*
G36*
X129688674Y-94853465D02*
G01*
X129726367Y-94864899D01*
X129761103Y-94883466D01*
X129791548Y-94908452D01*
X129816534Y-94938897D01*
X129835101Y-94973633D01*
X129846535Y-95011326D01*
X129851000Y-95056661D01*
X129851000Y-95893339D01*
X129846535Y-95938674D01*
X129835101Y-95976367D01*
X129816534Y-96011103D01*
X129791548Y-96041548D01*
X129761103Y-96066534D01*
X129726367Y-96085101D01*
X129688674Y-96096535D01*
X129643339Y-96101000D01*
X128556661Y-96101000D01*
X128511326Y-96096535D01*
X128473633Y-96085101D01*
X128438897Y-96066534D01*
X128408452Y-96041548D01*
X128383466Y-96011103D01*
X128364899Y-95976367D01*
X128353465Y-95938674D01*
X128349000Y-95893339D01*
X128349000Y-95056661D01*
X128353465Y-95011326D01*
X128364899Y-94973633D01*
X128383466Y-94938897D01*
X128408452Y-94908452D01*
X128438897Y-94883466D01*
X128473633Y-94864899D01*
X128511326Y-94853465D01*
X128556661Y-94849000D01*
X129643339Y-94849000D01*
X129688674Y-94853465D01*
X129688674Y-94853465D01*
G37*
G36*
X133277023Y-93410590D02*
G01*
X133377682Y-93441125D01*
X133428013Y-93456392D01*
X133567165Y-93530771D01*
X133689133Y-93630867D01*
X133789229Y-93752835D01*
X133863608Y-93891987D01*
X133863608Y-93891988D01*
X133909410Y-94042977D01*
X133921000Y-94160655D01*
X133921000Y-95039345D01*
X133909410Y-95157023D01*
X133881509Y-95249000D01*
X133863608Y-95308013D01*
X133820322Y-95388995D01*
X133789229Y-95447165D01*
X133689133Y-95569133D01*
X133567164Y-95669229D01*
X133428012Y-95743608D01*
X133377681Y-95758875D01*
X133277022Y-95789410D01*
X133120000Y-95804875D01*
X132962977Y-95789410D01*
X132862318Y-95758875D01*
X132811987Y-95743608D01*
X132672835Y-95669229D01*
X132618849Y-95624924D01*
X132550867Y-95569133D01*
X132450771Y-95447164D01*
X132377442Y-95309976D01*
X132376392Y-95308012D01*
X132358491Y-95249000D01*
X132330590Y-95157022D01*
X132321830Y-95068075D01*
X132319000Y-95039345D01*
X132319000Y-94160655D01*
X132330591Y-94042979D01*
X132330591Y-94042977D01*
X132376393Y-93891988D01*
X132376393Y-93891987D01*
X132450772Y-93752835D01*
X132550868Y-93630867D01*
X132672836Y-93530771D01*
X132811988Y-93456392D01*
X132862319Y-93441125D01*
X132962978Y-93410590D01*
X133120000Y-93395125D01*
X133277023Y-93410590D01*
X133277023Y-93410590D01*
G37*
G36*
X135817023Y-93410590D02*
G01*
X135917682Y-93441125D01*
X135968013Y-93456392D01*
X136107165Y-93530771D01*
X136229133Y-93630867D01*
X136329229Y-93752835D01*
X136403608Y-93891987D01*
X136403608Y-93891988D01*
X136449410Y-94042977D01*
X136461000Y-94160655D01*
X136461000Y-95039345D01*
X136449410Y-95157023D01*
X136421509Y-95249000D01*
X136403608Y-95308013D01*
X136360322Y-95388995D01*
X136329229Y-95447165D01*
X136229133Y-95569133D01*
X136107164Y-95669229D01*
X135968012Y-95743608D01*
X135917681Y-95758875D01*
X135817022Y-95789410D01*
X135660000Y-95804875D01*
X135502977Y-95789410D01*
X135402318Y-95758875D01*
X135351987Y-95743608D01*
X135212835Y-95669229D01*
X135158849Y-95624924D01*
X135090867Y-95569133D01*
X134990771Y-95447164D01*
X134917442Y-95309976D01*
X134916392Y-95308012D01*
X134898491Y-95249000D01*
X134870590Y-95157022D01*
X134861830Y-95068075D01*
X134859000Y-95039345D01*
X134859000Y-94160655D01*
X134870591Y-94042979D01*
X134870591Y-94042977D01*
X134916393Y-93891988D01*
X134916393Y-93891987D01*
X134990772Y-93752835D01*
X135090868Y-93630867D01*
X135212836Y-93530771D01*
X135351988Y-93456392D01*
X135402319Y-93441125D01*
X135502978Y-93410590D01*
X135660000Y-93395125D01*
X135817023Y-93410590D01*
X135817023Y-93410590D01*
G37*
G36*
X118037023Y-93410590D02*
G01*
X118137682Y-93441125D01*
X118188013Y-93456392D01*
X118327165Y-93530771D01*
X118449133Y-93630867D01*
X118549229Y-93752835D01*
X118623608Y-93891987D01*
X118623608Y-93891988D01*
X118669410Y-94042977D01*
X118681000Y-94160655D01*
X118681000Y-95039345D01*
X118669410Y-95157023D01*
X118641509Y-95249000D01*
X118623608Y-95308013D01*
X118580322Y-95388995D01*
X118549229Y-95447165D01*
X118449133Y-95569133D01*
X118327164Y-95669229D01*
X118188012Y-95743608D01*
X118137681Y-95758875D01*
X118037022Y-95789410D01*
X117880000Y-95804875D01*
X117722977Y-95789410D01*
X117622318Y-95758875D01*
X117571987Y-95743608D01*
X117432835Y-95669229D01*
X117378849Y-95624924D01*
X117310867Y-95569133D01*
X117210771Y-95447164D01*
X117137442Y-95309976D01*
X117136392Y-95308012D01*
X117118491Y-95249000D01*
X117090590Y-95157022D01*
X117081830Y-95068075D01*
X117079000Y-95039345D01*
X117079000Y-94160655D01*
X117090591Y-94042979D01*
X117090591Y-94042977D01*
X117136393Y-93891988D01*
X117136393Y-93891987D01*
X117210772Y-93752835D01*
X117310868Y-93630867D01*
X117432836Y-93530771D01*
X117571988Y-93456392D01*
X117622319Y-93441125D01*
X117722978Y-93410590D01*
X117880000Y-93395125D01*
X118037023Y-93410590D01*
X118037023Y-93410590D01*
G37*
G36*
X110417023Y-93410590D02*
G01*
X110517682Y-93441125D01*
X110568013Y-93456392D01*
X110707165Y-93530771D01*
X110829133Y-93630867D01*
X110929229Y-93752835D01*
X111003608Y-93891987D01*
X111003608Y-93891988D01*
X111049410Y-94042977D01*
X111061000Y-94160655D01*
X111061000Y-95039345D01*
X111049410Y-95157023D01*
X111021509Y-95249000D01*
X111003608Y-95308013D01*
X110960322Y-95388995D01*
X110929229Y-95447165D01*
X110829133Y-95569133D01*
X110707164Y-95669229D01*
X110568012Y-95743608D01*
X110517681Y-95758875D01*
X110417022Y-95789410D01*
X110260000Y-95804875D01*
X110102977Y-95789410D01*
X110002318Y-95758875D01*
X109951987Y-95743608D01*
X109812835Y-95669229D01*
X109758849Y-95624924D01*
X109690867Y-95569133D01*
X109590771Y-95447164D01*
X109517442Y-95309976D01*
X109516392Y-95308012D01*
X109498491Y-95249000D01*
X109470590Y-95157022D01*
X109461830Y-95068075D01*
X109459000Y-95039345D01*
X109459000Y-94160655D01*
X109470591Y-94042979D01*
X109470591Y-94042977D01*
X109516393Y-93891988D01*
X109516393Y-93891987D01*
X109590772Y-93752835D01*
X109690868Y-93630867D01*
X109812836Y-93530771D01*
X109951988Y-93456392D01*
X110002319Y-93441125D01*
X110102978Y-93410590D01*
X110260000Y-93395125D01*
X110417023Y-93410590D01*
X110417023Y-93410590D01*
G37*
G36*
X112957023Y-93410590D02*
G01*
X113057682Y-93441125D01*
X113108013Y-93456392D01*
X113247165Y-93530771D01*
X113369133Y-93630867D01*
X113469229Y-93752835D01*
X113543608Y-93891987D01*
X113543608Y-93891988D01*
X113589410Y-94042977D01*
X113601000Y-94160655D01*
X113601000Y-95039345D01*
X113589410Y-95157023D01*
X113561509Y-95249000D01*
X113543608Y-95308013D01*
X113500322Y-95388995D01*
X113469229Y-95447165D01*
X113369133Y-95569133D01*
X113247164Y-95669229D01*
X113108012Y-95743608D01*
X113057681Y-95758875D01*
X112957022Y-95789410D01*
X112800000Y-95804875D01*
X112642977Y-95789410D01*
X112542318Y-95758875D01*
X112491987Y-95743608D01*
X112352835Y-95669229D01*
X112298849Y-95624924D01*
X112230867Y-95569133D01*
X112130771Y-95447164D01*
X112057442Y-95309976D01*
X112056392Y-95308012D01*
X112038491Y-95249000D01*
X112010590Y-95157022D01*
X112001830Y-95068075D01*
X111999000Y-95039345D01*
X111999000Y-94160655D01*
X112010591Y-94042979D01*
X112010591Y-94042977D01*
X112056393Y-93891988D01*
X112056393Y-93891987D01*
X112130772Y-93752835D01*
X112230868Y-93630867D01*
X112352836Y-93530771D01*
X112491988Y-93456392D01*
X112542319Y-93441125D01*
X112642978Y-93410590D01*
X112800000Y-93395125D01*
X112957023Y-93410590D01*
X112957023Y-93410590D01*
G37*
G36*
X115497023Y-93410590D02*
G01*
X115597682Y-93441125D01*
X115648013Y-93456392D01*
X115787165Y-93530771D01*
X115909133Y-93630867D01*
X116009229Y-93752835D01*
X116083608Y-93891987D01*
X116083608Y-93891988D01*
X116129410Y-94042977D01*
X116141000Y-94160655D01*
X116141000Y-95039345D01*
X116129410Y-95157023D01*
X116101509Y-95249000D01*
X116083608Y-95308013D01*
X116040322Y-95388995D01*
X116009229Y-95447165D01*
X115909133Y-95569133D01*
X115787164Y-95669229D01*
X115648012Y-95743608D01*
X115597681Y-95758875D01*
X115497022Y-95789410D01*
X115340000Y-95804875D01*
X115182977Y-95789410D01*
X115082318Y-95758875D01*
X115031987Y-95743608D01*
X114892835Y-95669229D01*
X114838849Y-95624924D01*
X114770867Y-95569133D01*
X114670771Y-95447164D01*
X114597442Y-95309976D01*
X114596392Y-95308012D01*
X114578491Y-95249000D01*
X114550590Y-95157022D01*
X114541830Y-95068075D01*
X114539000Y-95039345D01*
X114539000Y-94160655D01*
X114550591Y-94042979D01*
X114550591Y-94042977D01*
X114596393Y-93891988D01*
X114596393Y-93891987D01*
X114670772Y-93752835D01*
X114770868Y-93630867D01*
X114892836Y-93530771D01*
X115031988Y-93456392D01*
X115082319Y-93441125D01*
X115182978Y-93410590D01*
X115340000Y-93395125D01*
X115497023Y-93410590D01*
X115497023Y-93410590D01*
G37*
G36*
X139001000Y-95801000D02*
G01*
X137399000Y-95801000D01*
X137399000Y-93399000D01*
X139001000Y-93399000D01*
X139001000Y-95801000D01*
X139001000Y-95801000D01*
G37*
G36*
X97746000Y-92751000D02*
G01*
X97044000Y-92751000D01*
X97044000Y-91149000D01*
X97746000Y-91149000D01*
X97746000Y-92751000D01*
X97746000Y-92751000D01*
G37*
G36*
X102826000Y-92751000D02*
G01*
X102124000Y-92751000D01*
X102124000Y-91149000D01*
X102826000Y-91149000D01*
X102826000Y-92751000D01*
X102826000Y-92751000D01*
G37*
G36*
X99016000Y-92751000D02*
G01*
X98314000Y-92751000D01*
X98314000Y-91149000D01*
X99016000Y-91149000D01*
X99016000Y-92751000D01*
X99016000Y-92751000D01*
G37*
G36*
X104096000Y-92751000D02*
G01*
X103394000Y-92751000D01*
X103394000Y-91149000D01*
X104096000Y-91149000D01*
X104096000Y-92751000D01*
X104096000Y-92751000D01*
G37*
G36*
X101556000Y-92751000D02*
G01*
X100854000Y-92751000D01*
X100854000Y-91149000D01*
X101556000Y-91149000D01*
X101556000Y-92751000D01*
X101556000Y-92751000D01*
G37*
G36*
X100286000Y-92751000D02*
G01*
X99584000Y-92751000D01*
X99584000Y-91149000D01*
X100286000Y-91149000D01*
X100286000Y-92751000D01*
X100286000Y-92751000D01*
G37*
G36*
X96476000Y-92751000D02*
G01*
X95774000Y-92751000D01*
X95774000Y-91149000D01*
X96476000Y-91149000D01*
X96476000Y-92751000D01*
X96476000Y-92751000D01*
G37*
G36*
X95206000Y-92751000D02*
G01*
X94504000Y-92751000D01*
X94504000Y-91149000D01*
X95206000Y-91149000D01*
X95206000Y-92751000D01*
X95206000Y-92751000D01*
G37*
G36*
X115788674Y-90553465D02*
G01*
X115826367Y-90564899D01*
X115861103Y-90583466D01*
X115891548Y-90608452D01*
X115916534Y-90638897D01*
X115935101Y-90673633D01*
X115946535Y-90711326D01*
X115951000Y-90756661D01*
X115951000Y-91843339D01*
X115946535Y-91888674D01*
X115935101Y-91926367D01*
X115916534Y-91961103D01*
X115891548Y-91991548D01*
X115861103Y-92016534D01*
X115826367Y-92035101D01*
X115788674Y-92046535D01*
X115743339Y-92051000D01*
X114906661Y-92051000D01*
X114861326Y-92046535D01*
X114823633Y-92035101D01*
X114788897Y-92016534D01*
X114758452Y-91991548D01*
X114733466Y-91961103D01*
X114714899Y-91926367D01*
X114703465Y-91888674D01*
X114699000Y-91843339D01*
X114699000Y-90756661D01*
X114703465Y-90711326D01*
X114714899Y-90673633D01*
X114733466Y-90638897D01*
X114758452Y-90608452D01*
X114788897Y-90583466D01*
X114823633Y-90564899D01*
X114861326Y-90553465D01*
X114906661Y-90549000D01*
X115743339Y-90549000D01*
X115788674Y-90553465D01*
X115788674Y-90553465D01*
G37*
G36*
X113738674Y-90553465D02*
G01*
X113776367Y-90564899D01*
X113811103Y-90583466D01*
X113841548Y-90608452D01*
X113866534Y-90638897D01*
X113885101Y-90673633D01*
X113896535Y-90711326D01*
X113901000Y-90756661D01*
X113901000Y-91843339D01*
X113896535Y-91888674D01*
X113885101Y-91926367D01*
X113866534Y-91961103D01*
X113841548Y-91991548D01*
X113811103Y-92016534D01*
X113776367Y-92035101D01*
X113738674Y-92046535D01*
X113693339Y-92051000D01*
X112856661Y-92051000D01*
X112811326Y-92046535D01*
X112773633Y-92035101D01*
X112738897Y-92016534D01*
X112708452Y-91991548D01*
X112683466Y-91961103D01*
X112664899Y-91926367D01*
X112653465Y-91888674D01*
X112649000Y-91843339D01*
X112649000Y-90756661D01*
X112653465Y-90711326D01*
X112664899Y-90673633D01*
X112683466Y-90638897D01*
X112708452Y-90608452D01*
X112738897Y-90583466D01*
X112773633Y-90564899D01*
X112811326Y-90553465D01*
X112856661Y-90549000D01*
X113693339Y-90549000D01*
X113738674Y-90553465D01*
X113738674Y-90553465D01*
G37*
G36*
X120026000Y-91981000D02*
G01*
X117374000Y-91981000D01*
X117374000Y-90819000D01*
X120026000Y-90819000D01*
X120026000Y-91981000D01*
X120026000Y-91981000D01*
G37*
G36*
X132925562Y-89378181D02*
G01*
X132960481Y-89388774D01*
X132992663Y-89405976D01*
X133020873Y-89429127D01*
X133044024Y-89457337D01*
X133061226Y-89489519D01*
X133071819Y-89524438D01*
X133076000Y-89566895D01*
X133076000Y-91033105D01*
X133071819Y-91075562D01*
X133061226Y-91110481D01*
X133044024Y-91142663D01*
X133020873Y-91170873D01*
X132992663Y-91194024D01*
X132960481Y-91211226D01*
X132925562Y-91221819D01*
X132883105Y-91226000D01*
X131741895Y-91226000D01*
X131699438Y-91221819D01*
X131664519Y-91211226D01*
X131632337Y-91194024D01*
X131604127Y-91170873D01*
X131580976Y-91142663D01*
X131563774Y-91110481D01*
X131553181Y-91075562D01*
X131549000Y-91033105D01*
X131549000Y-89566895D01*
X131553181Y-89524438D01*
X131563774Y-89489519D01*
X131580976Y-89457337D01*
X131604127Y-89429127D01*
X131632337Y-89405976D01*
X131664519Y-89388774D01*
X131699438Y-89378181D01*
X131741895Y-89374000D01*
X132883105Y-89374000D01*
X132925562Y-89378181D01*
X132925562Y-89378181D01*
G37*
G36*
X135900562Y-89378181D02*
G01*
X135935481Y-89388774D01*
X135967663Y-89405976D01*
X135995873Y-89429127D01*
X136019024Y-89457337D01*
X136036226Y-89489519D01*
X136046819Y-89524438D01*
X136051000Y-89566895D01*
X136051000Y-91033105D01*
X136046819Y-91075562D01*
X136036226Y-91110481D01*
X136019024Y-91142663D01*
X135995873Y-91170873D01*
X135967663Y-91194024D01*
X135935481Y-91211226D01*
X135900562Y-91221819D01*
X135858105Y-91226000D01*
X134716895Y-91226000D01*
X134674438Y-91221819D01*
X134639519Y-91211226D01*
X134607337Y-91194024D01*
X134579127Y-91170873D01*
X134555976Y-91142663D01*
X134538774Y-91110481D01*
X134528181Y-91075562D01*
X134524000Y-91033105D01*
X134524000Y-89566895D01*
X134528181Y-89524438D01*
X134538774Y-89489519D01*
X134555976Y-89457337D01*
X134579127Y-89429127D01*
X134607337Y-89405976D01*
X134639519Y-89388774D01*
X134674438Y-89378181D01*
X134716895Y-89374000D01*
X135858105Y-89374000D01*
X135900562Y-89378181D01*
X135900562Y-89378181D01*
G37*
G36*
X120026000Y-89781000D02*
G01*
X119274000Y-89781000D01*
X119274000Y-88619000D01*
X120026000Y-88619000D01*
X120026000Y-89781000D01*
X120026000Y-89781000D01*
G37*
G36*
X118126000Y-89781000D02*
G01*
X117374000Y-89781000D01*
X117374000Y-88619000D01*
X118126000Y-88619000D01*
X118126000Y-89781000D01*
X118126000Y-89781000D01*
G37*
G36*
X113738674Y-88153465D02*
G01*
X113776367Y-88164899D01*
X113811103Y-88183466D01*
X113841548Y-88208452D01*
X113866534Y-88238897D01*
X113885101Y-88273633D01*
X113896535Y-88311326D01*
X113901000Y-88356661D01*
X113901000Y-89443339D01*
X113896535Y-89488674D01*
X113885101Y-89526367D01*
X113866534Y-89561103D01*
X113841548Y-89591548D01*
X113811103Y-89616534D01*
X113776367Y-89635101D01*
X113738674Y-89646535D01*
X113693339Y-89651000D01*
X112856661Y-89651000D01*
X112811326Y-89646535D01*
X112773633Y-89635101D01*
X112738897Y-89616534D01*
X112708452Y-89591548D01*
X112683466Y-89561103D01*
X112664899Y-89526367D01*
X112653465Y-89488674D01*
X112649000Y-89443339D01*
X112649000Y-88356661D01*
X112653465Y-88311326D01*
X112664899Y-88273633D01*
X112683466Y-88238897D01*
X112708452Y-88208452D01*
X112738897Y-88183466D01*
X112773633Y-88164899D01*
X112811326Y-88153465D01*
X112856661Y-88149000D01*
X113693339Y-88149000D01*
X113738674Y-88153465D01*
X113738674Y-88153465D01*
G37*
G36*
X115788674Y-88153465D02*
G01*
X115826367Y-88164899D01*
X115861103Y-88183466D01*
X115891548Y-88208452D01*
X115916534Y-88238897D01*
X115935101Y-88273633D01*
X115946535Y-88311326D01*
X115951000Y-88356661D01*
X115951000Y-89443339D01*
X115946535Y-89488674D01*
X115935101Y-89526367D01*
X115916534Y-89561103D01*
X115891548Y-89591548D01*
X115861103Y-89616534D01*
X115826367Y-89635101D01*
X115788674Y-89646535D01*
X115743339Y-89651000D01*
X114906661Y-89651000D01*
X114861326Y-89646535D01*
X114823633Y-89635101D01*
X114788897Y-89616534D01*
X114758452Y-89591548D01*
X114733466Y-89561103D01*
X114714899Y-89526367D01*
X114703465Y-89488674D01*
X114699000Y-89443339D01*
X114699000Y-88356661D01*
X114703465Y-88311326D01*
X114714899Y-88273633D01*
X114733466Y-88238897D01*
X114758452Y-88208452D01*
X114788897Y-88183466D01*
X114823633Y-88164899D01*
X114861326Y-88153465D01*
X114906661Y-88149000D01*
X115743339Y-88149000D01*
X115788674Y-88153465D01*
X115788674Y-88153465D01*
G37*
G36*
X136025562Y-86978181D02*
G01*
X136060481Y-86988774D01*
X136092663Y-87005976D01*
X136120873Y-87029127D01*
X136144024Y-87057337D01*
X136161226Y-87089519D01*
X136171819Y-87124438D01*
X136176000Y-87166895D01*
X136176000Y-88633105D01*
X136171819Y-88675562D01*
X136161226Y-88710481D01*
X136144024Y-88742663D01*
X136120873Y-88770873D01*
X136092663Y-88794024D01*
X136060481Y-88811226D01*
X136025562Y-88821819D01*
X135983105Y-88826000D01*
X134841895Y-88826000D01*
X134799438Y-88821819D01*
X134764519Y-88811226D01*
X134732337Y-88794024D01*
X134704127Y-88770873D01*
X134680976Y-88742663D01*
X134663774Y-88710481D01*
X134653181Y-88675562D01*
X134649000Y-88633105D01*
X134649000Y-87166895D01*
X134653181Y-87124438D01*
X134663774Y-87089519D01*
X134680976Y-87057337D01*
X134704127Y-87029127D01*
X134732337Y-87005976D01*
X134764519Y-86988774D01*
X134799438Y-86978181D01*
X134841895Y-86974000D01*
X135983105Y-86974000D01*
X136025562Y-86978181D01*
X136025562Y-86978181D01*
G37*
G36*
X139000562Y-86978181D02*
G01*
X139035481Y-86988774D01*
X139067663Y-87005976D01*
X139095873Y-87029127D01*
X139119024Y-87057337D01*
X139136226Y-87089519D01*
X139146819Y-87124438D01*
X139151000Y-87166895D01*
X139151000Y-88633105D01*
X139146819Y-88675562D01*
X139136226Y-88710481D01*
X139119024Y-88742663D01*
X139095873Y-88770873D01*
X139067663Y-88794024D01*
X139035481Y-88811226D01*
X139000562Y-88821819D01*
X138958105Y-88826000D01*
X137816895Y-88826000D01*
X137774438Y-88821819D01*
X137739519Y-88811226D01*
X137707337Y-88794024D01*
X137679127Y-88770873D01*
X137655976Y-88742663D01*
X137638774Y-88710481D01*
X137628181Y-88675562D01*
X137624000Y-88633105D01*
X137624000Y-87166895D01*
X137628181Y-87124438D01*
X137638774Y-87089519D01*
X137655976Y-87057337D01*
X137679127Y-87029127D01*
X137707337Y-87005976D01*
X137739519Y-86988774D01*
X137774438Y-86978181D01*
X137816895Y-86974000D01*
X138958105Y-86974000D01*
X139000562Y-86978181D01*
X139000562Y-86978181D01*
G37*
G36*
X120868604Y-86728347D02*
G01*
X120905144Y-86739432D01*
X120938821Y-86757433D01*
X120968341Y-86781659D01*
X120992567Y-86811179D01*
X121010568Y-86844856D01*
X121021653Y-86881396D01*
X121026000Y-86925538D01*
X121026000Y-87874462D01*
X121021653Y-87918604D01*
X121010568Y-87955144D01*
X120992567Y-87988821D01*
X120968341Y-88018341D01*
X120938821Y-88042567D01*
X120905144Y-88060568D01*
X120868604Y-88071653D01*
X120824462Y-88076000D01*
X119375538Y-88076000D01*
X119331396Y-88071653D01*
X119294856Y-88060568D01*
X119261179Y-88042567D01*
X119231659Y-88018341D01*
X119207433Y-87988821D01*
X119189432Y-87955144D01*
X119178347Y-87918604D01*
X119174000Y-87874462D01*
X119174000Y-86925538D01*
X119178347Y-86881396D01*
X119189432Y-86844856D01*
X119207433Y-86811179D01*
X119231659Y-86781659D01*
X119261179Y-86757433D01*
X119294856Y-86739432D01*
X119331396Y-86728347D01*
X119375538Y-86724000D01*
X120824462Y-86724000D01*
X120868604Y-86728347D01*
X120868604Y-86728347D01*
G37*
G36*
X118488674Y-86803465D02*
G01*
X118526367Y-86814899D01*
X118561103Y-86833466D01*
X118591548Y-86858452D01*
X118616534Y-86888897D01*
X118635101Y-86923633D01*
X118646535Y-86961326D01*
X118651000Y-87006661D01*
X118651000Y-87843339D01*
X118646535Y-87888674D01*
X118635101Y-87926367D01*
X118616534Y-87961103D01*
X118591548Y-87991548D01*
X118561103Y-88016534D01*
X118526367Y-88035101D01*
X118488674Y-88046535D01*
X118443339Y-88051000D01*
X117356661Y-88051000D01*
X117311326Y-88046535D01*
X117273633Y-88035101D01*
X117238897Y-88016534D01*
X117208452Y-87991548D01*
X117183466Y-87961103D01*
X117164899Y-87926367D01*
X117153465Y-87888674D01*
X117149000Y-87843339D01*
X117149000Y-87006661D01*
X117153465Y-86961326D01*
X117164899Y-86923633D01*
X117183466Y-86888897D01*
X117208452Y-86858452D01*
X117238897Y-86833466D01*
X117273633Y-86814899D01*
X117311326Y-86803465D01*
X117356661Y-86799000D01*
X118443339Y-86799000D01*
X118488674Y-86803465D01*
X118488674Y-86803465D01*
G37*
G36*
X118488674Y-84753465D02*
G01*
X118526367Y-84764899D01*
X118561103Y-84783466D01*
X118591548Y-84808452D01*
X118616534Y-84838897D01*
X118635101Y-84873633D01*
X118646535Y-84911326D01*
X118651000Y-84956661D01*
X118651000Y-85793339D01*
X118646535Y-85838674D01*
X118635101Y-85876367D01*
X118616534Y-85911103D01*
X118591548Y-85941548D01*
X118561103Y-85966534D01*
X118526367Y-85985101D01*
X118488674Y-85996535D01*
X118443339Y-86001000D01*
X117356661Y-86001000D01*
X117311326Y-85996535D01*
X117273633Y-85985101D01*
X117238897Y-85966534D01*
X117208452Y-85941548D01*
X117183466Y-85911103D01*
X117164899Y-85876367D01*
X117153465Y-85838674D01*
X117149000Y-85793339D01*
X117149000Y-84956661D01*
X117153465Y-84911326D01*
X117164899Y-84873633D01*
X117183466Y-84838897D01*
X117208452Y-84808452D01*
X117238897Y-84783466D01*
X117273633Y-84764899D01*
X117311326Y-84753465D01*
X117356661Y-84749000D01*
X118443339Y-84749000D01*
X118488674Y-84753465D01*
X118488674Y-84753465D01*
G37*
G36*
X115988674Y-84453465D02*
G01*
X116026367Y-84464899D01*
X116061103Y-84483466D01*
X116091548Y-84508452D01*
X116116534Y-84538897D01*
X116135101Y-84573633D01*
X116146535Y-84611326D01*
X116151000Y-84656661D01*
X116151000Y-85743339D01*
X116146535Y-85788674D01*
X116135101Y-85826367D01*
X116116534Y-85861103D01*
X116091548Y-85891548D01*
X116061103Y-85916534D01*
X116026367Y-85935101D01*
X115988674Y-85946535D01*
X115943339Y-85951000D01*
X115106661Y-85951000D01*
X115061326Y-85946535D01*
X115023633Y-85935101D01*
X114988897Y-85916534D01*
X114958452Y-85891548D01*
X114933466Y-85861103D01*
X114914899Y-85826367D01*
X114903465Y-85788674D01*
X114899000Y-85743339D01*
X114899000Y-84656661D01*
X114903465Y-84611326D01*
X114914899Y-84573633D01*
X114933466Y-84538897D01*
X114958452Y-84508452D01*
X114988897Y-84483466D01*
X115023633Y-84464899D01*
X115061326Y-84453465D01*
X115106661Y-84449000D01*
X115943339Y-84449000D01*
X115988674Y-84453465D01*
X115988674Y-84453465D01*
G37*
G36*
X113938674Y-84453465D02*
G01*
X113976367Y-84464899D01*
X114011103Y-84483466D01*
X114041548Y-84508452D01*
X114066534Y-84538897D01*
X114085101Y-84573633D01*
X114096535Y-84611326D01*
X114101000Y-84656661D01*
X114101000Y-85743339D01*
X114096535Y-85788674D01*
X114085101Y-85826367D01*
X114066534Y-85861103D01*
X114041548Y-85891548D01*
X114011103Y-85916534D01*
X113976367Y-85935101D01*
X113938674Y-85946535D01*
X113893339Y-85951000D01*
X113056661Y-85951000D01*
X113011326Y-85946535D01*
X112973633Y-85935101D01*
X112938897Y-85916534D01*
X112908452Y-85891548D01*
X112883466Y-85861103D01*
X112864899Y-85826367D01*
X112853465Y-85788674D01*
X112849000Y-85743339D01*
X112849000Y-84656661D01*
X112853465Y-84611326D01*
X112864899Y-84573633D01*
X112883466Y-84538897D01*
X112908452Y-84508452D01*
X112938897Y-84483466D01*
X112973633Y-84464899D01*
X113011326Y-84453465D01*
X113056661Y-84449000D01*
X113893339Y-84449000D01*
X113938674Y-84453465D01*
X113938674Y-84453465D01*
G37*
G36*
X132448228Y-83681703D02*
G01*
X132603100Y-83745853D01*
X132742481Y-83838985D01*
X132861015Y-83957519D01*
X132954147Y-84096900D01*
X133018297Y-84251772D01*
X133051000Y-84416184D01*
X133051000Y-84583816D01*
X133018297Y-84748228D01*
X132954147Y-84903100D01*
X132861015Y-85042481D01*
X132742481Y-85161015D01*
X132603100Y-85254147D01*
X132448228Y-85318297D01*
X132283816Y-85351000D01*
X132116184Y-85351000D01*
X131951772Y-85318297D01*
X131796900Y-85254147D01*
X131657519Y-85161015D01*
X131538985Y-85042481D01*
X131445853Y-84903100D01*
X131381703Y-84748228D01*
X131349000Y-84583816D01*
X131349000Y-84416184D01*
X131381703Y-84251772D01*
X131445853Y-84096900D01*
X131538985Y-83957519D01*
X131657519Y-83838985D01*
X131796900Y-83745853D01*
X131951772Y-83681703D01*
X132116184Y-83649000D01*
X132283816Y-83649000D01*
X132448228Y-83681703D01*
X132448228Y-83681703D01*
G37*
G36*
X127448228Y-83681703D02*
G01*
X127603100Y-83745853D01*
X127742481Y-83838985D01*
X127861015Y-83957519D01*
X127954147Y-84096900D01*
X128018297Y-84251772D01*
X128051000Y-84416184D01*
X128051000Y-84583816D01*
X128018297Y-84748228D01*
X127954147Y-84903100D01*
X127861015Y-85042481D01*
X127742481Y-85161015D01*
X127603100Y-85254147D01*
X127448228Y-85318297D01*
X127283816Y-85351000D01*
X127116184Y-85351000D01*
X126951772Y-85318297D01*
X126796900Y-85254147D01*
X126657519Y-85161015D01*
X126538985Y-85042481D01*
X126445853Y-84903100D01*
X126381703Y-84748228D01*
X126349000Y-84583816D01*
X126349000Y-84416184D01*
X126381703Y-84251772D01*
X126445853Y-84096900D01*
X126538985Y-83957519D01*
X126657519Y-83838985D01*
X126796900Y-83745853D01*
X126951772Y-83681703D01*
X127116184Y-83649000D01*
X127283816Y-83649000D01*
X127448228Y-83681703D01*
X127448228Y-83681703D01*
G37*
G36*
X120868604Y-83928347D02*
G01*
X120905144Y-83939432D01*
X120938821Y-83957433D01*
X120968341Y-83981659D01*
X120992567Y-84011179D01*
X121010568Y-84044856D01*
X121021653Y-84081396D01*
X121026000Y-84125538D01*
X121026000Y-85074462D01*
X121021653Y-85118604D01*
X121010568Y-85155144D01*
X120992567Y-85188821D01*
X120968341Y-85218341D01*
X120938821Y-85242567D01*
X120905144Y-85260568D01*
X120868604Y-85271653D01*
X120824462Y-85276000D01*
X119375538Y-85276000D01*
X119331396Y-85271653D01*
X119294856Y-85260568D01*
X119261179Y-85242567D01*
X119231659Y-85218341D01*
X119207433Y-85188821D01*
X119189432Y-85155144D01*
X119178347Y-85118604D01*
X119174000Y-85074462D01*
X119174000Y-84125538D01*
X119178347Y-84081396D01*
X119189432Y-84044856D01*
X119207433Y-84011179D01*
X119231659Y-83981659D01*
X119261179Y-83957433D01*
X119294856Y-83939432D01*
X119331396Y-83928347D01*
X119375538Y-83924000D01*
X120824462Y-83924000D01*
X120868604Y-83928347D01*
X120868604Y-83928347D01*
G37*
G36*
X113938674Y-82453465D02*
G01*
X113976367Y-82464899D01*
X114011103Y-82483466D01*
X114041548Y-82508452D01*
X114066534Y-82538897D01*
X114085101Y-82573633D01*
X114096535Y-82611326D01*
X114101000Y-82656661D01*
X114101000Y-83743339D01*
X114096535Y-83788674D01*
X114085101Y-83826367D01*
X114066534Y-83861103D01*
X114041548Y-83891548D01*
X114011103Y-83916534D01*
X113976367Y-83935101D01*
X113938674Y-83946535D01*
X113893339Y-83951000D01*
X113056661Y-83951000D01*
X113011326Y-83946535D01*
X112973633Y-83935101D01*
X112938897Y-83916534D01*
X112908452Y-83891548D01*
X112883466Y-83861103D01*
X112864899Y-83826367D01*
X112853465Y-83788674D01*
X112849000Y-83743339D01*
X112849000Y-82656661D01*
X112853465Y-82611326D01*
X112864899Y-82573633D01*
X112883466Y-82538897D01*
X112908452Y-82508452D01*
X112938897Y-82483466D01*
X112973633Y-82464899D01*
X113011326Y-82453465D01*
X113056661Y-82449000D01*
X113893339Y-82449000D01*
X113938674Y-82453465D01*
X113938674Y-82453465D01*
G37*
G36*
X115988674Y-82453465D02*
G01*
X116026367Y-82464899D01*
X116061103Y-82483466D01*
X116091548Y-82508452D01*
X116116534Y-82538897D01*
X116135101Y-82573633D01*
X116146535Y-82611326D01*
X116151000Y-82656661D01*
X116151000Y-83743339D01*
X116146535Y-83788674D01*
X116135101Y-83826367D01*
X116116534Y-83861103D01*
X116091548Y-83891548D01*
X116061103Y-83916534D01*
X116026367Y-83935101D01*
X115988674Y-83946535D01*
X115943339Y-83951000D01*
X115106661Y-83951000D01*
X115061326Y-83946535D01*
X115023633Y-83935101D01*
X114988897Y-83916534D01*
X114958452Y-83891548D01*
X114933466Y-83861103D01*
X114914899Y-83826367D01*
X114903465Y-83788674D01*
X114899000Y-83743339D01*
X114899000Y-82656661D01*
X114903465Y-82611326D01*
X114914899Y-82573633D01*
X114933466Y-82538897D01*
X114958452Y-82508452D01*
X114988897Y-82483466D01*
X115023633Y-82464899D01*
X115061326Y-82453465D01*
X115106661Y-82449000D01*
X115943339Y-82449000D01*
X115988674Y-82453465D01*
X115988674Y-82453465D01*
G37*
G36*
X96476000Y-83451000D02*
G01*
X95774000Y-83451000D01*
X95774000Y-81849000D01*
X96476000Y-81849000D01*
X96476000Y-83451000D01*
X96476000Y-83451000D01*
G37*
G36*
X97746000Y-83451000D02*
G01*
X97044000Y-83451000D01*
X97044000Y-81849000D01*
X97746000Y-81849000D01*
X97746000Y-83451000D01*
X97746000Y-83451000D01*
G37*
G36*
X99016000Y-83451000D02*
G01*
X98314000Y-83451000D01*
X98314000Y-81849000D01*
X99016000Y-81849000D01*
X99016000Y-83451000D01*
X99016000Y-83451000D01*
G37*
G36*
X100286000Y-83451000D02*
G01*
X99584000Y-83451000D01*
X99584000Y-81849000D01*
X100286000Y-81849000D01*
X100286000Y-83451000D01*
X100286000Y-83451000D01*
G37*
G36*
X102826000Y-83451000D02*
G01*
X102124000Y-83451000D01*
X102124000Y-81849000D01*
X102826000Y-81849000D01*
X102826000Y-83451000D01*
X102826000Y-83451000D01*
G37*
G36*
X104096000Y-83451000D02*
G01*
X103394000Y-83451000D01*
X103394000Y-81849000D01*
X104096000Y-81849000D01*
X104096000Y-83451000D01*
X104096000Y-83451000D01*
G37*
G36*
X95206000Y-83451000D02*
G01*
X94504000Y-83451000D01*
X94504000Y-81849000D01*
X95206000Y-81849000D01*
X95206000Y-83451000D01*
X95206000Y-83451000D01*
G37*
G36*
X101556000Y-83451000D02*
G01*
X100854000Y-83451000D01*
X100854000Y-81849000D01*
X101556000Y-81849000D01*
X101556000Y-83451000D01*
X101556000Y-83451000D01*
G37*
G36*
X104338674Y-77353465D02*
G01*
X104376367Y-77364899D01*
X104411103Y-77383466D01*
X104441548Y-77408452D01*
X104466534Y-77438897D01*
X104485101Y-77473633D01*
X104496535Y-77511326D01*
X104501000Y-77556661D01*
X104501000Y-78643339D01*
X104496535Y-78688674D01*
X104485101Y-78726367D01*
X104466534Y-78761103D01*
X104441548Y-78791548D01*
X104411103Y-78816534D01*
X104376367Y-78835101D01*
X104338674Y-78846535D01*
X104293339Y-78851000D01*
X103456661Y-78851000D01*
X103411326Y-78846535D01*
X103373633Y-78835101D01*
X103338897Y-78816534D01*
X103308452Y-78791548D01*
X103283466Y-78761103D01*
X103264899Y-78726367D01*
X103253465Y-78688674D01*
X103249000Y-78643339D01*
X103249000Y-77556661D01*
X103253465Y-77511326D01*
X103264899Y-77473633D01*
X103283466Y-77438897D01*
X103308452Y-77408452D01*
X103338897Y-77383466D01*
X103373633Y-77364899D01*
X103411326Y-77353465D01*
X103456661Y-77349000D01*
X104293339Y-77349000D01*
X104338674Y-77353465D01*
X104338674Y-77353465D01*
G37*
G36*
X106388674Y-77353465D02*
G01*
X106426367Y-77364899D01*
X106461103Y-77383466D01*
X106491548Y-77408452D01*
X106516534Y-77438897D01*
X106535101Y-77473633D01*
X106546535Y-77511326D01*
X106551000Y-77556661D01*
X106551000Y-78643339D01*
X106546535Y-78688674D01*
X106535101Y-78726367D01*
X106516534Y-78761103D01*
X106491548Y-78791548D01*
X106461103Y-78816534D01*
X106426367Y-78835101D01*
X106388674Y-78846535D01*
X106343339Y-78851000D01*
X105506661Y-78851000D01*
X105461326Y-78846535D01*
X105423633Y-78835101D01*
X105388897Y-78816534D01*
X105358452Y-78791548D01*
X105333466Y-78761103D01*
X105314899Y-78726367D01*
X105303465Y-78688674D01*
X105299000Y-78643339D01*
X105299000Y-77556661D01*
X105303465Y-77511326D01*
X105314899Y-77473633D01*
X105333466Y-77438897D01*
X105358452Y-77408452D01*
X105388897Y-77383466D01*
X105423633Y-77364899D01*
X105461326Y-77353465D01*
X105506661Y-77349000D01*
X106343339Y-77349000D01*
X106388674Y-77353465D01*
X106388674Y-77353465D01*
G37*
G36*
X122164499Y-77078445D02*
G01*
X122201995Y-77089820D01*
X122236554Y-77108292D01*
X122266847Y-77133153D01*
X122291708Y-77163446D01*
X122310180Y-77198005D01*
X122321555Y-77235501D01*
X122326000Y-77280638D01*
X122326000Y-77919362D01*
X122321555Y-77964499D01*
X122310180Y-78001995D01*
X122291708Y-78036554D01*
X122266847Y-78066847D01*
X122236554Y-78091708D01*
X122201995Y-78110180D01*
X122164499Y-78121555D01*
X122119362Y-78126000D01*
X121380638Y-78126000D01*
X121335501Y-78121555D01*
X121298005Y-78110180D01*
X121263446Y-78091708D01*
X121233153Y-78066847D01*
X121208292Y-78036554D01*
X121189820Y-78001995D01*
X121178445Y-77964499D01*
X121174000Y-77919362D01*
X121174000Y-77280638D01*
X121178445Y-77235501D01*
X121189820Y-77198005D01*
X121208292Y-77163446D01*
X121233153Y-77133153D01*
X121263446Y-77108292D01*
X121298005Y-77089820D01*
X121335501Y-77078445D01*
X121380638Y-77074000D01*
X122119362Y-77074000D01*
X122164499Y-77078445D01*
X122164499Y-77078445D01*
G37*
G36*
X123914499Y-77078445D02*
G01*
X123951995Y-77089820D01*
X123986554Y-77108292D01*
X124016847Y-77133153D01*
X124041708Y-77163446D01*
X124060180Y-77198005D01*
X124071555Y-77235501D01*
X124076000Y-77280638D01*
X124076000Y-77919362D01*
X124071555Y-77964499D01*
X124060180Y-78001995D01*
X124041708Y-78036554D01*
X124016847Y-78066847D01*
X123986554Y-78091708D01*
X123951995Y-78110180D01*
X123914499Y-78121555D01*
X123869362Y-78126000D01*
X123130638Y-78126000D01*
X123085501Y-78121555D01*
X123048005Y-78110180D01*
X123013446Y-78091708D01*
X122983153Y-78066847D01*
X122958292Y-78036554D01*
X122939820Y-78001995D01*
X122928445Y-77964499D01*
X122924000Y-77919362D01*
X122924000Y-77280638D01*
X122928445Y-77235501D01*
X122939820Y-77198005D01*
X122958292Y-77163446D01*
X122983153Y-77133153D01*
X123013446Y-77108292D01*
X123048005Y-77089820D01*
X123085501Y-77078445D01*
X123130638Y-77074000D01*
X123869362Y-77074000D01*
X123914499Y-77078445D01*
X123914499Y-77078445D01*
G37*
G36*
X104338674Y-75353465D02*
G01*
X104376367Y-75364899D01*
X104411103Y-75383466D01*
X104441548Y-75408452D01*
X104466534Y-75438897D01*
X104485101Y-75473633D01*
X104496535Y-75511326D01*
X104501000Y-75556661D01*
X104501000Y-76643339D01*
X104496535Y-76688674D01*
X104485101Y-76726367D01*
X104466534Y-76761103D01*
X104441548Y-76791548D01*
X104411103Y-76816534D01*
X104376367Y-76835101D01*
X104338674Y-76846535D01*
X104293339Y-76851000D01*
X103456661Y-76851000D01*
X103411326Y-76846535D01*
X103373633Y-76835101D01*
X103338897Y-76816534D01*
X103308452Y-76791548D01*
X103283466Y-76761103D01*
X103264899Y-76726367D01*
X103253465Y-76688674D01*
X103249000Y-76643339D01*
X103249000Y-75556661D01*
X103253465Y-75511326D01*
X103264899Y-75473633D01*
X103283466Y-75438897D01*
X103308452Y-75408452D01*
X103338897Y-75383466D01*
X103373633Y-75364899D01*
X103411326Y-75353465D01*
X103456661Y-75349000D01*
X104293339Y-75349000D01*
X104338674Y-75353465D01*
X104338674Y-75353465D01*
G37*
G36*
X106388674Y-75353465D02*
G01*
X106426367Y-75364899D01*
X106461103Y-75383466D01*
X106491548Y-75408452D01*
X106516534Y-75438897D01*
X106535101Y-75473633D01*
X106546535Y-75511326D01*
X106551000Y-75556661D01*
X106551000Y-76643339D01*
X106546535Y-76688674D01*
X106535101Y-76726367D01*
X106516534Y-76761103D01*
X106491548Y-76791548D01*
X106461103Y-76816534D01*
X106426367Y-76835101D01*
X106388674Y-76846535D01*
X106343339Y-76851000D01*
X105506661Y-76851000D01*
X105461326Y-76846535D01*
X105423633Y-76835101D01*
X105388897Y-76816534D01*
X105358452Y-76791548D01*
X105333466Y-76761103D01*
X105314899Y-76726367D01*
X105303465Y-76688674D01*
X105299000Y-76643339D01*
X105299000Y-75556661D01*
X105303465Y-75511326D01*
X105314899Y-75473633D01*
X105333466Y-75438897D01*
X105358452Y-75408452D01*
X105388897Y-75383466D01*
X105423633Y-75364899D01*
X105461326Y-75353465D01*
X105506661Y-75349000D01*
X106343339Y-75349000D01*
X106388674Y-75353465D01*
X106388674Y-75353465D01*
G37*
G36*
X124288674Y-75053465D02*
G01*
X124326367Y-75064899D01*
X124361103Y-75083466D01*
X124391548Y-75108452D01*
X124416534Y-75138897D01*
X124435101Y-75173633D01*
X124446535Y-75211326D01*
X124451000Y-75256661D01*
X124451000Y-76343339D01*
X124446535Y-76388674D01*
X124435101Y-76426367D01*
X124416534Y-76461103D01*
X124391548Y-76491548D01*
X124361103Y-76516534D01*
X124326367Y-76535101D01*
X124288674Y-76546535D01*
X124243339Y-76551000D01*
X123406661Y-76551000D01*
X123361326Y-76546535D01*
X123323633Y-76535101D01*
X123288897Y-76516534D01*
X123258452Y-76491548D01*
X123233466Y-76461103D01*
X123214899Y-76426367D01*
X123203465Y-76388674D01*
X123199000Y-76343339D01*
X123199000Y-75256661D01*
X123203465Y-75211326D01*
X123214899Y-75173633D01*
X123233466Y-75138897D01*
X123258452Y-75108452D01*
X123288897Y-75083466D01*
X123323633Y-75064899D01*
X123361326Y-75053465D01*
X123406661Y-75049000D01*
X124243339Y-75049000D01*
X124288674Y-75053465D01*
X124288674Y-75053465D01*
G37*
G36*
X122238674Y-75053465D02*
G01*
X122276367Y-75064899D01*
X122311103Y-75083466D01*
X122341548Y-75108452D01*
X122366534Y-75138897D01*
X122385101Y-75173633D01*
X122396535Y-75211326D01*
X122401000Y-75256661D01*
X122401000Y-76343339D01*
X122396535Y-76388674D01*
X122385101Y-76426367D01*
X122366534Y-76461103D01*
X122341548Y-76491548D01*
X122311103Y-76516534D01*
X122276367Y-76535101D01*
X122238674Y-76546535D01*
X122193339Y-76551000D01*
X121356661Y-76551000D01*
X121311326Y-76546535D01*
X121273633Y-76535101D01*
X121238897Y-76516534D01*
X121208452Y-76491548D01*
X121183466Y-76461103D01*
X121164899Y-76426367D01*
X121153465Y-76388674D01*
X121149000Y-76343339D01*
X121149000Y-75256661D01*
X121153465Y-75211326D01*
X121164899Y-75173633D01*
X121183466Y-75138897D01*
X121208452Y-75108452D01*
X121238897Y-75083466D01*
X121273633Y-75064899D01*
X121311326Y-75053465D01*
X121356661Y-75049000D01*
X122193339Y-75049000D01*
X122238674Y-75053465D01*
X122238674Y-75053465D01*
G37*
G36*
X96579294Y-74078633D02*
G01*
X96751695Y-74130931D01*
X96910583Y-74215858D01*
X97049849Y-74330151D01*
X97164142Y-74469417D01*
X97249069Y-74628305D01*
X97301367Y-74800706D01*
X97319025Y-74980000D01*
X97301367Y-75159294D01*
X97249069Y-75331695D01*
X97164142Y-75490583D01*
X97049849Y-75629849D01*
X96910583Y-75744142D01*
X96751695Y-75829069D01*
X96579294Y-75881367D01*
X96444931Y-75894600D01*
X96355069Y-75894600D01*
X96220706Y-75881367D01*
X96048305Y-75829069D01*
X95889417Y-75744142D01*
X95750151Y-75629849D01*
X95635858Y-75490583D01*
X95550931Y-75331695D01*
X95498633Y-75159294D01*
X95480975Y-74980000D01*
X95498633Y-74800706D01*
X95550931Y-74628305D01*
X95635858Y-74469417D01*
X95750151Y-74330151D01*
X95889417Y-74215858D01*
X96048305Y-74130931D01*
X96220706Y-74078633D01*
X96355069Y-74065400D01*
X96444931Y-74065400D01*
X96579294Y-74078633D01*
X96579294Y-74078633D01*
G37*
G36*
X99119294Y-74078633D02*
G01*
X99291695Y-74130931D01*
X99450583Y-74215858D01*
X99589849Y-74330151D01*
X99704142Y-74469417D01*
X99789069Y-74628305D01*
X99841367Y-74800706D01*
X99859025Y-74980000D01*
X99841367Y-75159294D01*
X99789069Y-75331695D01*
X99704142Y-75490583D01*
X99589849Y-75629849D01*
X99450583Y-75744142D01*
X99291695Y-75829069D01*
X99119294Y-75881367D01*
X98984931Y-75894600D01*
X98895069Y-75894600D01*
X98760706Y-75881367D01*
X98588305Y-75829069D01*
X98429417Y-75744142D01*
X98290151Y-75629849D01*
X98175858Y-75490583D01*
X98090931Y-75331695D01*
X98038633Y-75159294D01*
X98020975Y-74980000D01*
X98038633Y-74800706D01*
X98090931Y-74628305D01*
X98175858Y-74469417D01*
X98290151Y-74330151D01*
X98429417Y-74215858D01*
X98588305Y-74130931D01*
X98760706Y-74078633D01*
X98895069Y-74065400D01*
X98984931Y-74065400D01*
X99119294Y-74078633D01*
X99119294Y-74078633D01*
G37*
G36*
X134979294Y-74078633D02*
G01*
X135151695Y-74130931D01*
X135310583Y-74215858D01*
X135449849Y-74330151D01*
X135564142Y-74469417D01*
X135649069Y-74628305D01*
X135701367Y-74800706D01*
X135719025Y-74980000D01*
X135701367Y-75159294D01*
X135649069Y-75331695D01*
X135564142Y-75490583D01*
X135449849Y-75629849D01*
X135310583Y-75744142D01*
X135151695Y-75829069D01*
X134979294Y-75881367D01*
X134844931Y-75894600D01*
X134755069Y-75894600D01*
X134620706Y-75881367D01*
X134448305Y-75829069D01*
X134289417Y-75744142D01*
X134150151Y-75629849D01*
X134035858Y-75490583D01*
X133950931Y-75331695D01*
X133898633Y-75159294D01*
X133880975Y-74980000D01*
X133898633Y-74800706D01*
X133950931Y-74628305D01*
X134035858Y-74469417D01*
X134150151Y-74330151D01*
X134289417Y-74215858D01*
X134448305Y-74130931D01*
X134620706Y-74078633D01*
X134755069Y-74065400D01*
X134844931Y-74065400D01*
X134979294Y-74078633D01*
X134979294Y-74078633D01*
G37*
G36*
X137519294Y-74078633D02*
G01*
X137691695Y-74130931D01*
X137850583Y-74215858D01*
X137989849Y-74330151D01*
X138104142Y-74469417D01*
X138189069Y-74628305D01*
X138241367Y-74800706D01*
X138259025Y-74980000D01*
X138241367Y-75159294D01*
X138189069Y-75331695D01*
X138104142Y-75490583D01*
X137989849Y-75629849D01*
X137850583Y-75744142D01*
X137691695Y-75829069D01*
X137519294Y-75881367D01*
X137384931Y-75894600D01*
X137295069Y-75894600D01*
X137160706Y-75881367D01*
X136988305Y-75829069D01*
X136829417Y-75744142D01*
X136690151Y-75629849D01*
X136575858Y-75490583D01*
X136490931Y-75331695D01*
X136438633Y-75159294D01*
X136420975Y-74980000D01*
X136438633Y-74800706D01*
X136490931Y-74628305D01*
X136575858Y-74469417D01*
X136690151Y-74330151D01*
X136829417Y-74215858D01*
X136988305Y-74130931D01*
X137160706Y-74078633D01*
X137295069Y-74065400D01*
X137384931Y-74065400D01*
X137519294Y-74078633D01*
X137519294Y-74078633D01*
G37*
G36*
X106388674Y-73153465D02*
G01*
X106426367Y-73164899D01*
X106461103Y-73183466D01*
X106491548Y-73208452D01*
X106516534Y-73238897D01*
X106535101Y-73273633D01*
X106546535Y-73311326D01*
X106551000Y-73356661D01*
X106551000Y-74443339D01*
X106546535Y-74488674D01*
X106535101Y-74526367D01*
X106516534Y-74561103D01*
X106491548Y-74591548D01*
X106461103Y-74616534D01*
X106426367Y-74635101D01*
X106388674Y-74646535D01*
X106343339Y-74651000D01*
X105506661Y-74651000D01*
X105461326Y-74646535D01*
X105423633Y-74635101D01*
X105388897Y-74616534D01*
X105358452Y-74591548D01*
X105333466Y-74561103D01*
X105314899Y-74526367D01*
X105303465Y-74488674D01*
X105299000Y-74443339D01*
X105299000Y-73356661D01*
X105303465Y-73311326D01*
X105314899Y-73273633D01*
X105333466Y-73238897D01*
X105358452Y-73208452D01*
X105388897Y-73183466D01*
X105423633Y-73164899D01*
X105461326Y-73153465D01*
X105506661Y-73149000D01*
X106343339Y-73149000D01*
X106388674Y-73153465D01*
X106388674Y-73153465D01*
G37*
G36*
X108438674Y-73153465D02*
G01*
X108476367Y-73164899D01*
X108511103Y-73183466D01*
X108541548Y-73208452D01*
X108566534Y-73238897D01*
X108585101Y-73273633D01*
X108596535Y-73311326D01*
X108601000Y-73356661D01*
X108601000Y-74443339D01*
X108596535Y-74488674D01*
X108585101Y-74526367D01*
X108566534Y-74561103D01*
X108541548Y-74591548D01*
X108511103Y-74616534D01*
X108476367Y-74635101D01*
X108438674Y-74646535D01*
X108393339Y-74651000D01*
X107556661Y-74651000D01*
X107511326Y-74646535D01*
X107473633Y-74635101D01*
X107438897Y-74616534D01*
X107408452Y-74591548D01*
X107383466Y-74561103D01*
X107364899Y-74526367D01*
X107353465Y-74488674D01*
X107349000Y-74443339D01*
X107349000Y-73356661D01*
X107353465Y-73311326D01*
X107364899Y-73273633D01*
X107383466Y-73238897D01*
X107408452Y-73208452D01*
X107438897Y-73183466D01*
X107473633Y-73164899D01*
X107511326Y-73153465D01*
X107556661Y-73149000D01*
X108393339Y-73149000D01*
X108438674Y-73153465D01*
X108438674Y-73153465D01*
G37*
G36*
X96579294Y-71538633D02*
G01*
X96751695Y-71590931D01*
X96910583Y-71675858D01*
X97049849Y-71790151D01*
X97164142Y-71929417D01*
X97249069Y-72088305D01*
X97301367Y-72260706D01*
X97319025Y-72440000D01*
X97301367Y-72619294D01*
X97249069Y-72791695D01*
X97164142Y-72950583D01*
X97049849Y-73089849D01*
X96910583Y-73204142D01*
X96751695Y-73289069D01*
X96579294Y-73341367D01*
X96444931Y-73354600D01*
X96355069Y-73354600D01*
X96220706Y-73341367D01*
X96048305Y-73289069D01*
X95889417Y-73204142D01*
X95750151Y-73089849D01*
X95635858Y-72950583D01*
X95550931Y-72791695D01*
X95498633Y-72619294D01*
X95480975Y-72440000D01*
X95498633Y-72260706D01*
X95550931Y-72088305D01*
X95635858Y-71929417D01*
X95750151Y-71790151D01*
X95889417Y-71675858D01*
X96048305Y-71590931D01*
X96220706Y-71538633D01*
X96355069Y-71525400D01*
X96444931Y-71525400D01*
X96579294Y-71538633D01*
X96579294Y-71538633D01*
G37*
G36*
X137519294Y-71538633D02*
G01*
X137691695Y-71590931D01*
X137850583Y-71675858D01*
X137989849Y-71790151D01*
X138104142Y-71929417D01*
X138189069Y-72088305D01*
X138241367Y-72260706D01*
X138259025Y-72440000D01*
X138241367Y-72619294D01*
X138189069Y-72791695D01*
X138104142Y-72950583D01*
X137989849Y-73089849D01*
X137850583Y-73204142D01*
X137691695Y-73289069D01*
X137519294Y-73341367D01*
X137384931Y-73354600D01*
X137295069Y-73354600D01*
X137160706Y-73341367D01*
X136988305Y-73289069D01*
X136829417Y-73204142D01*
X136690151Y-73089849D01*
X136575858Y-72950583D01*
X136490931Y-72791695D01*
X136438633Y-72619294D01*
X136420975Y-72440000D01*
X136438633Y-72260706D01*
X136490931Y-72088305D01*
X136575858Y-71929417D01*
X136690151Y-71790151D01*
X136829417Y-71675858D01*
X136988305Y-71590931D01*
X137160706Y-71538633D01*
X137295069Y-71525400D01*
X137384931Y-71525400D01*
X137519294Y-71538633D01*
X137519294Y-71538633D01*
G37*
G36*
X134979294Y-71538633D02*
G01*
X135151695Y-71590931D01*
X135310583Y-71675858D01*
X135449849Y-71790151D01*
X135564142Y-71929417D01*
X135649069Y-72088305D01*
X135701367Y-72260706D01*
X135719025Y-72440000D01*
X135701367Y-72619294D01*
X135649069Y-72791695D01*
X135564142Y-72950583D01*
X135449849Y-73089849D01*
X135310583Y-73204142D01*
X135151695Y-73289069D01*
X134979294Y-73341367D01*
X134844931Y-73354600D01*
X134755069Y-73354600D01*
X134620706Y-73341367D01*
X134448305Y-73289069D01*
X134289417Y-73204142D01*
X134150151Y-73089849D01*
X134035858Y-72950583D01*
X133950931Y-72791695D01*
X133898633Y-72619294D01*
X133880975Y-72440000D01*
X133898633Y-72260706D01*
X133950931Y-72088305D01*
X134035858Y-71929417D01*
X134150151Y-71790151D01*
X134289417Y-71675858D01*
X134448305Y-71590931D01*
X134620706Y-71538633D01*
X134755069Y-71525400D01*
X134844931Y-71525400D01*
X134979294Y-71538633D01*
X134979294Y-71538633D01*
G37*
G36*
X99119294Y-71538633D02*
G01*
X99291695Y-71590931D01*
X99450583Y-71675858D01*
X99589849Y-71790151D01*
X99704142Y-71929417D01*
X99789069Y-72088305D01*
X99841367Y-72260706D01*
X99859025Y-72440000D01*
X99841367Y-72619294D01*
X99789069Y-72791695D01*
X99704142Y-72950583D01*
X99589849Y-73089849D01*
X99450583Y-73204142D01*
X99291695Y-73289069D01*
X99119294Y-73341367D01*
X98984931Y-73354600D01*
X98895069Y-73354600D01*
X98760706Y-73341367D01*
X98588305Y-73289069D01*
X98429417Y-73204142D01*
X98290151Y-73089849D01*
X98175858Y-72950583D01*
X98090931Y-72791695D01*
X98038633Y-72619294D01*
X98020975Y-72440000D01*
X98038633Y-72260706D01*
X98090931Y-72088305D01*
X98175858Y-71929417D01*
X98290151Y-71790151D01*
X98429417Y-71675858D01*
X98588305Y-71590931D01*
X98760706Y-71538633D01*
X98895069Y-71525400D01*
X98984931Y-71525400D01*
X99119294Y-71538633D01*
X99119294Y-71538633D01*
G37*
G36*
X132889499Y-71878445D02*
G01*
X132926995Y-71889820D01*
X132961554Y-71908292D01*
X132991847Y-71933153D01*
X133016708Y-71963446D01*
X133035180Y-71998005D01*
X133046555Y-72035501D01*
X133051000Y-72080638D01*
X133051000Y-72719362D01*
X133046555Y-72764499D01*
X133035180Y-72801995D01*
X133016708Y-72836554D01*
X132991847Y-72866847D01*
X132961554Y-72891708D01*
X132926995Y-72910180D01*
X132889499Y-72921555D01*
X132844362Y-72926000D01*
X132105638Y-72926000D01*
X132060501Y-72921555D01*
X132023005Y-72910180D01*
X131988446Y-72891708D01*
X131958153Y-72866847D01*
X131933292Y-72836554D01*
X131914820Y-72801995D01*
X131903445Y-72764499D01*
X131899000Y-72719362D01*
X131899000Y-72080638D01*
X131903445Y-72035501D01*
X131914820Y-71998005D01*
X131933292Y-71963446D01*
X131958153Y-71933153D01*
X131988446Y-71908292D01*
X132023005Y-71889820D01*
X132060501Y-71878445D01*
X132105638Y-71874000D01*
X132844362Y-71874000D01*
X132889499Y-71878445D01*
X132889499Y-71878445D01*
G37*
G36*
X131139499Y-71878445D02*
G01*
X131176995Y-71889820D01*
X131211554Y-71908292D01*
X131241847Y-71933153D01*
X131266708Y-71963446D01*
X131285180Y-71998005D01*
X131296555Y-72035501D01*
X131301000Y-72080638D01*
X131301000Y-72719362D01*
X131296555Y-72764499D01*
X131285180Y-72801995D01*
X131266708Y-72836554D01*
X131241847Y-72866847D01*
X131211554Y-72891708D01*
X131176995Y-72910180D01*
X131139499Y-72921555D01*
X131094362Y-72926000D01*
X130355638Y-72926000D01*
X130310501Y-72921555D01*
X130273005Y-72910180D01*
X130238446Y-72891708D01*
X130208153Y-72866847D01*
X130183292Y-72836554D01*
X130164820Y-72801995D01*
X130153445Y-72764499D01*
X130149000Y-72719362D01*
X130149000Y-72080638D01*
X130153445Y-72035501D01*
X130164820Y-71998005D01*
X130183292Y-71963446D01*
X130208153Y-71933153D01*
X130238446Y-71908292D01*
X130273005Y-71889820D01*
X130310501Y-71878445D01*
X130355638Y-71874000D01*
X131094362Y-71874000D01*
X131139499Y-71878445D01*
X131139499Y-71878445D01*
G37*
G36*
X114639499Y-71778445D02*
G01*
X114676995Y-71789820D01*
X114711554Y-71808292D01*
X114741847Y-71833153D01*
X114766708Y-71863446D01*
X114785180Y-71898005D01*
X114796555Y-71935501D01*
X114801000Y-71980638D01*
X114801000Y-72619362D01*
X114796555Y-72664499D01*
X114785180Y-72701995D01*
X114766708Y-72736554D01*
X114741847Y-72766847D01*
X114711554Y-72791708D01*
X114676995Y-72810180D01*
X114639499Y-72821555D01*
X114594362Y-72826000D01*
X113855638Y-72826000D01*
X113810501Y-72821555D01*
X113773005Y-72810180D01*
X113738446Y-72791708D01*
X113708153Y-72766847D01*
X113683292Y-72736554D01*
X113664820Y-72701995D01*
X113653445Y-72664499D01*
X113649000Y-72619362D01*
X113649000Y-71980638D01*
X113653445Y-71935501D01*
X113664820Y-71898005D01*
X113683292Y-71863446D01*
X113708153Y-71833153D01*
X113738446Y-71808292D01*
X113773005Y-71789820D01*
X113810501Y-71778445D01*
X113855638Y-71774000D01*
X114594362Y-71774000D01*
X114639499Y-71778445D01*
X114639499Y-71778445D01*
G37*
G36*
X116389499Y-71778445D02*
G01*
X116426995Y-71789820D01*
X116461554Y-71808292D01*
X116491847Y-71833153D01*
X116516708Y-71863446D01*
X116535180Y-71898005D01*
X116546555Y-71935501D01*
X116551000Y-71980638D01*
X116551000Y-72619362D01*
X116546555Y-72664499D01*
X116535180Y-72701995D01*
X116516708Y-72736554D01*
X116491847Y-72766847D01*
X116461554Y-72791708D01*
X116426995Y-72810180D01*
X116389499Y-72821555D01*
X116344362Y-72826000D01*
X115605638Y-72826000D01*
X115560501Y-72821555D01*
X115523005Y-72810180D01*
X115488446Y-72791708D01*
X115458153Y-72766847D01*
X115433292Y-72736554D01*
X115414820Y-72701995D01*
X115403445Y-72664499D01*
X115399000Y-72619362D01*
X115399000Y-71980638D01*
X115403445Y-71935501D01*
X115414820Y-71898005D01*
X115433292Y-71863446D01*
X115458153Y-71833153D01*
X115488446Y-71808292D01*
X115523005Y-71789820D01*
X115560501Y-71778445D01*
X115605638Y-71774000D01*
X116344362Y-71774000D01*
X116389499Y-71778445D01*
X116389499Y-71778445D01*
G37*
G36*
X104288674Y-71103465D02*
G01*
X104326367Y-71114899D01*
X104361103Y-71133466D01*
X104391548Y-71158452D01*
X104416534Y-71188897D01*
X104435101Y-71223633D01*
X104446535Y-71261326D01*
X104451000Y-71306661D01*
X104451000Y-72393339D01*
X104446535Y-72438674D01*
X104435101Y-72476367D01*
X104416534Y-72511103D01*
X104391548Y-72541548D01*
X104361103Y-72566534D01*
X104326367Y-72585101D01*
X104288674Y-72596535D01*
X104243339Y-72601000D01*
X103406661Y-72601000D01*
X103361326Y-72596535D01*
X103323633Y-72585101D01*
X103288897Y-72566534D01*
X103258452Y-72541548D01*
X103233466Y-72511103D01*
X103214899Y-72476367D01*
X103203465Y-72438674D01*
X103199000Y-72393339D01*
X103199000Y-71306661D01*
X103203465Y-71261326D01*
X103214899Y-71223633D01*
X103233466Y-71188897D01*
X103258452Y-71158452D01*
X103288897Y-71133466D01*
X103323633Y-71114899D01*
X103361326Y-71103465D01*
X103406661Y-71099000D01*
X104243339Y-71099000D01*
X104288674Y-71103465D01*
X104288674Y-71103465D01*
G37*
G36*
X106338674Y-71103465D02*
G01*
X106376367Y-71114899D01*
X106411103Y-71133466D01*
X106441548Y-71158452D01*
X106466534Y-71188897D01*
X106485101Y-71223633D01*
X106496535Y-71261326D01*
X106501000Y-71306661D01*
X106501000Y-72393339D01*
X106496535Y-72438674D01*
X106485101Y-72476367D01*
X106466534Y-72511103D01*
X106441548Y-72541548D01*
X106411103Y-72566534D01*
X106376367Y-72585101D01*
X106338674Y-72596535D01*
X106293339Y-72601000D01*
X105456661Y-72601000D01*
X105411326Y-72596535D01*
X105373633Y-72585101D01*
X105338897Y-72566534D01*
X105308452Y-72541548D01*
X105283466Y-72511103D01*
X105264899Y-72476367D01*
X105253465Y-72438674D01*
X105249000Y-72393339D01*
X105249000Y-71306661D01*
X105253465Y-71261326D01*
X105264899Y-71223633D01*
X105283466Y-71188897D01*
X105308452Y-71158452D01*
X105338897Y-71133466D01*
X105373633Y-71114899D01*
X105411326Y-71103465D01*
X105456661Y-71099000D01*
X106293339Y-71099000D01*
X106338674Y-71103465D01*
X106338674Y-71103465D01*
G37*
G36*
X99119294Y-68998633D02*
G01*
X99291695Y-69050931D01*
X99450583Y-69135858D01*
X99589849Y-69250151D01*
X99704142Y-69389417D01*
X99789069Y-69548305D01*
X99841367Y-69720706D01*
X99859025Y-69900000D01*
X99841367Y-70079294D01*
X99789069Y-70251695D01*
X99704142Y-70410583D01*
X99589849Y-70549849D01*
X99450583Y-70664142D01*
X99291695Y-70749069D01*
X99119294Y-70801367D01*
X98984931Y-70814600D01*
X98895069Y-70814600D01*
X98760706Y-70801367D01*
X98588305Y-70749069D01*
X98429417Y-70664142D01*
X98290151Y-70549849D01*
X98175858Y-70410583D01*
X98090931Y-70251695D01*
X98038633Y-70079294D01*
X98020975Y-69900000D01*
X98038633Y-69720706D01*
X98090931Y-69548305D01*
X98175858Y-69389417D01*
X98290151Y-69250151D01*
X98429417Y-69135858D01*
X98588305Y-69050931D01*
X98760706Y-68998633D01*
X98895069Y-68985400D01*
X98984931Y-68985400D01*
X99119294Y-68998633D01*
X99119294Y-68998633D01*
G37*
G36*
X137519294Y-68998633D02*
G01*
X137691695Y-69050931D01*
X137850583Y-69135858D01*
X137989849Y-69250151D01*
X138104142Y-69389417D01*
X138189069Y-69548305D01*
X138241367Y-69720706D01*
X138259025Y-69900000D01*
X138241367Y-70079294D01*
X138189069Y-70251695D01*
X138104142Y-70410583D01*
X137989849Y-70549849D01*
X137850583Y-70664142D01*
X137691695Y-70749069D01*
X137519294Y-70801367D01*
X137384931Y-70814600D01*
X137295069Y-70814600D01*
X137160706Y-70801367D01*
X136988305Y-70749069D01*
X136829417Y-70664142D01*
X136690151Y-70549849D01*
X136575858Y-70410583D01*
X136490931Y-70251695D01*
X136438633Y-70079294D01*
X136420975Y-69900000D01*
X136438633Y-69720706D01*
X136490931Y-69548305D01*
X136575858Y-69389417D01*
X136690151Y-69250151D01*
X136829417Y-69135858D01*
X136988305Y-69050931D01*
X137160706Y-68998633D01*
X137295069Y-68985400D01*
X137384931Y-68985400D01*
X137519294Y-68998633D01*
X137519294Y-68998633D01*
G37*
G36*
X96579294Y-68998633D02*
G01*
X96751695Y-69050931D01*
X96910583Y-69135858D01*
X97049849Y-69250151D01*
X97164142Y-69389417D01*
X97249069Y-69548305D01*
X97301367Y-69720706D01*
X97319025Y-69900000D01*
X97301367Y-70079294D01*
X97249069Y-70251695D01*
X97164142Y-70410583D01*
X97049849Y-70549849D01*
X96910583Y-70664142D01*
X96751695Y-70749069D01*
X96579294Y-70801367D01*
X96444931Y-70814600D01*
X96355069Y-70814600D01*
X96220706Y-70801367D01*
X96048305Y-70749069D01*
X95889417Y-70664142D01*
X95750151Y-70549849D01*
X95635858Y-70410583D01*
X95550931Y-70251695D01*
X95498633Y-70079294D01*
X95480975Y-69900000D01*
X95498633Y-69720706D01*
X95550931Y-69548305D01*
X95635858Y-69389417D01*
X95750151Y-69250151D01*
X95889417Y-69135858D01*
X96048305Y-69050931D01*
X96220706Y-68998633D01*
X96355069Y-68985400D01*
X96444931Y-68985400D01*
X96579294Y-68998633D01*
X96579294Y-68998633D01*
G37*
G36*
X134979294Y-68998633D02*
G01*
X135151695Y-69050931D01*
X135310583Y-69135858D01*
X135449849Y-69250151D01*
X135564142Y-69389417D01*
X135649069Y-69548305D01*
X135701367Y-69720706D01*
X135719025Y-69900000D01*
X135701367Y-70079294D01*
X135649069Y-70251695D01*
X135564142Y-70410583D01*
X135449849Y-70549849D01*
X135310583Y-70664142D01*
X135151695Y-70749069D01*
X134979294Y-70801367D01*
X134844931Y-70814600D01*
X134755069Y-70814600D01*
X134620706Y-70801367D01*
X134448305Y-70749069D01*
X134289417Y-70664142D01*
X134150151Y-70549849D01*
X134035858Y-70410583D01*
X133950931Y-70251695D01*
X133898633Y-70079294D01*
X133880975Y-69900000D01*
X133898633Y-69720706D01*
X133950931Y-69548305D01*
X134035858Y-69389417D01*
X134150151Y-69250151D01*
X134289417Y-69135858D01*
X134448305Y-69050931D01*
X134620706Y-68998633D01*
X134755069Y-68985400D01*
X134844931Y-68985400D01*
X134979294Y-68998633D01*
X134979294Y-68998633D01*
G37*
G36*
X113039499Y-69678445D02*
G01*
X113076995Y-69689820D01*
X113111554Y-69708292D01*
X113141847Y-69733153D01*
X113166708Y-69763446D01*
X113185180Y-69798005D01*
X113196555Y-69835501D01*
X113201000Y-69880638D01*
X113201000Y-70519362D01*
X113196555Y-70564499D01*
X113185180Y-70601995D01*
X113166708Y-70636554D01*
X113141847Y-70666847D01*
X113111554Y-70691708D01*
X113076995Y-70710180D01*
X113039499Y-70721555D01*
X112994362Y-70726000D01*
X112255638Y-70726000D01*
X112210501Y-70721555D01*
X112173005Y-70710180D01*
X112138446Y-70691708D01*
X112108153Y-70666847D01*
X112083292Y-70636554D01*
X112064820Y-70601995D01*
X112053445Y-70564499D01*
X112049000Y-70519362D01*
X112049000Y-69880638D01*
X112053445Y-69835501D01*
X112064820Y-69798005D01*
X112083292Y-69763446D01*
X112108153Y-69733153D01*
X112138446Y-69708292D01*
X112173005Y-69689820D01*
X112210501Y-69678445D01*
X112255638Y-69674000D01*
X112994362Y-69674000D01*
X113039499Y-69678445D01*
X113039499Y-69678445D01*
G37*
G36*
X114789499Y-69678445D02*
G01*
X114826995Y-69689820D01*
X114861554Y-69708292D01*
X114891847Y-69733153D01*
X114916708Y-69763446D01*
X114935180Y-69798005D01*
X114946555Y-69835501D01*
X114951000Y-69880638D01*
X114951000Y-70519362D01*
X114946555Y-70564499D01*
X114935180Y-70601995D01*
X114916708Y-70636554D01*
X114891847Y-70666847D01*
X114861554Y-70691708D01*
X114826995Y-70710180D01*
X114789499Y-70721555D01*
X114744362Y-70726000D01*
X114005638Y-70726000D01*
X113960501Y-70721555D01*
X113923005Y-70710180D01*
X113888446Y-70691708D01*
X113858153Y-70666847D01*
X113833292Y-70636554D01*
X113814820Y-70601995D01*
X113803445Y-70564499D01*
X113799000Y-70519362D01*
X113799000Y-69880638D01*
X113803445Y-69835501D01*
X113814820Y-69798005D01*
X113833292Y-69763446D01*
X113858153Y-69733153D01*
X113888446Y-69708292D01*
X113923005Y-69689820D01*
X113960501Y-69678445D01*
X114005638Y-69674000D01*
X114744362Y-69674000D01*
X114789499Y-69678445D01*
X114789499Y-69678445D01*
G37*
G36*
X120189499Y-69478445D02*
G01*
X120226995Y-69489820D01*
X120261554Y-69508292D01*
X120291847Y-69533153D01*
X120316708Y-69563446D01*
X120335180Y-69598005D01*
X120346555Y-69635501D01*
X120351000Y-69680638D01*
X120351000Y-70319362D01*
X120346555Y-70364499D01*
X120335180Y-70401995D01*
X120316708Y-70436554D01*
X120291847Y-70466847D01*
X120261554Y-70491708D01*
X120226995Y-70510180D01*
X120189499Y-70521555D01*
X120144362Y-70526000D01*
X119405638Y-70526000D01*
X119360501Y-70521555D01*
X119323005Y-70510180D01*
X119288446Y-70491708D01*
X119258153Y-70466847D01*
X119233292Y-70436554D01*
X119214820Y-70401995D01*
X119203445Y-70364499D01*
X119199000Y-70319362D01*
X119199000Y-69680638D01*
X119203445Y-69635501D01*
X119214820Y-69598005D01*
X119233292Y-69563446D01*
X119258153Y-69533153D01*
X119288446Y-69508292D01*
X119323005Y-69489820D01*
X119360501Y-69478445D01*
X119405638Y-69474000D01*
X120144362Y-69474000D01*
X120189499Y-69478445D01*
X120189499Y-69478445D01*
G37*
G36*
X118439499Y-69478445D02*
G01*
X118476995Y-69489820D01*
X118511554Y-69508292D01*
X118541847Y-69533153D01*
X118566708Y-69563446D01*
X118585180Y-69598005D01*
X118596555Y-69635501D01*
X118601000Y-69680638D01*
X118601000Y-70319362D01*
X118596555Y-70364499D01*
X118585180Y-70401995D01*
X118566708Y-70436554D01*
X118541847Y-70466847D01*
X118511554Y-70491708D01*
X118476995Y-70510180D01*
X118439499Y-70521555D01*
X118394362Y-70526000D01*
X117655638Y-70526000D01*
X117610501Y-70521555D01*
X117573005Y-70510180D01*
X117538446Y-70491708D01*
X117508153Y-70466847D01*
X117483292Y-70436554D01*
X117464820Y-70401995D01*
X117453445Y-70364499D01*
X117449000Y-70319362D01*
X117449000Y-69680638D01*
X117453445Y-69635501D01*
X117464820Y-69598005D01*
X117483292Y-69563446D01*
X117508153Y-69533153D01*
X117538446Y-69508292D01*
X117573005Y-69489820D01*
X117610501Y-69478445D01*
X117655638Y-69474000D01*
X118394362Y-69474000D01*
X118439499Y-69478445D01*
X118439499Y-69478445D01*
G37*
G36*
X118439499Y-67778445D02*
G01*
X118476995Y-67789820D01*
X118511554Y-67808292D01*
X118541847Y-67833153D01*
X118566708Y-67863446D01*
X118585180Y-67898005D01*
X118596555Y-67935501D01*
X118601000Y-67980638D01*
X118601000Y-68619362D01*
X118596555Y-68664499D01*
X118585180Y-68701995D01*
X118566708Y-68736554D01*
X118541847Y-68766847D01*
X118511554Y-68791708D01*
X118476995Y-68810180D01*
X118439499Y-68821555D01*
X118394362Y-68826000D01*
X117655638Y-68826000D01*
X117610501Y-68821555D01*
X117573005Y-68810180D01*
X117538446Y-68791708D01*
X117508153Y-68766847D01*
X117483292Y-68736554D01*
X117464820Y-68701995D01*
X117453445Y-68664499D01*
X117449000Y-68619362D01*
X117449000Y-67980638D01*
X117453445Y-67935501D01*
X117464820Y-67898005D01*
X117483292Y-67863446D01*
X117508153Y-67833153D01*
X117538446Y-67808292D01*
X117573005Y-67789820D01*
X117610501Y-67778445D01*
X117655638Y-67774000D01*
X118394362Y-67774000D01*
X118439499Y-67778445D01*
X118439499Y-67778445D01*
G37*
G36*
X120189499Y-67778445D02*
G01*
X120226995Y-67789820D01*
X120261554Y-67808292D01*
X120291847Y-67833153D01*
X120316708Y-67863446D01*
X120335180Y-67898005D01*
X120346555Y-67935501D01*
X120351000Y-67980638D01*
X120351000Y-68619362D01*
X120346555Y-68664499D01*
X120335180Y-68701995D01*
X120316708Y-68736554D01*
X120291847Y-68766847D01*
X120261554Y-68791708D01*
X120226995Y-68810180D01*
X120189499Y-68821555D01*
X120144362Y-68826000D01*
X119405638Y-68826000D01*
X119360501Y-68821555D01*
X119323005Y-68810180D01*
X119288446Y-68791708D01*
X119258153Y-68766847D01*
X119233292Y-68736554D01*
X119214820Y-68701995D01*
X119203445Y-68664499D01*
X119199000Y-68619362D01*
X119199000Y-67980638D01*
X119203445Y-67935501D01*
X119214820Y-67898005D01*
X119233292Y-67863446D01*
X119258153Y-67833153D01*
X119288446Y-67808292D01*
X119323005Y-67789820D01*
X119360501Y-67778445D01*
X119405638Y-67774000D01*
X120144362Y-67774000D01*
X120189499Y-67778445D01*
X120189499Y-67778445D01*
G37*
G36*
X96579294Y-66458633D02*
G01*
X96751695Y-66510931D01*
X96910583Y-66595858D01*
X97049849Y-66710151D01*
X97164142Y-66849417D01*
X97249069Y-67008305D01*
X97301367Y-67180706D01*
X97319025Y-67360000D01*
X97301367Y-67539294D01*
X97249069Y-67711695D01*
X97164142Y-67870583D01*
X97049849Y-68009849D01*
X96910583Y-68124142D01*
X96751695Y-68209069D01*
X96579294Y-68261367D01*
X96444931Y-68274600D01*
X96355069Y-68274600D01*
X96220706Y-68261367D01*
X96048305Y-68209069D01*
X95889417Y-68124142D01*
X95750151Y-68009849D01*
X95635858Y-67870583D01*
X95550931Y-67711695D01*
X95498633Y-67539294D01*
X95480975Y-67360000D01*
X95498633Y-67180706D01*
X95550931Y-67008305D01*
X95635858Y-66849417D01*
X95750151Y-66710151D01*
X95889417Y-66595858D01*
X96048305Y-66510931D01*
X96220706Y-66458633D01*
X96355069Y-66445400D01*
X96444931Y-66445400D01*
X96579294Y-66458633D01*
X96579294Y-66458633D01*
G37*
G36*
X99119294Y-66458633D02*
G01*
X99291695Y-66510931D01*
X99450583Y-66595858D01*
X99589849Y-66710151D01*
X99704142Y-66849417D01*
X99789069Y-67008305D01*
X99841367Y-67180706D01*
X99859025Y-67360000D01*
X99841367Y-67539294D01*
X99789069Y-67711695D01*
X99704142Y-67870583D01*
X99589849Y-68009849D01*
X99450583Y-68124142D01*
X99291695Y-68209069D01*
X99119294Y-68261367D01*
X98984931Y-68274600D01*
X98895069Y-68274600D01*
X98760706Y-68261367D01*
X98588305Y-68209069D01*
X98429417Y-68124142D01*
X98290151Y-68009849D01*
X98175858Y-67870583D01*
X98090931Y-67711695D01*
X98038633Y-67539294D01*
X98020975Y-67360000D01*
X98038633Y-67180706D01*
X98090931Y-67008305D01*
X98175858Y-66849417D01*
X98290151Y-66710151D01*
X98429417Y-66595858D01*
X98588305Y-66510931D01*
X98760706Y-66458633D01*
X98895069Y-66445400D01*
X98984931Y-66445400D01*
X99119294Y-66458633D01*
X99119294Y-66458633D01*
G37*
G36*
X134979294Y-66458633D02*
G01*
X135151695Y-66510931D01*
X135310583Y-66595858D01*
X135449849Y-66710151D01*
X135564142Y-66849417D01*
X135649069Y-67008305D01*
X135701367Y-67180706D01*
X135719025Y-67360000D01*
X135701367Y-67539294D01*
X135649069Y-67711695D01*
X135564142Y-67870583D01*
X135449849Y-68009849D01*
X135310583Y-68124142D01*
X135151695Y-68209069D01*
X134979294Y-68261367D01*
X134844931Y-68274600D01*
X134755069Y-68274600D01*
X134620706Y-68261367D01*
X134448305Y-68209069D01*
X134289417Y-68124142D01*
X134150151Y-68009849D01*
X134035858Y-67870583D01*
X133950931Y-67711695D01*
X133898633Y-67539294D01*
X133880975Y-67360000D01*
X133898633Y-67180706D01*
X133950931Y-67008305D01*
X134035858Y-66849417D01*
X134150151Y-66710151D01*
X134289417Y-66595858D01*
X134448305Y-66510931D01*
X134620706Y-66458633D01*
X134755069Y-66445400D01*
X134844931Y-66445400D01*
X134979294Y-66458633D01*
X134979294Y-66458633D01*
G37*
G36*
X137519294Y-66458633D02*
G01*
X137691695Y-66510931D01*
X137850583Y-66595858D01*
X137989849Y-66710151D01*
X138104142Y-66849417D01*
X138189069Y-67008305D01*
X138241367Y-67180706D01*
X138259025Y-67360000D01*
X138241367Y-67539294D01*
X138189069Y-67711695D01*
X138104142Y-67870583D01*
X137989849Y-68009849D01*
X137850583Y-68124142D01*
X137691695Y-68209069D01*
X137519294Y-68261367D01*
X137384931Y-68274600D01*
X137295069Y-68274600D01*
X137160706Y-68261367D01*
X136988305Y-68209069D01*
X136829417Y-68124142D01*
X136690151Y-68009849D01*
X136575858Y-67870583D01*
X136490931Y-67711695D01*
X136438633Y-67539294D01*
X136420975Y-67360000D01*
X136438633Y-67180706D01*
X136490931Y-67008305D01*
X136575858Y-66849417D01*
X136690151Y-66710151D01*
X136829417Y-66595858D01*
X136988305Y-66510931D01*
X137160706Y-66458633D01*
X137295069Y-66445400D01*
X137384931Y-66445400D01*
X137519294Y-66458633D01*
X137519294Y-66458633D01*
G37*
G36*
X131139499Y-66978445D02*
G01*
X131176995Y-66989820D01*
X131211554Y-67008292D01*
X131241847Y-67033153D01*
X131266708Y-67063446D01*
X131285180Y-67098005D01*
X131296555Y-67135501D01*
X131301000Y-67180638D01*
X131301000Y-67819362D01*
X131296555Y-67864499D01*
X131285180Y-67901995D01*
X131266708Y-67936554D01*
X131241847Y-67966847D01*
X131211554Y-67991708D01*
X131176995Y-68010180D01*
X131139499Y-68021555D01*
X131094362Y-68026000D01*
X130355638Y-68026000D01*
X130310501Y-68021555D01*
X130273005Y-68010180D01*
X130238446Y-67991708D01*
X130208153Y-67966847D01*
X130183292Y-67936554D01*
X130164820Y-67901995D01*
X130153445Y-67864499D01*
X130149000Y-67819362D01*
X130149000Y-67180638D01*
X130153445Y-67135501D01*
X130164820Y-67098005D01*
X130183292Y-67063446D01*
X130208153Y-67033153D01*
X130238446Y-67008292D01*
X130273005Y-66989820D01*
X130310501Y-66978445D01*
X130355638Y-66974000D01*
X131094362Y-66974000D01*
X131139499Y-66978445D01*
X131139499Y-66978445D01*
G37*
G36*
X132889499Y-66978445D02*
G01*
X132926995Y-66989820D01*
X132961554Y-67008292D01*
X132991847Y-67033153D01*
X133016708Y-67063446D01*
X133035180Y-67098005D01*
X133046555Y-67135501D01*
X133051000Y-67180638D01*
X133051000Y-67819362D01*
X133046555Y-67864499D01*
X133035180Y-67901995D01*
X133016708Y-67936554D01*
X132991847Y-67966847D01*
X132961554Y-67991708D01*
X132926995Y-68010180D01*
X132889499Y-68021555D01*
X132844362Y-68026000D01*
X132105638Y-68026000D01*
X132060501Y-68021555D01*
X132023005Y-68010180D01*
X131988446Y-67991708D01*
X131958153Y-67966847D01*
X131933292Y-67936554D01*
X131914820Y-67901995D01*
X131903445Y-67864499D01*
X131899000Y-67819362D01*
X131899000Y-67180638D01*
X131903445Y-67135501D01*
X131914820Y-67098005D01*
X131933292Y-67063446D01*
X131958153Y-67033153D01*
X131988446Y-67008292D01*
X132023005Y-66989820D01*
X132060501Y-66978445D01*
X132105638Y-66974000D01*
X132844362Y-66974000D01*
X132889499Y-66978445D01*
X132889499Y-66978445D01*
G37*
G36*
X116264499Y-65603445D02*
G01*
X116301995Y-65614820D01*
X116336554Y-65633292D01*
X116366847Y-65658153D01*
X116391708Y-65688446D01*
X116410180Y-65723005D01*
X116421555Y-65760501D01*
X116426000Y-65805638D01*
X116426000Y-66544362D01*
X116421555Y-66589499D01*
X116410180Y-66626995D01*
X116391708Y-66661554D01*
X116366847Y-66691847D01*
X116336554Y-66716708D01*
X116301995Y-66735180D01*
X116264499Y-66746555D01*
X116219362Y-66751000D01*
X115580638Y-66751000D01*
X115535501Y-66746555D01*
X115498005Y-66735180D01*
X115463446Y-66716708D01*
X115433153Y-66691847D01*
X115408292Y-66661554D01*
X115389820Y-66626995D01*
X115378445Y-66589499D01*
X115374000Y-66544362D01*
X115374000Y-65805638D01*
X115378445Y-65760501D01*
X115389820Y-65723005D01*
X115408292Y-65688446D01*
X115433153Y-65658153D01*
X115463446Y-65633292D01*
X115498005Y-65614820D01*
X115535501Y-65603445D01*
X115580638Y-65599000D01*
X116219362Y-65599000D01*
X116264499Y-65603445D01*
X116264499Y-65603445D01*
G37*
G36*
X96579294Y-63918633D02*
G01*
X96751695Y-63970931D01*
X96910583Y-64055858D01*
X97049849Y-64170151D01*
X97164142Y-64309417D01*
X97249069Y-64468305D01*
X97301367Y-64640706D01*
X97319025Y-64820000D01*
X97301367Y-64999294D01*
X97249069Y-65171695D01*
X97164142Y-65330583D01*
X97049849Y-65469849D01*
X96910583Y-65584142D01*
X96751695Y-65669069D01*
X96579294Y-65721367D01*
X96444931Y-65734600D01*
X96355069Y-65734600D01*
X96220706Y-65721367D01*
X96048305Y-65669069D01*
X95889417Y-65584142D01*
X95750151Y-65469849D01*
X95635858Y-65330583D01*
X95550931Y-65171695D01*
X95498633Y-64999294D01*
X95480975Y-64820000D01*
X95498633Y-64640706D01*
X95550931Y-64468305D01*
X95635858Y-64309417D01*
X95750151Y-64170151D01*
X95889417Y-64055858D01*
X96048305Y-63970931D01*
X96220706Y-63918633D01*
X96355069Y-63905400D01*
X96444931Y-63905400D01*
X96579294Y-63918633D01*
X96579294Y-63918633D01*
G37*
G36*
X99119294Y-63918633D02*
G01*
X99291695Y-63970931D01*
X99450583Y-64055858D01*
X99589849Y-64170151D01*
X99704142Y-64309417D01*
X99789069Y-64468305D01*
X99841367Y-64640706D01*
X99859025Y-64820000D01*
X99841367Y-64999294D01*
X99789069Y-65171695D01*
X99704142Y-65330583D01*
X99589849Y-65469849D01*
X99450583Y-65584142D01*
X99291695Y-65669069D01*
X99119294Y-65721367D01*
X98984931Y-65734600D01*
X98895069Y-65734600D01*
X98760706Y-65721367D01*
X98588305Y-65669069D01*
X98429417Y-65584142D01*
X98290151Y-65469849D01*
X98175858Y-65330583D01*
X98090931Y-65171695D01*
X98038633Y-64999294D01*
X98020975Y-64820000D01*
X98038633Y-64640706D01*
X98090931Y-64468305D01*
X98175858Y-64309417D01*
X98290151Y-64170151D01*
X98429417Y-64055858D01*
X98588305Y-63970931D01*
X98760706Y-63918633D01*
X98895069Y-63905400D01*
X98984931Y-63905400D01*
X99119294Y-63918633D01*
X99119294Y-63918633D01*
G37*
G36*
X137519294Y-63918633D02*
G01*
X137691695Y-63970931D01*
X137850583Y-64055858D01*
X137989849Y-64170151D01*
X138104142Y-64309417D01*
X138189069Y-64468305D01*
X138241367Y-64640706D01*
X138259025Y-64820000D01*
X138241367Y-64999294D01*
X138189069Y-65171695D01*
X138104142Y-65330583D01*
X137989849Y-65469849D01*
X137850583Y-65584142D01*
X137691695Y-65669069D01*
X137519294Y-65721367D01*
X137384931Y-65734600D01*
X137295069Y-65734600D01*
X137160706Y-65721367D01*
X136988305Y-65669069D01*
X136829417Y-65584142D01*
X136690151Y-65469849D01*
X136575858Y-65330583D01*
X136490931Y-65171695D01*
X136438633Y-64999294D01*
X136420975Y-64820000D01*
X136438633Y-64640706D01*
X136490931Y-64468305D01*
X136575858Y-64309417D01*
X136690151Y-64170151D01*
X136829417Y-64055858D01*
X136988305Y-63970931D01*
X137160706Y-63918633D01*
X137295069Y-63905400D01*
X137384931Y-63905400D01*
X137519294Y-63918633D01*
X137519294Y-63918633D01*
G37*
G36*
X134979294Y-63918633D02*
G01*
X135151695Y-63970931D01*
X135310583Y-64055858D01*
X135449849Y-64170151D01*
X135564142Y-64309417D01*
X135649069Y-64468305D01*
X135701367Y-64640706D01*
X135719025Y-64820000D01*
X135701367Y-64999294D01*
X135649069Y-65171695D01*
X135564142Y-65330583D01*
X135449849Y-65469849D01*
X135310583Y-65584142D01*
X135151695Y-65669069D01*
X134979294Y-65721367D01*
X134844931Y-65734600D01*
X134755069Y-65734600D01*
X134620706Y-65721367D01*
X134448305Y-65669069D01*
X134289417Y-65584142D01*
X134150151Y-65469849D01*
X134035858Y-65330583D01*
X133950931Y-65171695D01*
X133898633Y-64999294D01*
X133880975Y-64820000D01*
X133898633Y-64640706D01*
X133950931Y-64468305D01*
X134035858Y-64309417D01*
X134150151Y-64170151D01*
X134289417Y-64055858D01*
X134448305Y-63970931D01*
X134620706Y-63918633D01*
X134755069Y-63905400D01*
X134844931Y-63905400D01*
X134979294Y-63918633D01*
X134979294Y-63918633D01*
G37*
G36*
X116264499Y-63853445D02*
G01*
X116301995Y-63864820D01*
X116336554Y-63883292D01*
X116366847Y-63908153D01*
X116391708Y-63938446D01*
X116410180Y-63973005D01*
X116421555Y-64010501D01*
X116426000Y-64055638D01*
X116426000Y-64794362D01*
X116421555Y-64839499D01*
X116410180Y-64876995D01*
X116391708Y-64911554D01*
X116366847Y-64941847D01*
X116336554Y-64966708D01*
X116301995Y-64985180D01*
X116264499Y-64996555D01*
X116219362Y-65001000D01*
X115580638Y-65001000D01*
X115535501Y-64996555D01*
X115498005Y-64985180D01*
X115463446Y-64966708D01*
X115433153Y-64941847D01*
X115408292Y-64911554D01*
X115389820Y-64876995D01*
X115378445Y-64839499D01*
X115374000Y-64794362D01*
X115374000Y-64055638D01*
X115378445Y-64010501D01*
X115389820Y-63973005D01*
X115408292Y-63938446D01*
X115433153Y-63908153D01*
X115463446Y-63883292D01*
X115498005Y-63864820D01*
X115535501Y-63853445D01*
X115580638Y-63849000D01*
X116219362Y-63849000D01*
X116264499Y-63853445D01*
X116264499Y-63853445D01*
G37*
G36*
X132889499Y-63878445D02*
G01*
X132926995Y-63889820D01*
X132961554Y-63908292D01*
X132991847Y-63933153D01*
X133016708Y-63963446D01*
X133035180Y-63998005D01*
X133046555Y-64035501D01*
X133051000Y-64080638D01*
X133051000Y-64719362D01*
X133046555Y-64764499D01*
X133035180Y-64801995D01*
X133016708Y-64836554D01*
X132991847Y-64866847D01*
X132961554Y-64891708D01*
X132926995Y-64910180D01*
X132889499Y-64921555D01*
X132844362Y-64926000D01*
X132105638Y-64926000D01*
X132060501Y-64921555D01*
X132023005Y-64910180D01*
X131988446Y-64891708D01*
X131958153Y-64866847D01*
X131933292Y-64836554D01*
X131914820Y-64801995D01*
X131903445Y-64764499D01*
X131899000Y-64719362D01*
X131899000Y-64080638D01*
X131903445Y-64035501D01*
X131914820Y-63998005D01*
X131933292Y-63963446D01*
X131958153Y-63933153D01*
X131988446Y-63908292D01*
X132023005Y-63889820D01*
X132060501Y-63878445D01*
X132105638Y-63874000D01*
X132844362Y-63874000D01*
X132889499Y-63878445D01*
X132889499Y-63878445D01*
G37*
G36*
X131139499Y-63878445D02*
G01*
X131176995Y-63889820D01*
X131211554Y-63908292D01*
X131241847Y-63933153D01*
X131266708Y-63963446D01*
X131285180Y-63998005D01*
X131296555Y-64035501D01*
X131301000Y-64080638D01*
X131301000Y-64719362D01*
X131296555Y-64764499D01*
X131285180Y-64801995D01*
X131266708Y-64836554D01*
X131241847Y-64866847D01*
X131211554Y-64891708D01*
X131176995Y-64910180D01*
X131139499Y-64921555D01*
X131094362Y-64926000D01*
X130355638Y-64926000D01*
X130310501Y-64921555D01*
X130273005Y-64910180D01*
X130238446Y-64891708D01*
X130208153Y-64866847D01*
X130183292Y-64836554D01*
X130164820Y-64801995D01*
X130153445Y-64764499D01*
X130149000Y-64719362D01*
X130149000Y-64080638D01*
X130153445Y-64035501D01*
X130164820Y-63998005D01*
X130183292Y-63963446D01*
X130208153Y-63933153D01*
X130238446Y-63908292D01*
X130273005Y-63889820D01*
X130310501Y-63878445D01*
X130355638Y-63874000D01*
X131094362Y-63874000D01*
X131139499Y-63878445D01*
X131139499Y-63878445D01*
G37*
G36*
X137519294Y-61378633D02*
G01*
X137691695Y-61430931D01*
X137850583Y-61515858D01*
X137989849Y-61630151D01*
X138104142Y-61769417D01*
X138189069Y-61928305D01*
X138241367Y-62100706D01*
X138259025Y-62280000D01*
X138241367Y-62459294D01*
X138189069Y-62631695D01*
X138104142Y-62790583D01*
X137989849Y-62929849D01*
X137850583Y-63044142D01*
X137691695Y-63129069D01*
X137519294Y-63181367D01*
X137384931Y-63194600D01*
X137295069Y-63194600D01*
X137160706Y-63181367D01*
X136988305Y-63129069D01*
X136829417Y-63044142D01*
X136690151Y-62929849D01*
X136575858Y-62790583D01*
X136490931Y-62631695D01*
X136438633Y-62459294D01*
X136420975Y-62280000D01*
X136438633Y-62100706D01*
X136490931Y-61928305D01*
X136575858Y-61769417D01*
X136690151Y-61630151D01*
X136829417Y-61515858D01*
X136988305Y-61430931D01*
X137160706Y-61378633D01*
X137295069Y-61365400D01*
X137384931Y-61365400D01*
X137519294Y-61378633D01*
X137519294Y-61378633D01*
G37*
G36*
X99119294Y-61378633D02*
G01*
X99291695Y-61430931D01*
X99450583Y-61515858D01*
X99589849Y-61630151D01*
X99704142Y-61769417D01*
X99789069Y-61928305D01*
X99841367Y-62100706D01*
X99859025Y-62280000D01*
X99841367Y-62459294D01*
X99789069Y-62631695D01*
X99704142Y-62790583D01*
X99589849Y-62929849D01*
X99450583Y-63044142D01*
X99291695Y-63129069D01*
X99119294Y-63181367D01*
X98984931Y-63194600D01*
X98895069Y-63194600D01*
X98760706Y-63181367D01*
X98588305Y-63129069D01*
X98429417Y-63044142D01*
X98290151Y-62929849D01*
X98175858Y-62790583D01*
X98090931Y-62631695D01*
X98038633Y-62459294D01*
X98020975Y-62280000D01*
X98038633Y-62100706D01*
X98090931Y-61928305D01*
X98175858Y-61769417D01*
X98290151Y-61630151D01*
X98429417Y-61515858D01*
X98588305Y-61430931D01*
X98760706Y-61378633D01*
X98895069Y-61365400D01*
X98984931Y-61365400D01*
X99119294Y-61378633D01*
X99119294Y-61378633D01*
G37*
G36*
X96579294Y-61378633D02*
G01*
X96751695Y-61430931D01*
X96910583Y-61515858D01*
X97049849Y-61630151D01*
X97164142Y-61769417D01*
X97249069Y-61928305D01*
X97301367Y-62100706D01*
X97319025Y-62280000D01*
X97301367Y-62459294D01*
X97249069Y-62631695D01*
X97164142Y-62790583D01*
X97049849Y-62929849D01*
X96910583Y-63044142D01*
X96751695Y-63129069D01*
X96579294Y-63181367D01*
X96444931Y-63194600D01*
X96355069Y-63194600D01*
X96220706Y-63181367D01*
X96048305Y-63129069D01*
X95889417Y-63044142D01*
X95750151Y-62929849D01*
X95635858Y-62790583D01*
X95550931Y-62631695D01*
X95498633Y-62459294D01*
X95480975Y-62280000D01*
X95498633Y-62100706D01*
X95550931Y-61928305D01*
X95635858Y-61769417D01*
X95750151Y-61630151D01*
X95889417Y-61515858D01*
X96048305Y-61430931D01*
X96220706Y-61378633D01*
X96355069Y-61365400D01*
X96444931Y-61365400D01*
X96579294Y-61378633D01*
X96579294Y-61378633D01*
G37*
G36*
X134979294Y-61378633D02*
G01*
X135151695Y-61430931D01*
X135310583Y-61515858D01*
X135449849Y-61630151D01*
X135564142Y-61769417D01*
X135649069Y-61928305D01*
X135701367Y-62100706D01*
X135719025Y-62280000D01*
X135701367Y-62459294D01*
X135649069Y-62631695D01*
X135564142Y-62790583D01*
X135449849Y-62929849D01*
X135310583Y-63044142D01*
X135151695Y-63129069D01*
X134979294Y-63181367D01*
X134844931Y-63194600D01*
X134755069Y-63194600D01*
X134620706Y-63181367D01*
X134448305Y-63129069D01*
X134289417Y-63044142D01*
X134150151Y-62929849D01*
X134035858Y-62790583D01*
X133950931Y-62631695D01*
X133898633Y-62459294D01*
X133880975Y-62280000D01*
X133898633Y-62100706D01*
X133950931Y-61928305D01*
X134035858Y-61769417D01*
X134150151Y-61630151D01*
X134289417Y-61515858D01*
X134448305Y-61430931D01*
X134620706Y-61378633D01*
X134755069Y-61365400D01*
X134844931Y-61365400D01*
X134979294Y-61378633D01*
X134979294Y-61378633D01*
G37*
G36*
X99119294Y-58838633D02*
G01*
X99291695Y-58890931D01*
X99450583Y-58975858D01*
X99589849Y-59090151D01*
X99704142Y-59229417D01*
X99789069Y-59388305D01*
X99841367Y-59560706D01*
X99859025Y-59740000D01*
X99841367Y-59919294D01*
X99789069Y-60091695D01*
X99704142Y-60250583D01*
X99589849Y-60389849D01*
X99450583Y-60504142D01*
X99291695Y-60589069D01*
X99119294Y-60641367D01*
X98984931Y-60654600D01*
X98895069Y-60654600D01*
X98760706Y-60641367D01*
X98588305Y-60589069D01*
X98429417Y-60504142D01*
X98290151Y-60389849D01*
X98175858Y-60250583D01*
X98090931Y-60091695D01*
X98038633Y-59919294D01*
X98020975Y-59740000D01*
X98038633Y-59560706D01*
X98090931Y-59388305D01*
X98175858Y-59229417D01*
X98290151Y-59090151D01*
X98429417Y-58975858D01*
X98588305Y-58890931D01*
X98760706Y-58838633D01*
X98895069Y-58825400D01*
X98984931Y-58825400D01*
X99119294Y-58838633D01*
X99119294Y-58838633D01*
G37*
G36*
X134979294Y-58838633D02*
G01*
X135151695Y-58890931D01*
X135310583Y-58975858D01*
X135449849Y-59090151D01*
X135564142Y-59229417D01*
X135649069Y-59388305D01*
X135701367Y-59560706D01*
X135719025Y-59740000D01*
X135701367Y-59919294D01*
X135649069Y-60091695D01*
X135564142Y-60250583D01*
X135449849Y-60389849D01*
X135310583Y-60504142D01*
X135151695Y-60589069D01*
X134979294Y-60641367D01*
X134844931Y-60654600D01*
X134755069Y-60654600D01*
X134620706Y-60641367D01*
X134448305Y-60589069D01*
X134289417Y-60504142D01*
X134150151Y-60389849D01*
X134035858Y-60250583D01*
X133950931Y-60091695D01*
X133898633Y-59919294D01*
X133880975Y-59740000D01*
X133898633Y-59560706D01*
X133950931Y-59388305D01*
X134035858Y-59229417D01*
X134150151Y-59090151D01*
X134289417Y-58975858D01*
X134448305Y-58890931D01*
X134620706Y-58838633D01*
X134755069Y-58825400D01*
X134844931Y-58825400D01*
X134979294Y-58838633D01*
X134979294Y-58838633D01*
G37*
G36*
X137519294Y-58838633D02*
G01*
X137691695Y-58890931D01*
X137850583Y-58975858D01*
X137989849Y-59090151D01*
X138104142Y-59229417D01*
X138189069Y-59388305D01*
X138241367Y-59560706D01*
X138259025Y-59740000D01*
X138241367Y-59919294D01*
X138189069Y-60091695D01*
X138104142Y-60250583D01*
X137989849Y-60389849D01*
X137850583Y-60504142D01*
X137691695Y-60589069D01*
X137519294Y-60641367D01*
X137384931Y-60654600D01*
X137295069Y-60654600D01*
X137160706Y-60641367D01*
X136988305Y-60589069D01*
X136829417Y-60504142D01*
X136690151Y-60389849D01*
X136575858Y-60250583D01*
X136490931Y-60091695D01*
X136438633Y-59919294D01*
X136420975Y-59740000D01*
X136438633Y-59560706D01*
X136490931Y-59388305D01*
X136575858Y-59229417D01*
X136690151Y-59090151D01*
X136829417Y-58975858D01*
X136988305Y-58890931D01*
X137160706Y-58838633D01*
X137295069Y-58825400D01*
X137384931Y-58825400D01*
X137519294Y-58838633D01*
X137519294Y-58838633D01*
G37*
G36*
X96579294Y-58838633D02*
G01*
X96751695Y-58890931D01*
X96910583Y-58975858D01*
X97049849Y-59090151D01*
X97164142Y-59229417D01*
X97249069Y-59388305D01*
X97301367Y-59560706D01*
X97319025Y-59740000D01*
X97301367Y-59919294D01*
X97249069Y-60091695D01*
X97164142Y-60250583D01*
X97049849Y-60389849D01*
X96910583Y-60504142D01*
X96751695Y-60589069D01*
X96579294Y-60641367D01*
X96444931Y-60654600D01*
X96355069Y-60654600D01*
X96220706Y-60641367D01*
X96048305Y-60589069D01*
X95889417Y-60504142D01*
X95750151Y-60389849D01*
X95635858Y-60250583D01*
X95550931Y-60091695D01*
X95498633Y-59919294D01*
X95480975Y-59740000D01*
X95498633Y-59560706D01*
X95550931Y-59388305D01*
X95635858Y-59229417D01*
X95750151Y-59090151D01*
X95889417Y-58975858D01*
X96048305Y-58890931D01*
X96220706Y-58838633D01*
X96355069Y-58825400D01*
X96444931Y-58825400D01*
X96579294Y-58838633D01*
X96579294Y-58838633D01*
G37*
G36*
X132889499Y-59278445D02*
G01*
X132926995Y-59289820D01*
X132961554Y-59308292D01*
X132991847Y-59333153D01*
X133016708Y-59363446D01*
X133035180Y-59398005D01*
X133046555Y-59435501D01*
X133051000Y-59480638D01*
X133051000Y-60119362D01*
X133046555Y-60164499D01*
X133035180Y-60201995D01*
X133016708Y-60236554D01*
X132991847Y-60266847D01*
X132961554Y-60291708D01*
X132926995Y-60310180D01*
X132889499Y-60321555D01*
X132844362Y-60326000D01*
X132105638Y-60326000D01*
X132060501Y-60321555D01*
X132023005Y-60310180D01*
X131988446Y-60291708D01*
X131958153Y-60266847D01*
X131933292Y-60236554D01*
X131914820Y-60201995D01*
X131903445Y-60164499D01*
X131899000Y-60119362D01*
X131899000Y-59480638D01*
X131903445Y-59435501D01*
X131914820Y-59398005D01*
X131933292Y-59363446D01*
X131958153Y-59333153D01*
X131988446Y-59308292D01*
X132023005Y-59289820D01*
X132060501Y-59278445D01*
X132105638Y-59274000D01*
X132844362Y-59274000D01*
X132889499Y-59278445D01*
X132889499Y-59278445D01*
G37*
G36*
X131139499Y-59278445D02*
G01*
X131176995Y-59289820D01*
X131211554Y-59308292D01*
X131241847Y-59333153D01*
X131266708Y-59363446D01*
X131285180Y-59398005D01*
X131296555Y-59435501D01*
X131301000Y-59480638D01*
X131301000Y-60119362D01*
X131296555Y-60164499D01*
X131285180Y-60201995D01*
X131266708Y-60236554D01*
X131241847Y-60266847D01*
X131211554Y-60291708D01*
X131176995Y-60310180D01*
X131139499Y-60321555D01*
X131094362Y-60326000D01*
X130355638Y-60326000D01*
X130310501Y-60321555D01*
X130273005Y-60310180D01*
X130238446Y-60291708D01*
X130208153Y-60266847D01*
X130183292Y-60236554D01*
X130164820Y-60201995D01*
X130153445Y-60164499D01*
X130149000Y-60119362D01*
X130149000Y-59480638D01*
X130153445Y-59435501D01*
X130164820Y-59398005D01*
X130183292Y-59363446D01*
X130208153Y-59333153D01*
X130238446Y-59308292D01*
X130273005Y-59289820D01*
X130310501Y-59278445D01*
X130355638Y-59274000D01*
X131094362Y-59274000D01*
X131139499Y-59278445D01*
X131139499Y-59278445D01*
G37*
G36*
X99119294Y-56298633D02*
G01*
X99291695Y-56350931D01*
X99450583Y-56435858D01*
X99589849Y-56550151D01*
X99704142Y-56689417D01*
X99789069Y-56848305D01*
X99841367Y-57020706D01*
X99859025Y-57200000D01*
X99841367Y-57379294D01*
X99789069Y-57551695D01*
X99704142Y-57710583D01*
X99589849Y-57849849D01*
X99450583Y-57964142D01*
X99291695Y-58049069D01*
X99119294Y-58101367D01*
X98984931Y-58114600D01*
X98895069Y-58114600D01*
X98760706Y-58101367D01*
X98588305Y-58049069D01*
X98429417Y-57964142D01*
X98290151Y-57849849D01*
X98175858Y-57710583D01*
X98090931Y-57551695D01*
X98038633Y-57379294D01*
X98020975Y-57200000D01*
X98038633Y-57020706D01*
X98090931Y-56848305D01*
X98175858Y-56689417D01*
X98290151Y-56550151D01*
X98429417Y-56435858D01*
X98588305Y-56350931D01*
X98760706Y-56298633D01*
X98895069Y-56285400D01*
X98984931Y-56285400D01*
X99119294Y-56298633D01*
X99119294Y-56298633D01*
G37*
G36*
X96579294Y-56298633D02*
G01*
X96751695Y-56350931D01*
X96910583Y-56435858D01*
X97049849Y-56550151D01*
X97164142Y-56689417D01*
X97249069Y-56848305D01*
X97301367Y-57020706D01*
X97319025Y-57200000D01*
X97301367Y-57379294D01*
X97249069Y-57551695D01*
X97164142Y-57710583D01*
X97049849Y-57849849D01*
X96910583Y-57964142D01*
X96751695Y-58049069D01*
X96579294Y-58101367D01*
X96444931Y-58114600D01*
X96355069Y-58114600D01*
X96220706Y-58101367D01*
X96048305Y-58049069D01*
X95889417Y-57964142D01*
X95750151Y-57849849D01*
X95635858Y-57710583D01*
X95550931Y-57551695D01*
X95498633Y-57379294D01*
X95480975Y-57200000D01*
X95498633Y-57020706D01*
X95550931Y-56848305D01*
X95635858Y-56689417D01*
X95750151Y-56550151D01*
X95889417Y-56435858D01*
X96048305Y-56350931D01*
X96220706Y-56298633D01*
X96355069Y-56285400D01*
X96444931Y-56285400D01*
X96579294Y-56298633D01*
X96579294Y-56298633D01*
G37*
G36*
X137519294Y-56298633D02*
G01*
X137691695Y-56350931D01*
X137850583Y-56435858D01*
X137989849Y-56550151D01*
X138104142Y-56689417D01*
X138189069Y-56848305D01*
X138241367Y-57020706D01*
X138259025Y-57200000D01*
X138241367Y-57379294D01*
X138189069Y-57551695D01*
X138104142Y-57710583D01*
X137989849Y-57849849D01*
X137850583Y-57964142D01*
X137691695Y-58049069D01*
X137519294Y-58101367D01*
X137384931Y-58114600D01*
X137295069Y-58114600D01*
X137160706Y-58101367D01*
X136988305Y-58049069D01*
X136829417Y-57964142D01*
X136690151Y-57849849D01*
X136575858Y-57710583D01*
X136490931Y-57551695D01*
X136438633Y-57379294D01*
X136420975Y-57200000D01*
X136438633Y-57020706D01*
X136490931Y-56848305D01*
X136575858Y-56689417D01*
X136690151Y-56550151D01*
X136829417Y-56435858D01*
X136988305Y-56350931D01*
X137160706Y-56298633D01*
X137295069Y-56285400D01*
X137384931Y-56285400D01*
X137519294Y-56298633D01*
X137519294Y-56298633D01*
G37*
G36*
X134979294Y-56298633D02*
G01*
X135151695Y-56350931D01*
X135310583Y-56435858D01*
X135449849Y-56550151D01*
X135564142Y-56689417D01*
X135649069Y-56848305D01*
X135701367Y-57020706D01*
X135719025Y-57200000D01*
X135701367Y-57379294D01*
X135649069Y-57551695D01*
X135564142Y-57710583D01*
X135449849Y-57849849D01*
X135310583Y-57964142D01*
X135151695Y-58049069D01*
X134979294Y-58101367D01*
X134844931Y-58114600D01*
X134755069Y-58114600D01*
X134620706Y-58101367D01*
X134448305Y-58049069D01*
X134289417Y-57964142D01*
X134150151Y-57849849D01*
X134035858Y-57710583D01*
X133950931Y-57551695D01*
X133898633Y-57379294D01*
X133880975Y-57200000D01*
X133898633Y-57020706D01*
X133950931Y-56848305D01*
X134035858Y-56689417D01*
X134150151Y-56550151D01*
X134289417Y-56435858D01*
X134448305Y-56350931D01*
X134620706Y-56298633D01*
X134755069Y-56285400D01*
X134844931Y-56285400D01*
X134979294Y-56298633D01*
X134979294Y-56298633D01*
G37*
G36*
X132889499Y-56778445D02*
G01*
X132926995Y-56789820D01*
X132961554Y-56808292D01*
X132991847Y-56833153D01*
X133016708Y-56863446D01*
X133035180Y-56898005D01*
X133046555Y-56935501D01*
X133051000Y-56980638D01*
X133051000Y-57619362D01*
X133046555Y-57664499D01*
X133035180Y-57701995D01*
X133016708Y-57736554D01*
X132991847Y-57766847D01*
X132961554Y-57791708D01*
X132926995Y-57810180D01*
X132889499Y-57821555D01*
X132844362Y-57826000D01*
X132105638Y-57826000D01*
X132060501Y-57821555D01*
X132023005Y-57810180D01*
X131988446Y-57791708D01*
X131958153Y-57766847D01*
X131933292Y-57736554D01*
X131914820Y-57701995D01*
X131903445Y-57664499D01*
X131899000Y-57619362D01*
X131899000Y-56980638D01*
X131903445Y-56935501D01*
X131914820Y-56898005D01*
X131933292Y-56863446D01*
X131958153Y-56833153D01*
X131988446Y-56808292D01*
X132023005Y-56789820D01*
X132060501Y-56778445D01*
X132105638Y-56774000D01*
X132844362Y-56774000D01*
X132889499Y-56778445D01*
X132889499Y-56778445D01*
G37*
G36*
X131139499Y-56778445D02*
G01*
X131176995Y-56789820D01*
X131211554Y-56808292D01*
X131241847Y-56833153D01*
X131266708Y-56863446D01*
X131285180Y-56898005D01*
X131296555Y-56935501D01*
X131301000Y-56980638D01*
X131301000Y-57619362D01*
X131296555Y-57664499D01*
X131285180Y-57701995D01*
X131266708Y-57736554D01*
X131241847Y-57766847D01*
X131211554Y-57791708D01*
X131176995Y-57810180D01*
X131139499Y-57821555D01*
X131094362Y-57826000D01*
X130355638Y-57826000D01*
X130310501Y-57821555D01*
X130273005Y-57810180D01*
X130238446Y-57791708D01*
X130208153Y-57766847D01*
X130183292Y-57736554D01*
X130164820Y-57701995D01*
X130153445Y-57664499D01*
X130149000Y-57619362D01*
X130149000Y-56980638D01*
X130153445Y-56935501D01*
X130164820Y-56898005D01*
X130183292Y-56863446D01*
X130208153Y-56833153D01*
X130238446Y-56808292D01*
X130273005Y-56789820D01*
X130310501Y-56778445D01*
X130355638Y-56774000D01*
X131094362Y-56774000D01*
X131139499Y-56778445D01*
X131139499Y-56778445D01*
G37*
G36*
X96579294Y-53758633D02*
G01*
X96751695Y-53810931D01*
X96910583Y-53895858D01*
X97049849Y-54010151D01*
X97164142Y-54149417D01*
X97249069Y-54308305D01*
X97301367Y-54480706D01*
X97319025Y-54660000D01*
X97301367Y-54839294D01*
X97249069Y-55011695D01*
X97164142Y-55170583D01*
X97049849Y-55309849D01*
X96910583Y-55424142D01*
X96751695Y-55509069D01*
X96579294Y-55561367D01*
X96444931Y-55574600D01*
X96355069Y-55574600D01*
X96220706Y-55561367D01*
X96048305Y-55509069D01*
X95889417Y-55424142D01*
X95750151Y-55309849D01*
X95635858Y-55170583D01*
X95550931Y-55011695D01*
X95498633Y-54839294D01*
X95480975Y-54660000D01*
X95498633Y-54480706D01*
X95550931Y-54308305D01*
X95635858Y-54149417D01*
X95750151Y-54010151D01*
X95889417Y-53895858D01*
X96048305Y-53810931D01*
X96220706Y-53758633D01*
X96355069Y-53745400D01*
X96444931Y-53745400D01*
X96579294Y-53758633D01*
X96579294Y-53758633D01*
G37*
G36*
X134979294Y-53758633D02*
G01*
X135151695Y-53810931D01*
X135310583Y-53895858D01*
X135449849Y-54010151D01*
X135564142Y-54149417D01*
X135649069Y-54308305D01*
X135701367Y-54480706D01*
X135719025Y-54660000D01*
X135701367Y-54839294D01*
X135649069Y-55011695D01*
X135564142Y-55170583D01*
X135449849Y-55309849D01*
X135310583Y-55424142D01*
X135151695Y-55509069D01*
X134979294Y-55561367D01*
X134844931Y-55574600D01*
X134755069Y-55574600D01*
X134620706Y-55561367D01*
X134448305Y-55509069D01*
X134289417Y-55424142D01*
X134150151Y-55309849D01*
X134035858Y-55170583D01*
X133950931Y-55011695D01*
X133898633Y-54839294D01*
X133880975Y-54660000D01*
X133898633Y-54480706D01*
X133950931Y-54308305D01*
X134035858Y-54149417D01*
X134150151Y-54010151D01*
X134289417Y-53895858D01*
X134448305Y-53810931D01*
X134620706Y-53758633D01*
X134755069Y-53745400D01*
X134844931Y-53745400D01*
X134979294Y-53758633D01*
X134979294Y-53758633D01*
G37*
G36*
X137519294Y-53758633D02*
G01*
X137691695Y-53810931D01*
X137850583Y-53895858D01*
X137989849Y-54010151D01*
X138104142Y-54149417D01*
X138189069Y-54308305D01*
X138241367Y-54480706D01*
X138259025Y-54660000D01*
X138241367Y-54839294D01*
X138189069Y-55011695D01*
X138104142Y-55170583D01*
X137989849Y-55309849D01*
X137850583Y-55424142D01*
X137691695Y-55509069D01*
X137519294Y-55561367D01*
X137384931Y-55574600D01*
X137295069Y-55574600D01*
X137160706Y-55561367D01*
X136988305Y-55509069D01*
X136829417Y-55424142D01*
X136690151Y-55309849D01*
X136575858Y-55170583D01*
X136490931Y-55011695D01*
X136438633Y-54839294D01*
X136420975Y-54660000D01*
X136438633Y-54480706D01*
X136490931Y-54308305D01*
X136575858Y-54149417D01*
X136690151Y-54010151D01*
X136829417Y-53895858D01*
X136988305Y-53810931D01*
X137160706Y-53758633D01*
X137295069Y-53745400D01*
X137384931Y-53745400D01*
X137519294Y-53758633D01*
X137519294Y-53758633D01*
G37*
G36*
X99119294Y-53758633D02*
G01*
X99291695Y-53810931D01*
X99450583Y-53895858D01*
X99589849Y-54010151D01*
X99704142Y-54149417D01*
X99789069Y-54308305D01*
X99841367Y-54480706D01*
X99859025Y-54660000D01*
X99841367Y-54839294D01*
X99789069Y-55011695D01*
X99704142Y-55170583D01*
X99589849Y-55309849D01*
X99450583Y-55424142D01*
X99291695Y-55509069D01*
X99119294Y-55561367D01*
X98984931Y-55574600D01*
X98895069Y-55574600D01*
X98760706Y-55561367D01*
X98588305Y-55509069D01*
X98429417Y-55424142D01*
X98290151Y-55309849D01*
X98175858Y-55170583D01*
X98090931Y-55011695D01*
X98038633Y-54839294D01*
X98020975Y-54660000D01*
X98038633Y-54480706D01*
X98090931Y-54308305D01*
X98175858Y-54149417D01*
X98290151Y-54010151D01*
X98429417Y-53895858D01*
X98588305Y-53810931D01*
X98760706Y-53758633D01*
X98895069Y-53745400D01*
X98984931Y-53745400D01*
X99119294Y-53758633D01*
X99119294Y-53758633D01*
G37*
G36*
X117151000Y-53106796D02*
G01*
X117151000Y-54293204D01*
X113449000Y-54910204D01*
X113449000Y-52489796D01*
X117151000Y-53106796D01*
X117151000Y-53106796D01*
G37*
G36*
X122951000Y-54910204D02*
G01*
X119249000Y-54293204D01*
X119249000Y-53106796D01*
X122951000Y-52489796D01*
X122951000Y-54910204D01*
X122951000Y-54910204D01*
G37*
G36*
X110310443Y-51665519D02*
G01*
X110376627Y-51672037D01*
X110546466Y-51723557D01*
X110702991Y-51807222D01*
X110738729Y-51836552D01*
X110840186Y-51919814D01*
X110901084Y-51994020D01*
X110952778Y-52057009D01*
X110952779Y-52057011D01*
X111021561Y-52185691D01*
X111036443Y-52213534D01*
X111087963Y-52383373D01*
X111105359Y-52560000D01*
X111087963Y-52736627D01*
X111037799Y-52901995D01*
X111036442Y-52906468D01*
X111004168Y-52966847D01*
X110952778Y-53062991D01*
X110923448Y-53098729D01*
X110840186Y-53200186D01*
X110738729Y-53283448D01*
X110702991Y-53312778D01*
X110546466Y-53396443D01*
X110376627Y-53447963D01*
X110310442Y-53454482D01*
X110244260Y-53461000D01*
X110155740Y-53461000D01*
X110089558Y-53454482D01*
X110023373Y-53447963D01*
X109853534Y-53396443D01*
X109697009Y-53312778D01*
X109661271Y-53283448D01*
X109559814Y-53200186D01*
X109476552Y-53098729D01*
X109447222Y-53062991D01*
X109395832Y-52966847D01*
X109363558Y-52906468D01*
X109362201Y-52901995D01*
X109312037Y-52736627D01*
X109294641Y-52560000D01*
X109312037Y-52383373D01*
X109363557Y-52213534D01*
X109378440Y-52185691D01*
X109447221Y-52057011D01*
X109447222Y-52057009D01*
X109498916Y-51994020D01*
X109559814Y-51919814D01*
X109661271Y-51836552D01*
X109697009Y-51807222D01*
X109853534Y-51723557D01*
X110023373Y-51672037D01*
X110089558Y-51665518D01*
X110155740Y-51659000D01*
X110244260Y-51659000D01*
X110310443Y-51665519D01*
X110310443Y-51665519D01*
G37*
G36*
X99119294Y-51218633D02*
G01*
X99291695Y-51270931D01*
X99450583Y-51355858D01*
X99589849Y-51470151D01*
X99704142Y-51609417D01*
X99789069Y-51768305D01*
X99841367Y-51940706D01*
X99859025Y-52120000D01*
X99841367Y-52299294D01*
X99789069Y-52471695D01*
X99704142Y-52630583D01*
X99589849Y-52769849D01*
X99450583Y-52884142D01*
X99291695Y-52969069D01*
X99119294Y-53021367D01*
X98984931Y-53034600D01*
X98895069Y-53034600D01*
X98760706Y-53021367D01*
X98588305Y-52969069D01*
X98429417Y-52884142D01*
X98290151Y-52769849D01*
X98175858Y-52630583D01*
X98090931Y-52471695D01*
X98038633Y-52299294D01*
X98020975Y-52120000D01*
X98038633Y-51940706D01*
X98090931Y-51768305D01*
X98175858Y-51609417D01*
X98290151Y-51470151D01*
X98429417Y-51355858D01*
X98588305Y-51270931D01*
X98760706Y-51218633D01*
X98895069Y-51205400D01*
X98984931Y-51205400D01*
X99119294Y-51218633D01*
X99119294Y-51218633D01*
G37*
G36*
X137519294Y-51218633D02*
G01*
X137691695Y-51270931D01*
X137850583Y-51355858D01*
X137989849Y-51470151D01*
X138104142Y-51609417D01*
X138189069Y-51768305D01*
X138241367Y-51940706D01*
X138259025Y-52120000D01*
X138241367Y-52299294D01*
X138189069Y-52471695D01*
X138104142Y-52630583D01*
X137989849Y-52769849D01*
X137850583Y-52884142D01*
X137691695Y-52969069D01*
X137519294Y-53021367D01*
X137384931Y-53034600D01*
X137295069Y-53034600D01*
X137160706Y-53021367D01*
X136988305Y-52969069D01*
X136829417Y-52884142D01*
X136690151Y-52769849D01*
X136575858Y-52630583D01*
X136490931Y-52471695D01*
X136438633Y-52299294D01*
X136420975Y-52120000D01*
X136438633Y-51940706D01*
X136490931Y-51768305D01*
X136575858Y-51609417D01*
X136690151Y-51470151D01*
X136829417Y-51355858D01*
X136988305Y-51270931D01*
X137160706Y-51218633D01*
X137295069Y-51205400D01*
X137384931Y-51205400D01*
X137519294Y-51218633D01*
X137519294Y-51218633D01*
G37*
G36*
X134979294Y-51218633D02*
G01*
X135151695Y-51270931D01*
X135310583Y-51355858D01*
X135449849Y-51470151D01*
X135564142Y-51609417D01*
X135649069Y-51768305D01*
X135701367Y-51940706D01*
X135719025Y-52120000D01*
X135701367Y-52299294D01*
X135649069Y-52471695D01*
X135564142Y-52630583D01*
X135449849Y-52769849D01*
X135310583Y-52884142D01*
X135151695Y-52969069D01*
X134979294Y-53021367D01*
X134844931Y-53034600D01*
X134755069Y-53034600D01*
X134620706Y-53021367D01*
X134448305Y-52969069D01*
X134289417Y-52884142D01*
X134150151Y-52769849D01*
X134035858Y-52630583D01*
X133950931Y-52471695D01*
X133898633Y-52299294D01*
X133880975Y-52120000D01*
X133898633Y-51940706D01*
X133950931Y-51768305D01*
X134035858Y-51609417D01*
X134150151Y-51470151D01*
X134289417Y-51355858D01*
X134448305Y-51270931D01*
X134620706Y-51218633D01*
X134755069Y-51205400D01*
X134844931Y-51205400D01*
X134979294Y-51218633D01*
X134979294Y-51218633D01*
G37*
G36*
X96579294Y-51218633D02*
G01*
X96751695Y-51270931D01*
X96910583Y-51355858D01*
X97049849Y-51470151D01*
X97164142Y-51609417D01*
X97249069Y-51768305D01*
X97301367Y-51940706D01*
X97319025Y-52120000D01*
X97301367Y-52299294D01*
X97249069Y-52471695D01*
X97164142Y-52630583D01*
X97049849Y-52769849D01*
X96910583Y-52884142D01*
X96751695Y-52969069D01*
X96579294Y-53021367D01*
X96444931Y-53034600D01*
X96355069Y-53034600D01*
X96220706Y-53021367D01*
X96048305Y-52969069D01*
X95889417Y-52884142D01*
X95750151Y-52769849D01*
X95635858Y-52630583D01*
X95550931Y-52471695D01*
X95498633Y-52299294D01*
X95480975Y-52120000D01*
X95498633Y-51940706D01*
X95550931Y-51768305D01*
X95635858Y-51609417D01*
X95750151Y-51470151D01*
X95889417Y-51355858D01*
X96048305Y-51270931D01*
X96220706Y-51218633D01*
X96355069Y-51205400D01*
X96444931Y-51205400D01*
X96579294Y-51218633D01*
X96579294Y-51218633D01*
G37*
G36*
X132889499Y-51978445D02*
G01*
X132926995Y-51989820D01*
X132961554Y-52008292D01*
X132991847Y-52033153D01*
X133016708Y-52063446D01*
X133035180Y-52098005D01*
X133046555Y-52135501D01*
X133051000Y-52180638D01*
X133051000Y-52819362D01*
X133046555Y-52864499D01*
X133035180Y-52901995D01*
X133016708Y-52936554D01*
X132991847Y-52966847D01*
X132961554Y-52991708D01*
X132926995Y-53010180D01*
X132889499Y-53021555D01*
X132844362Y-53026000D01*
X132105638Y-53026000D01*
X132060501Y-53021555D01*
X132023005Y-53010180D01*
X131988446Y-52991708D01*
X131958153Y-52966847D01*
X131933292Y-52936554D01*
X131914820Y-52901995D01*
X131903445Y-52864499D01*
X131899000Y-52819362D01*
X131899000Y-52180638D01*
X131903445Y-52135501D01*
X131914820Y-52098005D01*
X131933292Y-52063446D01*
X131958153Y-52033153D01*
X131988446Y-52008292D01*
X132023005Y-51989820D01*
X132060501Y-51978445D01*
X132105638Y-51974000D01*
X132844362Y-51974000D01*
X132889499Y-51978445D01*
X132889499Y-51978445D01*
G37*
G36*
X131139499Y-51978445D02*
G01*
X131176995Y-51989820D01*
X131211554Y-52008292D01*
X131241847Y-52033153D01*
X131266708Y-52063446D01*
X131285180Y-52098005D01*
X131296555Y-52135501D01*
X131301000Y-52180638D01*
X131301000Y-52819362D01*
X131296555Y-52864499D01*
X131285180Y-52901995D01*
X131266708Y-52936554D01*
X131241847Y-52966847D01*
X131211554Y-52991708D01*
X131176995Y-53010180D01*
X131139499Y-53021555D01*
X131094362Y-53026000D01*
X130355638Y-53026000D01*
X130310501Y-53021555D01*
X130273005Y-53010180D01*
X130238446Y-52991708D01*
X130208153Y-52966847D01*
X130183292Y-52936554D01*
X130164820Y-52901995D01*
X130153445Y-52864499D01*
X130149000Y-52819362D01*
X130149000Y-52180638D01*
X130153445Y-52135501D01*
X130164820Y-52098005D01*
X130183292Y-52063446D01*
X130208153Y-52033153D01*
X130238446Y-52008292D01*
X130273005Y-51989820D01*
X130310501Y-51978445D01*
X130355638Y-51974000D01*
X131094362Y-51974000D01*
X131139499Y-51978445D01*
X131139499Y-51978445D01*
G37*
G36*
X110310443Y-49125519D02*
G01*
X110376627Y-49132037D01*
X110546466Y-49183557D01*
X110702991Y-49267222D01*
X110719338Y-49280638D01*
X110840186Y-49379814D01*
X110923448Y-49481271D01*
X110952778Y-49517009D01*
X111036443Y-49673534D01*
X111087963Y-49843373D01*
X111105359Y-50020000D01*
X111087963Y-50196627D01*
X111036443Y-50366466D01*
X110952778Y-50522991D01*
X110923448Y-50558729D01*
X110840186Y-50660186D01*
X110738729Y-50743448D01*
X110702991Y-50772778D01*
X110546466Y-50856443D01*
X110376627Y-50907963D01*
X110310442Y-50914482D01*
X110244260Y-50921000D01*
X110155740Y-50921000D01*
X110089558Y-50914482D01*
X110023373Y-50907963D01*
X109853534Y-50856443D01*
X109697009Y-50772778D01*
X109661271Y-50743448D01*
X109559814Y-50660186D01*
X109476552Y-50558729D01*
X109447222Y-50522991D01*
X109363557Y-50366466D01*
X109312037Y-50196627D01*
X109294641Y-50020000D01*
X109312037Y-49843373D01*
X109363557Y-49673534D01*
X109447222Y-49517009D01*
X109476552Y-49481271D01*
X109559814Y-49379814D01*
X109680662Y-49280638D01*
X109697009Y-49267222D01*
X109853534Y-49183557D01*
X110023373Y-49132037D01*
X110089557Y-49125519D01*
X110155740Y-49119000D01*
X110244260Y-49119000D01*
X110310443Y-49125519D01*
X110310443Y-49125519D01*
G37*
G36*
X96579294Y-48678633D02*
G01*
X96751695Y-48730931D01*
X96910583Y-48815858D01*
X97049849Y-48930151D01*
X97164142Y-49069417D01*
X97249069Y-49228305D01*
X97301367Y-49400706D01*
X97319025Y-49580000D01*
X97301367Y-49759294D01*
X97249069Y-49931695D01*
X97164142Y-50090583D01*
X97049849Y-50229849D01*
X96910583Y-50344142D01*
X96751695Y-50429069D01*
X96579294Y-50481367D01*
X96444931Y-50494600D01*
X96355069Y-50494600D01*
X96220706Y-50481367D01*
X96048305Y-50429069D01*
X95889417Y-50344142D01*
X95750151Y-50229849D01*
X95635858Y-50090583D01*
X95550931Y-49931695D01*
X95498633Y-49759294D01*
X95480975Y-49580000D01*
X95498633Y-49400706D01*
X95550931Y-49228305D01*
X95635858Y-49069417D01*
X95750151Y-48930151D01*
X95889417Y-48815858D01*
X96048305Y-48730931D01*
X96220706Y-48678633D01*
X96355069Y-48665400D01*
X96444931Y-48665400D01*
X96579294Y-48678633D01*
X96579294Y-48678633D01*
G37*
G36*
X99119294Y-48678633D02*
G01*
X99291695Y-48730931D01*
X99450583Y-48815858D01*
X99589849Y-48930151D01*
X99704142Y-49069417D01*
X99789069Y-49228305D01*
X99841367Y-49400706D01*
X99859025Y-49580000D01*
X99841367Y-49759294D01*
X99789069Y-49931695D01*
X99704142Y-50090583D01*
X99589849Y-50229849D01*
X99450583Y-50344142D01*
X99291695Y-50429069D01*
X99119294Y-50481367D01*
X98984931Y-50494600D01*
X98895069Y-50494600D01*
X98760706Y-50481367D01*
X98588305Y-50429069D01*
X98429417Y-50344142D01*
X98290151Y-50229849D01*
X98175858Y-50090583D01*
X98090931Y-49931695D01*
X98038633Y-49759294D01*
X98020975Y-49580000D01*
X98038633Y-49400706D01*
X98090931Y-49228305D01*
X98175858Y-49069417D01*
X98290151Y-48930151D01*
X98429417Y-48815858D01*
X98588305Y-48730931D01*
X98760706Y-48678633D01*
X98895069Y-48665400D01*
X98984931Y-48665400D01*
X99119294Y-48678633D01*
X99119294Y-48678633D01*
G37*
G36*
X134979294Y-48678633D02*
G01*
X135151695Y-48730931D01*
X135310583Y-48815858D01*
X135449849Y-48930151D01*
X135564142Y-49069417D01*
X135649069Y-49228305D01*
X135701367Y-49400706D01*
X135719025Y-49580000D01*
X135701367Y-49759294D01*
X135649069Y-49931695D01*
X135564142Y-50090583D01*
X135449849Y-50229849D01*
X135310583Y-50344142D01*
X135151695Y-50429069D01*
X134979294Y-50481367D01*
X134844931Y-50494600D01*
X134755069Y-50494600D01*
X134620706Y-50481367D01*
X134448305Y-50429069D01*
X134289417Y-50344142D01*
X134150151Y-50229849D01*
X134035858Y-50090583D01*
X133950931Y-49931695D01*
X133898633Y-49759294D01*
X133880975Y-49580000D01*
X133898633Y-49400706D01*
X133950931Y-49228305D01*
X134035858Y-49069417D01*
X134150151Y-48930151D01*
X134289417Y-48815858D01*
X134448305Y-48730931D01*
X134620706Y-48678633D01*
X134755069Y-48665400D01*
X134844931Y-48665400D01*
X134979294Y-48678633D01*
X134979294Y-48678633D01*
G37*
G36*
X137519294Y-48678633D02*
G01*
X137691695Y-48730931D01*
X137850583Y-48815858D01*
X137989849Y-48930151D01*
X138104142Y-49069417D01*
X138189069Y-49228305D01*
X138241367Y-49400706D01*
X138259025Y-49580000D01*
X138241367Y-49759294D01*
X138189069Y-49931695D01*
X138104142Y-50090583D01*
X137989849Y-50229849D01*
X137850583Y-50344142D01*
X137691695Y-50429069D01*
X137519294Y-50481367D01*
X137384931Y-50494600D01*
X137295069Y-50494600D01*
X137160706Y-50481367D01*
X136988305Y-50429069D01*
X136829417Y-50344142D01*
X136690151Y-50229849D01*
X136575858Y-50090583D01*
X136490931Y-49931695D01*
X136438633Y-49759294D01*
X136420975Y-49580000D01*
X136438633Y-49400706D01*
X136490931Y-49228305D01*
X136575858Y-49069417D01*
X136690151Y-48930151D01*
X136829417Y-48815858D01*
X136988305Y-48730931D01*
X137160706Y-48678633D01*
X137295069Y-48665400D01*
X137384931Y-48665400D01*
X137519294Y-48678633D01*
X137519294Y-48678633D01*
G37*
G36*
X119326823Y-48781313D02*
G01*
X119487242Y-48829976D01*
X119619906Y-48900886D01*
X119635078Y-48908996D01*
X119764659Y-49015341D01*
X119871004Y-49144922D01*
X119871005Y-49144924D01*
X119950024Y-49292758D01*
X119998687Y-49453177D01*
X120015117Y-49620000D01*
X119998687Y-49786823D01*
X119950024Y-49947242D01*
X119895650Y-50048969D01*
X119871004Y-50095078D01*
X119764659Y-50224659D01*
X119635078Y-50331004D01*
X119635076Y-50331005D01*
X119487242Y-50410024D01*
X119326823Y-50458687D01*
X119201804Y-50471000D01*
X119118196Y-50471000D01*
X118993177Y-50458687D01*
X118832758Y-50410024D01*
X118684924Y-50331005D01*
X118684922Y-50331004D01*
X118555341Y-50224659D01*
X118448996Y-50095078D01*
X118424350Y-50048969D01*
X118369976Y-49947242D01*
X118321313Y-49786823D01*
X118304883Y-49620000D01*
X118321313Y-49453177D01*
X118369976Y-49292758D01*
X118448995Y-49144924D01*
X118448996Y-49144922D01*
X118555341Y-49015341D01*
X118684922Y-48908996D01*
X118700094Y-48900886D01*
X118832758Y-48829976D01*
X118993177Y-48781313D01*
X119118196Y-48769000D01*
X119201804Y-48769000D01*
X119326823Y-48781313D01*
X119326823Y-48781313D01*
G37*
G36*
X121866823Y-48781313D02*
G01*
X122027242Y-48829976D01*
X122159906Y-48900886D01*
X122175078Y-48908996D01*
X122304659Y-49015341D01*
X122411004Y-49144922D01*
X122411005Y-49144924D01*
X122490024Y-49292758D01*
X122538687Y-49453177D01*
X122555117Y-49620000D01*
X122538687Y-49786823D01*
X122490024Y-49947242D01*
X122435650Y-50048969D01*
X122411004Y-50095078D01*
X122304659Y-50224659D01*
X122175078Y-50331004D01*
X122175076Y-50331005D01*
X122027242Y-50410024D01*
X121866823Y-50458687D01*
X121741804Y-50471000D01*
X121658196Y-50471000D01*
X121533177Y-50458687D01*
X121372758Y-50410024D01*
X121224924Y-50331005D01*
X121224922Y-50331004D01*
X121095341Y-50224659D01*
X120988996Y-50095078D01*
X120964350Y-50048969D01*
X120909976Y-49947242D01*
X120861313Y-49786823D01*
X120844883Y-49620000D01*
X120861313Y-49453177D01*
X120909976Y-49292758D01*
X120988995Y-49144924D01*
X120988996Y-49144922D01*
X121095341Y-49015341D01*
X121224922Y-48908996D01*
X121240094Y-48900886D01*
X121372758Y-48829976D01*
X121533177Y-48781313D01*
X121658196Y-48769000D01*
X121741804Y-48769000D01*
X121866823Y-48781313D01*
X121866823Y-48781313D01*
G37*
G36*
X116786823Y-48781313D02*
G01*
X116947242Y-48829976D01*
X117079906Y-48900886D01*
X117095078Y-48908996D01*
X117224659Y-49015341D01*
X117331004Y-49144922D01*
X117331005Y-49144924D01*
X117410024Y-49292758D01*
X117458687Y-49453177D01*
X117475117Y-49620000D01*
X117458687Y-49786823D01*
X117410024Y-49947242D01*
X117355650Y-50048969D01*
X117331004Y-50095078D01*
X117224659Y-50224659D01*
X117095078Y-50331004D01*
X117095076Y-50331005D01*
X116947242Y-50410024D01*
X116786823Y-50458687D01*
X116661804Y-50471000D01*
X116578196Y-50471000D01*
X116453177Y-50458687D01*
X116292758Y-50410024D01*
X116144924Y-50331005D01*
X116144922Y-50331004D01*
X116015341Y-50224659D01*
X115908996Y-50095078D01*
X115884350Y-50048969D01*
X115829976Y-49947242D01*
X115781313Y-49786823D01*
X115764883Y-49620000D01*
X115781313Y-49453177D01*
X115829976Y-49292758D01*
X115908995Y-49144924D01*
X115908996Y-49144922D01*
X116015341Y-49015341D01*
X116144922Y-48908996D01*
X116160094Y-48900886D01*
X116292758Y-48829976D01*
X116453177Y-48781313D01*
X116578196Y-48769000D01*
X116661804Y-48769000D01*
X116786823Y-48781313D01*
X116786823Y-48781313D01*
G37*
G36*
X132889499Y-49078445D02*
G01*
X132926995Y-49089820D01*
X132961554Y-49108292D01*
X132991847Y-49133153D01*
X133016708Y-49163446D01*
X133035180Y-49198005D01*
X133046555Y-49235501D01*
X133051000Y-49280638D01*
X133051000Y-49919362D01*
X133046555Y-49964499D01*
X133035180Y-50001995D01*
X133016708Y-50036554D01*
X132991847Y-50066847D01*
X132961554Y-50091708D01*
X132926995Y-50110180D01*
X132889499Y-50121555D01*
X132844362Y-50126000D01*
X132105638Y-50126000D01*
X132060501Y-50121555D01*
X132023005Y-50110180D01*
X131988446Y-50091708D01*
X131958153Y-50066847D01*
X131933292Y-50036554D01*
X131914820Y-50001995D01*
X131903445Y-49964499D01*
X131899000Y-49919362D01*
X131899000Y-49280638D01*
X131903445Y-49235501D01*
X131914820Y-49198005D01*
X131933292Y-49163446D01*
X131958153Y-49133153D01*
X131988446Y-49108292D01*
X132023005Y-49089820D01*
X132060501Y-49078445D01*
X132105638Y-49074000D01*
X132844362Y-49074000D01*
X132889499Y-49078445D01*
X132889499Y-49078445D01*
G37*
G36*
X131139499Y-49078445D02*
G01*
X131176995Y-49089820D01*
X131211554Y-49108292D01*
X131241847Y-49133153D01*
X131266708Y-49163446D01*
X131285180Y-49198005D01*
X131296555Y-49235501D01*
X131301000Y-49280638D01*
X131301000Y-49919362D01*
X131296555Y-49964499D01*
X131285180Y-50001995D01*
X131266708Y-50036554D01*
X131241847Y-50066847D01*
X131211554Y-50091708D01*
X131176995Y-50110180D01*
X131139499Y-50121555D01*
X131094362Y-50126000D01*
X130355638Y-50126000D01*
X130310501Y-50121555D01*
X130273005Y-50110180D01*
X130238446Y-50091708D01*
X130208153Y-50066847D01*
X130183292Y-50036554D01*
X130164820Y-50001995D01*
X130153445Y-49964499D01*
X130149000Y-49919362D01*
X130149000Y-49280638D01*
X130153445Y-49235501D01*
X130164820Y-49198005D01*
X130183292Y-49163446D01*
X130208153Y-49133153D01*
X130238446Y-49108292D01*
X130273005Y-49089820D01*
X130310501Y-49078445D01*
X130355638Y-49074000D01*
X131094362Y-49074000D01*
X131139499Y-49078445D01*
X131139499Y-49078445D01*
G37*
G36*
X110310443Y-46585519D02*
G01*
X110376627Y-46592037D01*
X110546466Y-46643557D01*
X110702991Y-46727222D01*
X110738729Y-46756552D01*
X110840186Y-46839814D01*
X110923448Y-46941271D01*
X110952778Y-46977009D01*
X111036443Y-47133534D01*
X111087963Y-47303373D01*
X111105359Y-47480000D01*
X111087963Y-47656627D01*
X111036443Y-47826466D01*
X110952778Y-47982991D01*
X110923448Y-48018729D01*
X110840186Y-48120186D01*
X110738729Y-48203448D01*
X110702991Y-48232778D01*
X110546466Y-48316443D01*
X110376627Y-48367963D01*
X110310443Y-48374481D01*
X110244260Y-48381000D01*
X110155740Y-48381000D01*
X110089557Y-48374481D01*
X110023373Y-48367963D01*
X109853534Y-48316443D01*
X109697009Y-48232778D01*
X109661271Y-48203448D01*
X109559814Y-48120186D01*
X109476552Y-48018729D01*
X109447222Y-47982991D01*
X109363557Y-47826466D01*
X109312037Y-47656627D01*
X109294641Y-47480000D01*
X109312037Y-47303373D01*
X109363557Y-47133534D01*
X109447222Y-46977009D01*
X109476552Y-46941271D01*
X109559814Y-46839814D01*
X109661271Y-46756552D01*
X109697009Y-46727222D01*
X109853534Y-46643557D01*
X110023373Y-46592037D01*
X110089557Y-46585519D01*
X110155740Y-46579000D01*
X110244260Y-46579000D01*
X110310443Y-46585519D01*
X110310443Y-46585519D01*
G37*
G36*
X134979294Y-46138633D02*
G01*
X135151695Y-46190931D01*
X135310583Y-46275858D01*
X135449849Y-46390151D01*
X135564142Y-46529417D01*
X135649069Y-46688305D01*
X135701367Y-46860706D01*
X135719025Y-47040000D01*
X135701367Y-47219294D01*
X135649069Y-47391695D01*
X135564142Y-47550583D01*
X135449849Y-47689849D01*
X135310583Y-47804142D01*
X135151695Y-47889069D01*
X134979294Y-47941367D01*
X134844931Y-47954600D01*
X134755069Y-47954600D01*
X134620706Y-47941367D01*
X134448305Y-47889069D01*
X134289417Y-47804142D01*
X134150151Y-47689849D01*
X134035858Y-47550583D01*
X133950931Y-47391695D01*
X133898633Y-47219294D01*
X133880975Y-47040000D01*
X133898633Y-46860706D01*
X133950931Y-46688305D01*
X134035858Y-46529417D01*
X134150151Y-46390151D01*
X134289417Y-46275858D01*
X134448305Y-46190931D01*
X134620706Y-46138633D01*
X134755069Y-46125400D01*
X134844931Y-46125400D01*
X134979294Y-46138633D01*
X134979294Y-46138633D01*
G37*
G36*
X96579294Y-46138633D02*
G01*
X96751695Y-46190931D01*
X96910583Y-46275858D01*
X97049849Y-46390151D01*
X97164142Y-46529417D01*
X97249069Y-46688305D01*
X97301367Y-46860706D01*
X97319025Y-47040000D01*
X97301367Y-47219294D01*
X97249069Y-47391695D01*
X97164142Y-47550583D01*
X97049849Y-47689849D01*
X96910583Y-47804142D01*
X96751695Y-47889069D01*
X96579294Y-47941367D01*
X96444931Y-47954600D01*
X96355069Y-47954600D01*
X96220706Y-47941367D01*
X96048305Y-47889069D01*
X95889417Y-47804142D01*
X95750151Y-47689849D01*
X95635858Y-47550583D01*
X95550931Y-47391695D01*
X95498633Y-47219294D01*
X95480975Y-47040000D01*
X95498633Y-46860706D01*
X95550931Y-46688305D01*
X95635858Y-46529417D01*
X95750151Y-46390151D01*
X95889417Y-46275858D01*
X96048305Y-46190931D01*
X96220706Y-46138633D01*
X96355069Y-46125400D01*
X96444931Y-46125400D01*
X96579294Y-46138633D01*
X96579294Y-46138633D01*
G37*
G36*
X99119294Y-46138633D02*
G01*
X99291695Y-46190931D01*
X99450583Y-46275858D01*
X99589849Y-46390151D01*
X99704142Y-46529417D01*
X99789069Y-46688305D01*
X99841367Y-46860706D01*
X99859025Y-47040000D01*
X99841367Y-47219294D01*
X99789069Y-47391695D01*
X99704142Y-47550583D01*
X99589849Y-47689849D01*
X99450583Y-47804142D01*
X99291695Y-47889069D01*
X99119294Y-47941367D01*
X98984931Y-47954600D01*
X98895069Y-47954600D01*
X98760706Y-47941367D01*
X98588305Y-47889069D01*
X98429417Y-47804142D01*
X98290151Y-47689849D01*
X98175858Y-47550583D01*
X98090931Y-47391695D01*
X98038633Y-47219294D01*
X98020975Y-47040000D01*
X98038633Y-46860706D01*
X98090931Y-46688305D01*
X98175858Y-46529417D01*
X98290151Y-46390151D01*
X98429417Y-46275858D01*
X98588305Y-46190931D01*
X98760706Y-46138633D01*
X98895069Y-46125400D01*
X98984931Y-46125400D01*
X99119294Y-46138633D01*
X99119294Y-46138633D01*
G37*
G36*
X137519294Y-46138633D02*
G01*
X137691695Y-46190931D01*
X137850583Y-46275858D01*
X137989849Y-46390151D01*
X138104142Y-46529417D01*
X138189069Y-46688305D01*
X138241367Y-46860706D01*
X138259025Y-47040000D01*
X138241367Y-47219294D01*
X138189069Y-47391695D01*
X138104142Y-47550583D01*
X137989849Y-47689849D01*
X137850583Y-47804142D01*
X137691695Y-47889069D01*
X137519294Y-47941367D01*
X137384931Y-47954600D01*
X137295069Y-47954600D01*
X137160706Y-47941367D01*
X136988305Y-47889069D01*
X136829417Y-47804142D01*
X136690151Y-47689849D01*
X136575858Y-47550583D01*
X136490931Y-47391695D01*
X136438633Y-47219294D01*
X136420975Y-47040000D01*
X136438633Y-46860706D01*
X136490931Y-46688305D01*
X136575858Y-46529417D01*
X136690151Y-46390151D01*
X136829417Y-46275858D01*
X136988305Y-46190931D01*
X137160706Y-46138633D01*
X137295069Y-46125400D01*
X137384931Y-46125400D01*
X137519294Y-46138633D01*
X137519294Y-46138633D01*
G37*
G36*
X110310443Y-44045519D02*
G01*
X110376627Y-44052037D01*
X110546466Y-44103557D01*
X110546468Y-44103558D01*
X110574091Y-44118323D01*
X110702991Y-44187222D01*
X110707454Y-44190885D01*
X110840186Y-44299814D01*
X110923448Y-44401271D01*
X110952778Y-44437009D01*
X111036443Y-44593534D01*
X111087963Y-44763373D01*
X111105359Y-44940000D01*
X111087963Y-45116627D01*
X111036443Y-45286466D01*
X110952778Y-45442991D01*
X110923448Y-45478729D01*
X110840186Y-45580186D01*
X110738729Y-45663448D01*
X110702991Y-45692778D01*
X110546466Y-45776443D01*
X110376627Y-45827963D01*
X110310443Y-45834481D01*
X110244260Y-45841000D01*
X110155740Y-45841000D01*
X110089558Y-45834482D01*
X110023373Y-45827963D01*
X109853534Y-45776443D01*
X109697009Y-45692778D01*
X109661271Y-45663448D01*
X109559814Y-45580186D01*
X109476552Y-45478729D01*
X109447222Y-45442991D01*
X109363557Y-45286466D01*
X109312037Y-45116627D01*
X109294641Y-44940000D01*
X109312037Y-44763373D01*
X109363557Y-44593534D01*
X109447222Y-44437009D01*
X109476552Y-44401271D01*
X109559814Y-44299814D01*
X109692546Y-44190885D01*
X109697009Y-44187222D01*
X109825909Y-44118323D01*
X109853532Y-44103558D01*
X109853534Y-44103557D01*
X110023373Y-44052037D01*
X110089557Y-44045519D01*
X110155740Y-44039000D01*
X110244260Y-44039000D01*
X110310443Y-44045519D01*
X110310443Y-44045519D01*
G37*
G36*
X97314600Y-45414600D02*
G01*
X95485400Y-45414600D01*
X95485400Y-43585400D01*
X97314600Y-43585400D01*
X97314600Y-45414600D01*
X97314600Y-45414600D01*
G37*
G36*
X137519294Y-43598633D02*
G01*
X137691695Y-43650931D01*
X137850583Y-43735858D01*
X137989849Y-43850151D01*
X138104142Y-43989417D01*
X138189069Y-44148305D01*
X138241367Y-44320706D01*
X138259025Y-44500000D01*
X138241367Y-44679294D01*
X138189069Y-44851695D01*
X138104142Y-45010583D01*
X137989849Y-45149849D01*
X137850583Y-45264142D01*
X137691695Y-45349069D01*
X137519294Y-45401367D01*
X137384931Y-45414600D01*
X137295069Y-45414600D01*
X137160706Y-45401367D01*
X136988305Y-45349069D01*
X136829417Y-45264142D01*
X136690151Y-45149849D01*
X136575858Y-45010583D01*
X136490931Y-44851695D01*
X136438633Y-44679294D01*
X136420975Y-44500000D01*
X136438633Y-44320706D01*
X136490931Y-44148305D01*
X136575858Y-43989417D01*
X136690151Y-43850151D01*
X136829417Y-43735858D01*
X136988305Y-43650931D01*
X137160706Y-43598633D01*
X137295069Y-43585400D01*
X137384931Y-43585400D01*
X137519294Y-43598633D01*
X137519294Y-43598633D01*
G37*
G36*
X99119294Y-43598633D02*
G01*
X99291695Y-43650931D01*
X99450583Y-43735858D01*
X99589849Y-43850151D01*
X99704142Y-43989417D01*
X99789069Y-44148305D01*
X99841367Y-44320706D01*
X99859025Y-44500000D01*
X99841367Y-44679294D01*
X99789069Y-44851695D01*
X99704142Y-45010583D01*
X99589849Y-45149849D01*
X99450583Y-45264142D01*
X99291695Y-45349069D01*
X99119294Y-45401367D01*
X98984931Y-45414600D01*
X98895069Y-45414600D01*
X98760706Y-45401367D01*
X98588305Y-45349069D01*
X98429417Y-45264142D01*
X98290151Y-45149849D01*
X98175858Y-45010583D01*
X98090931Y-44851695D01*
X98038633Y-44679294D01*
X98020975Y-44500000D01*
X98038633Y-44320706D01*
X98090931Y-44148305D01*
X98175858Y-43989417D01*
X98290151Y-43850151D01*
X98429417Y-43735858D01*
X98588305Y-43650931D01*
X98760706Y-43598633D01*
X98895069Y-43585400D01*
X98984931Y-43585400D01*
X99119294Y-43598633D01*
X99119294Y-43598633D01*
G37*
G36*
X135714600Y-45414600D02*
G01*
X133885400Y-45414600D01*
X133885400Y-43585400D01*
X135714600Y-43585400D01*
X135714600Y-45414600D01*
X135714600Y-45414600D01*
G37*
G36*
X132889499Y-44078445D02*
G01*
X132926995Y-44089820D01*
X132961554Y-44108292D01*
X132991847Y-44133153D01*
X133016708Y-44163446D01*
X133035180Y-44198005D01*
X133046555Y-44235501D01*
X133051000Y-44280638D01*
X133051000Y-44919362D01*
X133046555Y-44964499D01*
X133035180Y-45001995D01*
X133016708Y-45036554D01*
X132991847Y-45066847D01*
X132961554Y-45091708D01*
X132926995Y-45110180D01*
X132889499Y-45121555D01*
X132844362Y-45126000D01*
X132105638Y-45126000D01*
X132060501Y-45121555D01*
X132023005Y-45110180D01*
X131988446Y-45091708D01*
X131958153Y-45066847D01*
X131933292Y-45036554D01*
X131914820Y-45001995D01*
X131903445Y-44964499D01*
X131899000Y-44919362D01*
X131899000Y-44280638D01*
X131903445Y-44235501D01*
X131914820Y-44198005D01*
X131933292Y-44163446D01*
X131958153Y-44133153D01*
X131988446Y-44108292D01*
X132023005Y-44089820D01*
X132060501Y-44078445D01*
X132105638Y-44074000D01*
X132844362Y-44074000D01*
X132889499Y-44078445D01*
X132889499Y-44078445D01*
G37*
G36*
X131139499Y-44078445D02*
G01*
X131176995Y-44089820D01*
X131211554Y-44108292D01*
X131241847Y-44133153D01*
X131266708Y-44163446D01*
X131285180Y-44198005D01*
X131296555Y-44235501D01*
X131301000Y-44280638D01*
X131301000Y-44919362D01*
X131296555Y-44964499D01*
X131285180Y-45001995D01*
X131266708Y-45036554D01*
X131241847Y-45066847D01*
X131211554Y-45091708D01*
X131176995Y-45110180D01*
X131139499Y-45121555D01*
X131094362Y-45126000D01*
X130355638Y-45126000D01*
X130310501Y-45121555D01*
X130273005Y-45110180D01*
X130238446Y-45091708D01*
X130208153Y-45066847D01*
X130183292Y-45036554D01*
X130164820Y-45001995D01*
X130153445Y-44964499D01*
X130149000Y-44919362D01*
X130149000Y-44280638D01*
X130153445Y-44235501D01*
X130164820Y-44198005D01*
X130183292Y-44163446D01*
X130208153Y-44133153D01*
X130238446Y-44108292D01*
X130273005Y-44089820D01*
X130310501Y-44078445D01*
X130355638Y-44074000D01*
X131094362Y-44074000D01*
X131139499Y-44078445D01*
X131139499Y-44078445D01*
G37*
G36*
X111101000Y-43301000D02*
G01*
X109299000Y-43301000D01*
X109299000Y-41499000D01*
X111101000Y-41499000D01*
X111101000Y-43301000D01*
X111101000Y-43301000D01*
G37*
G36*
X122551000Y-42851000D02*
G01*
X120849000Y-42851000D01*
X120849000Y-41149000D01*
X122551000Y-41149000D01*
X122551000Y-42851000D01*
X122551000Y-42851000D01*
G37*
G36*
X119326823Y-41161313D02*
G01*
X119487242Y-41209976D01*
X119619906Y-41280886D01*
X119635078Y-41288996D01*
X119764659Y-41395341D01*
X119871004Y-41524922D01*
X119871005Y-41524924D01*
X119950024Y-41672758D01*
X119998687Y-41833177D01*
X120015117Y-42000000D01*
X119998687Y-42166823D01*
X119950024Y-42327242D01*
X119879114Y-42459906D01*
X119871004Y-42475078D01*
X119764659Y-42604659D01*
X119635078Y-42711004D01*
X119635076Y-42711005D01*
X119487242Y-42790024D01*
X119326823Y-42838687D01*
X119201804Y-42851000D01*
X119118196Y-42851000D01*
X118993177Y-42838687D01*
X118832758Y-42790024D01*
X118684924Y-42711005D01*
X118684922Y-42711004D01*
X118555341Y-42604659D01*
X118448996Y-42475078D01*
X118440886Y-42459906D01*
X118369976Y-42327242D01*
X118321313Y-42166823D01*
X118304883Y-42000000D01*
X118321313Y-41833177D01*
X118369976Y-41672758D01*
X118448995Y-41524924D01*
X118448996Y-41524922D01*
X118555341Y-41395341D01*
X118684922Y-41288996D01*
X118700094Y-41280886D01*
X118832758Y-41209976D01*
X118993177Y-41161313D01*
X119118196Y-41149000D01*
X119201804Y-41149000D01*
X119326823Y-41161313D01*
X119326823Y-41161313D01*
G37*
G36*
X116786823Y-41161313D02*
G01*
X116947242Y-41209976D01*
X117079906Y-41280886D01*
X117095078Y-41288996D01*
X117224659Y-41395341D01*
X117331004Y-41524922D01*
X117331005Y-41524924D01*
X117410024Y-41672758D01*
X117458687Y-41833177D01*
X117475117Y-42000000D01*
X117458687Y-42166823D01*
X117410024Y-42327242D01*
X117339114Y-42459906D01*
X117331004Y-42475078D01*
X117224659Y-42604659D01*
X117095078Y-42711004D01*
X117095076Y-42711005D01*
X116947242Y-42790024D01*
X116786823Y-42838687D01*
X116661804Y-42851000D01*
X116578196Y-42851000D01*
X116453177Y-42838687D01*
X116292758Y-42790024D01*
X116144924Y-42711005D01*
X116144922Y-42711004D01*
X116015341Y-42604659D01*
X115908996Y-42475078D01*
X115900886Y-42459906D01*
X115829976Y-42327242D01*
X115781313Y-42166823D01*
X115764883Y-42000000D01*
X115781313Y-41833177D01*
X115829976Y-41672758D01*
X115908995Y-41524924D01*
X115908996Y-41524922D01*
X116015341Y-41395341D01*
X116144922Y-41288996D01*
X116160094Y-41280886D01*
X116292758Y-41209976D01*
X116453177Y-41161313D01*
X116578196Y-41149000D01*
X116661804Y-41149000D01*
X116786823Y-41161313D01*
X116786823Y-41161313D01*
G37*
M02*
