G04 #@! TF.GenerationSoftware,KiCad,Pcbnew,(5.1.0)-1*
G04 #@! TF.CreationDate,2020-04-23T00:52:51+08:00*
G04 #@! TF.ProjectId,IRController,4952436f-6e74-4726-9f6c-6c65722e6b69,rev?*
G04 #@! TF.SameCoordinates,Original*
G04 #@! TF.FileFunction,Legend,Bot*
G04 #@! TF.FilePolarity,Positive*
%FSLAX46Y46*%
G04 Gerber Fmt 4.6, Leading zero omitted, Abs format (unit mm)*
G04 Created by KiCad (PCBNEW (5.1.0)-1) date 2020-04-23 00:52:51*
%MOMM*%
%LPD*%
G04 APERTURE LIST*
%ADD10C,0.120000*%
%ADD11C,0.150000*%
G04 APERTURE END LIST*
D10*
X122210000Y-100038748D02*
X122210000Y-100561252D01*
X120790000Y-100038748D02*
X120790000Y-100561252D01*
X120210000Y-99953733D02*
X120210000Y-100296267D01*
X119190000Y-99953733D02*
X119190000Y-100296267D01*
X118728733Y-67790000D02*
X119071267Y-67790000D01*
X118728733Y-68810000D02*
X119071267Y-68810000D01*
X116410000Y-65128733D02*
X116410000Y-65471267D01*
X115390000Y-65128733D02*
X115390000Y-65471267D01*
X113328733Y-69690000D02*
X113671267Y-69690000D01*
X113328733Y-70710000D02*
X113671267Y-70710000D01*
X115271267Y-72810000D02*
X114928733Y-72810000D01*
X115271267Y-71790000D02*
X114928733Y-71790000D01*
X118728733Y-69490000D02*
X119071267Y-69490000D01*
X118728733Y-70510000D02*
X119071267Y-70510000D01*
X137502064Y-88810000D02*
X136297936Y-88810000D01*
X137502064Y-86990000D02*
X136297936Y-86990000D01*
X114038748Y-90590000D02*
X114561252Y-90590000D01*
X114038748Y-92010000D02*
X114561252Y-92010000D01*
X114038748Y-88190000D02*
X114561252Y-88190000D01*
X114038748Y-89610000D02*
X114561252Y-89610000D01*
X117190000Y-86661252D02*
X117190000Y-86138748D01*
X118610000Y-86661252D02*
X118610000Y-86138748D01*
X119190000Y-86602064D02*
X119190000Y-85397936D01*
X121010000Y-86602064D02*
X121010000Y-85397936D01*
X123050000Y-51550000D02*
X115500000Y-51550000D01*
X123050000Y-55850000D02*
X115500000Y-55850000D01*
X123050000Y-51550000D02*
X123050000Y-55850000D01*
X137080000Y-110760000D02*
X137080000Y-109300000D01*
X133920000Y-110760000D02*
X133920000Y-108600000D01*
X133920000Y-110760000D02*
X134850000Y-110760000D01*
X137080000Y-110760000D02*
X136150000Y-110760000D01*
X128390000Y-96761252D02*
X128390000Y-96238748D01*
X129810000Y-96761252D02*
X129810000Y-96238748D01*
X120661252Y-111510000D02*
X120138748Y-111510000D01*
X120661252Y-110090000D02*
X120138748Y-110090000D01*
X122210000Y-96238748D02*
X122210000Y-96761252D01*
X120790000Y-96238748D02*
X120790000Y-96761252D01*
X104588748Y-71140000D02*
X105111252Y-71140000D01*
X104588748Y-72560000D02*
X105111252Y-72560000D01*
X132790000Y-107148748D02*
X132790000Y-107671252D01*
X131370000Y-107148748D02*
X131370000Y-107671252D01*
X130300000Y-107168748D02*
X130300000Y-107691252D01*
X128880000Y-107168748D02*
X128880000Y-107691252D01*
X107211252Y-74610000D02*
X106688748Y-74610000D01*
X107211252Y-73190000D02*
X106688748Y-73190000D01*
X97961252Y-108310000D02*
X97438748Y-108310000D01*
X97961252Y-106890000D02*
X97438748Y-106890000D01*
X122538748Y-75090000D02*
X123061252Y-75090000D01*
X122538748Y-76510000D02*
X123061252Y-76510000D01*
X114761252Y-82490000D02*
X114238748Y-82490000D01*
X114761252Y-83910000D02*
X114238748Y-83910000D01*
X114761252Y-85910000D02*
X114238748Y-85910000D01*
X114761252Y-84490000D02*
X114238748Y-84490000D01*
X133197936Y-89390000D02*
X134402064Y-89390000D01*
X133197936Y-91210000D02*
X134402064Y-91210000D01*
D11*
X94250000Y-83425000D02*
X94250000Y-81900000D01*
X104625000Y-83425000D02*
X104625000Y-91175000D01*
X93975000Y-83425000D02*
X93975000Y-91175000D01*
X104625000Y-83425000D02*
X104270000Y-83425000D01*
X104625000Y-91175000D02*
X104270000Y-91175000D01*
X93975000Y-91175000D02*
X94330000Y-91175000D01*
X93975000Y-83425000D02*
X94250000Y-83425000D01*
D10*
X118100000Y-109560000D02*
X114650000Y-109560000D01*
X118100000Y-109560000D02*
X120050000Y-109560000D01*
X118100000Y-104440000D02*
X116150000Y-104440000D01*
X118100000Y-104440000D02*
X120050000Y-104440000D01*
D11*
X122875000Y-96325000D02*
X122875000Y-94925000D01*
X127975000Y-96325000D02*
X127975000Y-100475000D01*
X122825000Y-96325000D02*
X122825000Y-100475000D01*
X127975000Y-96325000D02*
X127830000Y-96325000D01*
X127975000Y-100475000D02*
X127830000Y-100475000D01*
X122825000Y-100475000D02*
X122970000Y-100475000D01*
X122825000Y-96325000D02*
X122875000Y-96325000D01*
D10*
X120310000Y-89400000D02*
X120310000Y-91850000D01*
X117090000Y-91200000D02*
X117090000Y-89400000D01*
X122796267Y-78110000D02*
X122453733Y-78110000D01*
X122796267Y-77090000D02*
X122453733Y-77090000D01*
X131428733Y-56790000D02*
X131771267Y-56790000D01*
X131428733Y-57810000D02*
X131771267Y-57810000D01*
X131428733Y-71890000D02*
X131771267Y-71890000D01*
X131428733Y-72910000D02*
X131771267Y-72910000D01*
X131428733Y-51990000D02*
X131771267Y-51990000D01*
X131428733Y-53010000D02*
X131771267Y-53010000D01*
X131428733Y-66990000D02*
X131771267Y-66990000D01*
X131428733Y-68010000D02*
X131771267Y-68010000D01*
X131428733Y-49090000D02*
X131771267Y-49090000D01*
X131428733Y-50110000D02*
X131771267Y-50110000D01*
X131428733Y-63890000D02*
X131771267Y-63890000D01*
X131428733Y-64910000D02*
X131771267Y-64910000D01*
X131428733Y-44090000D02*
X131771267Y-44090000D01*
X131428733Y-45110000D02*
X131771267Y-45110000D01*
X131428733Y-59290000D02*
X131771267Y-59290000D01*
X131428733Y-60310000D02*
X131771267Y-60310000D01*
X104638748Y-77390000D02*
X105161252Y-77390000D01*
X104638748Y-78810000D02*
X105161252Y-78810000D01*
X104638748Y-75390000D02*
X105161252Y-75390000D01*
X104638748Y-76810000D02*
X105161252Y-76810000D01*
D11*
X121997142Y-102983333D02*
X122044761Y-102935714D01*
X122092380Y-102792857D01*
X122092380Y-102697619D01*
X122044761Y-102554761D01*
X121949523Y-102459523D01*
X121854285Y-102411904D01*
X121663809Y-102364285D01*
X121520952Y-102364285D01*
X121330476Y-102411904D01*
X121235238Y-102459523D01*
X121140000Y-102554761D01*
X121092380Y-102697619D01*
X121092380Y-102792857D01*
X121140000Y-102935714D01*
X121187619Y-102983333D01*
X121092380Y-103316666D02*
X121092380Y-103935714D01*
X121473333Y-103602380D01*
X121473333Y-103745238D01*
X121520952Y-103840476D01*
X121568571Y-103888095D01*
X121663809Y-103935714D01*
X121901904Y-103935714D01*
X121997142Y-103888095D01*
X122044761Y-103840476D01*
X122092380Y-103745238D01*
X122092380Y-103459523D01*
X122044761Y-103364285D01*
X121997142Y-103316666D01*
X120007142Y-102563333D02*
X120054761Y-102515714D01*
X120102380Y-102372857D01*
X120102380Y-102277619D01*
X120054761Y-102134761D01*
X119959523Y-102039523D01*
X119864285Y-101991904D01*
X119673809Y-101944285D01*
X119530952Y-101944285D01*
X119340476Y-101991904D01*
X119245238Y-102039523D01*
X119150000Y-102134761D01*
X119102380Y-102277619D01*
X119102380Y-102372857D01*
X119150000Y-102515714D01*
X119197619Y-102563333D01*
X119435714Y-103420476D02*
X120102380Y-103420476D01*
X119054761Y-103182380D02*
X119769047Y-102944285D01*
X119769047Y-103563333D01*
X119016666Y-67157142D02*
X119064285Y-67204761D01*
X119207142Y-67252380D01*
X119302380Y-67252380D01*
X119445238Y-67204761D01*
X119540476Y-67109523D01*
X119588095Y-67014285D01*
X119635714Y-66823809D01*
X119635714Y-66680952D01*
X119588095Y-66490476D01*
X119540476Y-66395238D01*
X119445238Y-66300000D01*
X119302380Y-66252380D01*
X119207142Y-66252380D01*
X119064285Y-66300000D01*
X119016666Y-66347619D01*
X118683333Y-66252380D02*
X118016666Y-66252380D01*
X118445238Y-67252380D01*
X114827142Y-65133333D02*
X114874761Y-65085714D01*
X114922380Y-64942857D01*
X114922380Y-64847619D01*
X114874761Y-64704761D01*
X114779523Y-64609523D01*
X114684285Y-64561904D01*
X114493809Y-64514285D01*
X114350952Y-64514285D01*
X114160476Y-64561904D01*
X114065238Y-64609523D01*
X113970000Y-64704761D01*
X113922380Y-64847619D01*
X113922380Y-64942857D01*
X113970000Y-65085714D01*
X114017619Y-65133333D01*
X114350952Y-65704761D02*
X114303333Y-65609523D01*
X114255714Y-65561904D01*
X114160476Y-65514285D01*
X114112857Y-65514285D01*
X114017619Y-65561904D01*
X113970000Y-65609523D01*
X113922380Y-65704761D01*
X113922380Y-65895238D01*
X113970000Y-65990476D01*
X114017619Y-66038095D01*
X114112857Y-66085714D01*
X114160476Y-66085714D01*
X114255714Y-66038095D01*
X114303333Y-65990476D01*
X114350952Y-65895238D01*
X114350952Y-65704761D01*
X114398571Y-65609523D01*
X114446190Y-65561904D01*
X114541428Y-65514285D01*
X114731904Y-65514285D01*
X114827142Y-65561904D01*
X114874761Y-65609523D01*
X114922380Y-65704761D01*
X114922380Y-65895238D01*
X114874761Y-65990476D01*
X114827142Y-66038095D01*
X114731904Y-66085714D01*
X114541428Y-66085714D01*
X114446190Y-66038095D01*
X114398571Y-65990476D01*
X114350952Y-65895238D01*
X110036666Y-70477142D02*
X110084285Y-70524761D01*
X110227142Y-70572380D01*
X110322380Y-70572380D01*
X110465238Y-70524761D01*
X110560476Y-70429523D01*
X110608095Y-70334285D01*
X110655714Y-70143809D01*
X110655714Y-70000952D01*
X110608095Y-69810476D01*
X110560476Y-69715238D01*
X110465238Y-69620000D01*
X110322380Y-69572380D01*
X110227142Y-69572380D01*
X110084285Y-69620000D01*
X110036666Y-69667619D01*
X109560476Y-70572380D02*
X109370000Y-70572380D01*
X109274761Y-70524761D01*
X109227142Y-70477142D01*
X109131904Y-70334285D01*
X109084285Y-70143809D01*
X109084285Y-69762857D01*
X109131904Y-69667619D01*
X109179523Y-69620000D01*
X109274761Y-69572380D01*
X109465238Y-69572380D01*
X109560476Y-69620000D01*
X109608095Y-69667619D01*
X109655714Y-69762857D01*
X109655714Y-70000952D01*
X109608095Y-70096190D01*
X109560476Y-70143809D01*
X109465238Y-70191428D01*
X109274761Y-70191428D01*
X109179523Y-70143809D01*
X109131904Y-70096190D01*
X109084285Y-70000952D01*
X112712857Y-72677142D02*
X112760476Y-72724761D01*
X112903333Y-72772380D01*
X112998571Y-72772380D01*
X113141428Y-72724761D01*
X113236666Y-72629523D01*
X113284285Y-72534285D01*
X113331904Y-72343809D01*
X113331904Y-72200952D01*
X113284285Y-72010476D01*
X113236666Y-71915238D01*
X113141428Y-71820000D01*
X112998571Y-71772380D01*
X112903333Y-71772380D01*
X112760476Y-71820000D01*
X112712857Y-71867619D01*
X111760476Y-72772380D02*
X112331904Y-72772380D01*
X112046190Y-72772380D02*
X112046190Y-71772380D01*
X112141428Y-71915238D01*
X112236666Y-72010476D01*
X112331904Y-72058095D01*
X111141428Y-71772380D02*
X111046190Y-71772380D01*
X110950952Y-71820000D01*
X110903333Y-71867619D01*
X110855714Y-71962857D01*
X110808095Y-72153333D01*
X110808095Y-72391428D01*
X110855714Y-72581904D01*
X110903333Y-72677142D01*
X110950952Y-72724761D01*
X111046190Y-72772380D01*
X111141428Y-72772380D01*
X111236666Y-72724761D01*
X111284285Y-72677142D01*
X111331904Y-72581904D01*
X111379523Y-72391428D01*
X111379523Y-72153333D01*
X111331904Y-71962857D01*
X111284285Y-71867619D01*
X111236666Y-71820000D01*
X111141428Y-71772380D01*
X119542857Y-71787142D02*
X119590476Y-71834761D01*
X119733333Y-71882380D01*
X119828571Y-71882380D01*
X119971428Y-71834761D01*
X120066666Y-71739523D01*
X120114285Y-71644285D01*
X120161904Y-71453809D01*
X120161904Y-71310952D01*
X120114285Y-71120476D01*
X120066666Y-71025238D01*
X119971428Y-70930000D01*
X119828571Y-70882380D01*
X119733333Y-70882380D01*
X119590476Y-70930000D01*
X119542857Y-70977619D01*
X118590476Y-71882380D02*
X119161904Y-71882380D01*
X118876190Y-71882380D02*
X118876190Y-70882380D01*
X118971428Y-71025238D01*
X119066666Y-71120476D01*
X119161904Y-71168095D01*
X117638095Y-71882380D02*
X118209523Y-71882380D01*
X117923809Y-71882380D02*
X117923809Y-70882380D01*
X118019047Y-71025238D01*
X118114285Y-71120476D01*
X118209523Y-71168095D01*
X137542857Y-86437142D02*
X137590476Y-86484761D01*
X137733333Y-86532380D01*
X137828571Y-86532380D01*
X137971428Y-86484761D01*
X138066666Y-86389523D01*
X138114285Y-86294285D01*
X138161904Y-86103809D01*
X138161904Y-85960952D01*
X138114285Y-85770476D01*
X138066666Y-85675238D01*
X137971428Y-85580000D01*
X137828571Y-85532380D01*
X137733333Y-85532380D01*
X137590476Y-85580000D01*
X137542857Y-85627619D01*
X136590476Y-86532380D02*
X137161904Y-86532380D01*
X136876190Y-86532380D02*
X136876190Y-85532380D01*
X136971428Y-85675238D01*
X137066666Y-85770476D01*
X137161904Y-85818095D01*
X136209523Y-85627619D02*
X136161904Y-85580000D01*
X136066666Y-85532380D01*
X135828571Y-85532380D01*
X135733333Y-85580000D01*
X135685714Y-85627619D01*
X135638095Y-85722857D01*
X135638095Y-85818095D01*
X135685714Y-85960952D01*
X136257142Y-86532380D01*
X135638095Y-86532380D01*
X111582857Y-91627142D02*
X111630476Y-91674761D01*
X111773333Y-91722380D01*
X111868571Y-91722380D01*
X112011428Y-91674761D01*
X112106666Y-91579523D01*
X112154285Y-91484285D01*
X112201904Y-91293809D01*
X112201904Y-91150952D01*
X112154285Y-90960476D01*
X112106666Y-90865238D01*
X112011428Y-90770000D01*
X111868571Y-90722380D01*
X111773333Y-90722380D01*
X111630476Y-90770000D01*
X111582857Y-90817619D01*
X110630476Y-91722380D02*
X111201904Y-91722380D01*
X110916190Y-91722380D02*
X110916190Y-90722380D01*
X111011428Y-90865238D01*
X111106666Y-90960476D01*
X111201904Y-91008095D01*
X109725714Y-90722380D02*
X110201904Y-90722380D01*
X110249523Y-91198571D01*
X110201904Y-91150952D01*
X110106666Y-91103333D01*
X109868571Y-91103333D01*
X109773333Y-91150952D01*
X109725714Y-91198571D01*
X109678095Y-91293809D01*
X109678095Y-91531904D01*
X109725714Y-91627142D01*
X109773333Y-91674761D01*
X109868571Y-91722380D01*
X110106666Y-91722380D01*
X110201904Y-91674761D01*
X110249523Y-91627142D01*
X111542857Y-89197142D02*
X111590476Y-89244761D01*
X111733333Y-89292380D01*
X111828571Y-89292380D01*
X111971428Y-89244761D01*
X112066666Y-89149523D01*
X112114285Y-89054285D01*
X112161904Y-88863809D01*
X112161904Y-88720952D01*
X112114285Y-88530476D01*
X112066666Y-88435238D01*
X111971428Y-88340000D01*
X111828571Y-88292380D01*
X111733333Y-88292380D01*
X111590476Y-88340000D01*
X111542857Y-88387619D01*
X110590476Y-89292380D02*
X111161904Y-89292380D01*
X110876190Y-89292380D02*
X110876190Y-88292380D01*
X110971428Y-88435238D01*
X111066666Y-88530476D01*
X111161904Y-88578095D01*
X109733333Y-88292380D02*
X109923809Y-88292380D01*
X110019047Y-88340000D01*
X110066666Y-88387619D01*
X110161904Y-88530476D01*
X110209523Y-88720952D01*
X110209523Y-89101904D01*
X110161904Y-89197142D01*
X110114285Y-89244761D01*
X110019047Y-89292380D01*
X109828571Y-89292380D01*
X109733333Y-89244761D01*
X109685714Y-89197142D01*
X109638095Y-89101904D01*
X109638095Y-88863809D01*
X109685714Y-88768571D01*
X109733333Y-88720952D01*
X109828571Y-88673333D01*
X110019047Y-88673333D01*
X110114285Y-88720952D01*
X110161904Y-88768571D01*
X110209523Y-88863809D01*
X118427142Y-82187142D02*
X118474761Y-82139523D01*
X118522380Y-81996666D01*
X118522380Y-81901428D01*
X118474761Y-81758571D01*
X118379523Y-81663333D01*
X118284285Y-81615714D01*
X118093809Y-81568095D01*
X117950952Y-81568095D01*
X117760476Y-81615714D01*
X117665238Y-81663333D01*
X117570000Y-81758571D01*
X117522380Y-81901428D01*
X117522380Y-81996666D01*
X117570000Y-82139523D01*
X117617619Y-82187142D01*
X118522380Y-83139523D02*
X118522380Y-82568095D01*
X118522380Y-82853809D02*
X117522380Y-82853809D01*
X117665238Y-82758571D01*
X117760476Y-82663333D01*
X117808095Y-82568095D01*
X117522380Y-83472857D02*
X117522380Y-84139523D01*
X118522380Y-83710952D01*
X120747142Y-81577142D02*
X120794761Y-81529523D01*
X120842380Y-81386666D01*
X120842380Y-81291428D01*
X120794761Y-81148571D01*
X120699523Y-81053333D01*
X120604285Y-81005714D01*
X120413809Y-80958095D01*
X120270952Y-80958095D01*
X120080476Y-81005714D01*
X119985238Y-81053333D01*
X119890000Y-81148571D01*
X119842380Y-81291428D01*
X119842380Y-81386666D01*
X119890000Y-81529523D01*
X119937619Y-81577142D01*
X120842380Y-82529523D02*
X120842380Y-81958095D01*
X120842380Y-82243809D02*
X119842380Y-82243809D01*
X119985238Y-82148571D01*
X120080476Y-82053333D01*
X120128095Y-81958095D01*
X120270952Y-83100952D02*
X120223333Y-83005714D01*
X120175714Y-82958095D01*
X120080476Y-82910476D01*
X120032857Y-82910476D01*
X119937619Y-82958095D01*
X119890000Y-83005714D01*
X119842380Y-83100952D01*
X119842380Y-83291428D01*
X119890000Y-83386666D01*
X119937619Y-83434285D01*
X120032857Y-83481904D01*
X120080476Y-83481904D01*
X120175714Y-83434285D01*
X120223333Y-83386666D01*
X120270952Y-83291428D01*
X120270952Y-83100952D01*
X120318571Y-83005714D01*
X120366190Y-82958095D01*
X120461428Y-82910476D01*
X120651904Y-82910476D01*
X120747142Y-82958095D01*
X120794761Y-83005714D01*
X120842380Y-83100952D01*
X120842380Y-83291428D01*
X120794761Y-83386666D01*
X120747142Y-83434285D01*
X120651904Y-83481904D01*
X120461428Y-83481904D01*
X120366190Y-83434285D01*
X120318571Y-83386666D01*
X120270952Y-83291428D01*
X119008095Y-57422380D02*
X119008095Y-56422380D01*
X118770000Y-56422380D01*
X118627142Y-56470000D01*
X118531904Y-56565238D01*
X118484285Y-56660476D01*
X118436666Y-56850952D01*
X118436666Y-56993809D01*
X118484285Y-57184285D01*
X118531904Y-57279523D01*
X118627142Y-57374761D01*
X118770000Y-57422380D01*
X119008095Y-57422380D01*
X118055714Y-56517619D02*
X118008095Y-56470000D01*
X117912857Y-56422380D01*
X117674761Y-56422380D01*
X117579523Y-56470000D01*
X117531904Y-56517619D01*
X117484285Y-56612857D01*
X117484285Y-56708095D01*
X117531904Y-56850952D01*
X118103333Y-57422380D01*
X117484285Y-57422380D01*
X137612380Y-112151904D02*
X136612380Y-112151904D01*
X136612380Y-112390000D01*
X136660000Y-112532857D01*
X136755238Y-112628095D01*
X136850476Y-112675714D01*
X137040952Y-112723333D01*
X137183809Y-112723333D01*
X137374285Y-112675714D01*
X137469523Y-112628095D01*
X137564761Y-112532857D01*
X137612380Y-112390000D01*
X137612380Y-112151904D01*
X136612380Y-113056666D02*
X136612380Y-113675714D01*
X136993333Y-113342380D01*
X136993333Y-113485238D01*
X137040952Y-113580476D01*
X137088571Y-113628095D01*
X137183809Y-113675714D01*
X137421904Y-113675714D01*
X137517142Y-113628095D01*
X137564761Y-113580476D01*
X137612380Y-113485238D01*
X137612380Y-113199523D01*
X137564761Y-113104285D01*
X137517142Y-113056666D01*
X131202380Y-96333333D02*
X130726190Y-96000000D01*
X131202380Y-95761904D02*
X130202380Y-95761904D01*
X130202380Y-96142857D01*
X130250000Y-96238095D01*
X130297619Y-96285714D01*
X130392857Y-96333333D01*
X130535714Y-96333333D01*
X130630952Y-96285714D01*
X130678571Y-96238095D01*
X130726190Y-96142857D01*
X130726190Y-95761904D01*
X130535714Y-97190476D02*
X131202380Y-97190476D01*
X130154761Y-96952380D02*
X130869047Y-96714285D01*
X130869047Y-97333333D01*
X120476666Y-112922380D02*
X120810000Y-112446190D01*
X121048095Y-112922380D02*
X121048095Y-111922380D01*
X120667142Y-111922380D01*
X120571904Y-111970000D01*
X120524285Y-112017619D01*
X120476666Y-112112857D01*
X120476666Y-112255714D01*
X120524285Y-112350952D01*
X120571904Y-112398571D01*
X120667142Y-112446190D01*
X121048095Y-112446190D01*
X119571904Y-111922380D02*
X120048095Y-111922380D01*
X120095714Y-112398571D01*
X120048095Y-112350952D01*
X119952857Y-112303333D01*
X119714761Y-112303333D01*
X119619523Y-112350952D01*
X119571904Y-112398571D01*
X119524285Y-112493809D01*
X119524285Y-112731904D01*
X119571904Y-112827142D01*
X119619523Y-112874761D01*
X119714761Y-112922380D01*
X119952857Y-112922380D01*
X120048095Y-112874761D01*
X120095714Y-112827142D01*
X122052380Y-93243333D02*
X121576190Y-92910000D01*
X122052380Y-92671904D02*
X121052380Y-92671904D01*
X121052380Y-93052857D01*
X121100000Y-93148095D01*
X121147619Y-93195714D01*
X121242857Y-93243333D01*
X121385714Y-93243333D01*
X121480952Y-93195714D01*
X121528571Y-93148095D01*
X121576190Y-93052857D01*
X121576190Y-92671904D01*
X121052380Y-94100476D02*
X121052380Y-93910000D01*
X121100000Y-93814761D01*
X121147619Y-93767142D01*
X121290476Y-93671904D01*
X121480952Y-93624285D01*
X121861904Y-93624285D01*
X121957142Y-93671904D01*
X122004761Y-93719523D01*
X122052380Y-93814761D01*
X122052380Y-94005238D01*
X122004761Y-94100476D01*
X121957142Y-94148095D01*
X121861904Y-94195714D01*
X121623809Y-94195714D01*
X121528571Y-94148095D01*
X121480952Y-94100476D01*
X121433333Y-94005238D01*
X121433333Y-93814761D01*
X121480952Y-93719523D01*
X121528571Y-93671904D01*
X121623809Y-93624285D01*
X102076666Y-72282380D02*
X102410000Y-71806190D01*
X102648095Y-72282380D02*
X102648095Y-71282380D01*
X102267142Y-71282380D01*
X102171904Y-71330000D01*
X102124285Y-71377619D01*
X102076666Y-71472857D01*
X102076666Y-71615714D01*
X102124285Y-71710952D01*
X102171904Y-71758571D01*
X102267142Y-71806190D01*
X102648095Y-71806190D01*
X101743333Y-71282380D02*
X101076666Y-71282380D01*
X101505238Y-72282380D01*
X132662380Y-110103333D02*
X132186190Y-109770000D01*
X132662380Y-109531904D02*
X131662380Y-109531904D01*
X131662380Y-109912857D01*
X131710000Y-110008095D01*
X131757619Y-110055714D01*
X131852857Y-110103333D01*
X131995714Y-110103333D01*
X132090952Y-110055714D01*
X132138571Y-110008095D01*
X132186190Y-109912857D01*
X132186190Y-109531904D01*
X132090952Y-110674761D02*
X132043333Y-110579523D01*
X131995714Y-110531904D01*
X131900476Y-110484285D01*
X131852857Y-110484285D01*
X131757619Y-110531904D01*
X131710000Y-110579523D01*
X131662380Y-110674761D01*
X131662380Y-110865238D01*
X131710000Y-110960476D01*
X131757619Y-111008095D01*
X131852857Y-111055714D01*
X131900476Y-111055714D01*
X131995714Y-111008095D01*
X132043333Y-110960476D01*
X132090952Y-110865238D01*
X132090952Y-110674761D01*
X132138571Y-110579523D01*
X132186190Y-110531904D01*
X132281428Y-110484285D01*
X132471904Y-110484285D01*
X132567142Y-110531904D01*
X132614761Y-110579523D01*
X132662380Y-110674761D01*
X132662380Y-110865238D01*
X132614761Y-110960476D01*
X132567142Y-111008095D01*
X132471904Y-111055714D01*
X132281428Y-111055714D01*
X132186190Y-111008095D01*
X132138571Y-110960476D01*
X132090952Y-110865238D01*
X129962380Y-110103333D02*
X129486190Y-109770000D01*
X129962380Y-109531904D02*
X128962380Y-109531904D01*
X128962380Y-109912857D01*
X129010000Y-110008095D01*
X129057619Y-110055714D01*
X129152857Y-110103333D01*
X129295714Y-110103333D01*
X129390952Y-110055714D01*
X129438571Y-110008095D01*
X129486190Y-109912857D01*
X129486190Y-109531904D01*
X129962380Y-110579523D02*
X129962380Y-110770000D01*
X129914761Y-110865238D01*
X129867142Y-110912857D01*
X129724285Y-111008095D01*
X129533809Y-111055714D01*
X129152857Y-111055714D01*
X129057619Y-111008095D01*
X129010000Y-110960476D01*
X128962380Y-110865238D01*
X128962380Y-110674761D01*
X129010000Y-110579523D01*
X129057619Y-110531904D01*
X129152857Y-110484285D01*
X129390952Y-110484285D01*
X129486190Y-110531904D01*
X129533809Y-110579523D01*
X129581428Y-110674761D01*
X129581428Y-110865238D01*
X129533809Y-110960476D01*
X129486190Y-111008095D01*
X129390952Y-111055714D01*
X104082857Y-74322380D02*
X104416190Y-73846190D01*
X104654285Y-74322380D02*
X104654285Y-73322380D01*
X104273333Y-73322380D01*
X104178095Y-73370000D01*
X104130476Y-73417619D01*
X104082857Y-73512857D01*
X104082857Y-73655714D01*
X104130476Y-73750952D01*
X104178095Y-73798571D01*
X104273333Y-73846190D01*
X104654285Y-73846190D01*
X103130476Y-74322380D02*
X103701904Y-74322380D01*
X103416190Y-74322380D02*
X103416190Y-73322380D01*
X103511428Y-73465238D01*
X103606666Y-73560476D01*
X103701904Y-73608095D01*
X102511428Y-73322380D02*
X102416190Y-73322380D01*
X102320952Y-73370000D01*
X102273333Y-73417619D01*
X102225714Y-73512857D01*
X102178095Y-73703333D01*
X102178095Y-73941428D01*
X102225714Y-74131904D01*
X102273333Y-74227142D01*
X102320952Y-74274761D01*
X102416190Y-74322380D01*
X102511428Y-74322380D01*
X102606666Y-74274761D01*
X102654285Y-74227142D01*
X102701904Y-74131904D01*
X102749523Y-73941428D01*
X102749523Y-73703333D01*
X102701904Y-73512857D01*
X102654285Y-73417619D01*
X102606666Y-73370000D01*
X102511428Y-73322380D01*
X98342857Y-106402380D02*
X98676190Y-105926190D01*
X98914285Y-106402380D02*
X98914285Y-105402380D01*
X98533333Y-105402380D01*
X98438095Y-105450000D01*
X98390476Y-105497619D01*
X98342857Y-105592857D01*
X98342857Y-105735714D01*
X98390476Y-105830952D01*
X98438095Y-105878571D01*
X98533333Y-105926190D01*
X98914285Y-105926190D01*
X97390476Y-106402380D02*
X97961904Y-106402380D01*
X97676190Y-106402380D02*
X97676190Y-105402380D01*
X97771428Y-105545238D01*
X97866666Y-105640476D01*
X97961904Y-105688095D01*
X96438095Y-106402380D02*
X97009523Y-106402380D01*
X96723809Y-106402380D02*
X96723809Y-105402380D01*
X96819047Y-105545238D01*
X96914285Y-105640476D01*
X97009523Y-105688095D01*
X123402857Y-74652380D02*
X123736190Y-74176190D01*
X123974285Y-74652380D02*
X123974285Y-73652380D01*
X123593333Y-73652380D01*
X123498095Y-73700000D01*
X123450476Y-73747619D01*
X123402857Y-73842857D01*
X123402857Y-73985714D01*
X123450476Y-74080952D01*
X123498095Y-74128571D01*
X123593333Y-74176190D01*
X123974285Y-74176190D01*
X122450476Y-74652380D02*
X123021904Y-74652380D01*
X122736190Y-74652380D02*
X122736190Y-73652380D01*
X122831428Y-73795238D01*
X122926666Y-73890476D01*
X123021904Y-73938095D01*
X122069523Y-73747619D02*
X122021904Y-73700000D01*
X121926666Y-73652380D01*
X121688571Y-73652380D01*
X121593333Y-73700000D01*
X121545714Y-73747619D01*
X121498095Y-73842857D01*
X121498095Y-73938095D01*
X121545714Y-74080952D01*
X122117142Y-74652380D01*
X121498095Y-74652380D01*
X110742857Y-83512380D02*
X111076190Y-83036190D01*
X111314285Y-83512380D02*
X111314285Y-82512380D01*
X110933333Y-82512380D01*
X110838095Y-82560000D01*
X110790476Y-82607619D01*
X110742857Y-82702857D01*
X110742857Y-82845714D01*
X110790476Y-82940952D01*
X110838095Y-82988571D01*
X110933333Y-83036190D01*
X111314285Y-83036190D01*
X109790476Y-83512380D02*
X110361904Y-83512380D01*
X110076190Y-83512380D02*
X110076190Y-82512380D01*
X110171428Y-82655238D01*
X110266666Y-82750476D01*
X110361904Y-82798095D01*
X109457142Y-82512380D02*
X108838095Y-82512380D01*
X109171428Y-82893333D01*
X109028571Y-82893333D01*
X108933333Y-82940952D01*
X108885714Y-82988571D01*
X108838095Y-83083809D01*
X108838095Y-83321904D01*
X108885714Y-83417142D01*
X108933333Y-83464761D01*
X109028571Y-83512380D01*
X109314285Y-83512380D01*
X109409523Y-83464761D01*
X109457142Y-83417142D01*
X110792857Y-85742380D02*
X111126190Y-85266190D01*
X111364285Y-85742380D02*
X111364285Y-84742380D01*
X110983333Y-84742380D01*
X110888095Y-84790000D01*
X110840476Y-84837619D01*
X110792857Y-84932857D01*
X110792857Y-85075714D01*
X110840476Y-85170952D01*
X110888095Y-85218571D01*
X110983333Y-85266190D01*
X111364285Y-85266190D01*
X109840476Y-85742380D02*
X110411904Y-85742380D01*
X110126190Y-85742380D02*
X110126190Y-84742380D01*
X110221428Y-84885238D01*
X110316666Y-84980476D01*
X110411904Y-85028095D01*
X108983333Y-85075714D02*
X108983333Y-85742380D01*
X109221428Y-84694761D02*
X109459523Y-85409047D01*
X108840476Y-85409047D01*
X130452857Y-90762380D02*
X130786190Y-90286190D01*
X131024285Y-90762380D02*
X131024285Y-89762380D01*
X130643333Y-89762380D01*
X130548095Y-89810000D01*
X130500476Y-89857619D01*
X130452857Y-89952857D01*
X130452857Y-90095714D01*
X130500476Y-90190952D01*
X130548095Y-90238571D01*
X130643333Y-90286190D01*
X131024285Y-90286190D01*
X129500476Y-90762380D02*
X130071904Y-90762380D01*
X129786190Y-90762380D02*
X129786190Y-89762380D01*
X129881428Y-89905238D01*
X129976666Y-90000476D01*
X130071904Y-90048095D01*
X128595714Y-89762380D02*
X129071904Y-89762380D01*
X129119523Y-90238571D01*
X129071904Y-90190952D01*
X128976666Y-90143333D01*
X128738571Y-90143333D01*
X128643333Y-90190952D01*
X128595714Y-90238571D01*
X128548095Y-90333809D01*
X128548095Y-90571904D01*
X128595714Y-90667142D01*
X128643333Y-90714761D01*
X128738571Y-90762380D01*
X128976666Y-90762380D01*
X129071904Y-90714761D01*
X129119523Y-90667142D01*
X92502380Y-86538095D02*
X93311904Y-86538095D01*
X93407142Y-86585714D01*
X93454761Y-86633333D01*
X93502380Y-86728571D01*
X93502380Y-86919047D01*
X93454761Y-87014285D01*
X93407142Y-87061904D01*
X93311904Y-87109523D01*
X92502380Y-87109523D01*
X93502380Y-88109523D02*
X93502380Y-87538095D01*
X93502380Y-87823809D02*
X92502380Y-87823809D01*
X92645238Y-87728571D01*
X92740476Y-87633333D01*
X92788095Y-87538095D01*
X117041904Y-109762380D02*
X117041904Y-110571904D01*
X116994285Y-110667142D01*
X116946666Y-110714761D01*
X116851428Y-110762380D01*
X116660952Y-110762380D01*
X116565714Y-110714761D01*
X116518095Y-110667142D01*
X116470476Y-110571904D01*
X116470476Y-109762380D01*
X116041904Y-109857619D02*
X115994285Y-109810000D01*
X115899047Y-109762380D01*
X115660952Y-109762380D01*
X115565714Y-109810000D01*
X115518095Y-109857619D01*
X115470476Y-109952857D01*
X115470476Y-110048095D01*
X115518095Y-110190952D01*
X116089523Y-110762380D01*
X115470476Y-110762380D01*
X126791904Y-92762380D02*
X126791904Y-93571904D01*
X126744285Y-93667142D01*
X126696666Y-93714761D01*
X126601428Y-93762380D01*
X126410952Y-93762380D01*
X126315714Y-93714761D01*
X126268095Y-93667142D01*
X126220476Y-93571904D01*
X126220476Y-92762380D01*
X125839523Y-92762380D02*
X125220476Y-92762380D01*
X125553809Y-93143333D01*
X125410952Y-93143333D01*
X125315714Y-93190952D01*
X125268095Y-93238571D01*
X125220476Y-93333809D01*
X125220476Y-93571904D01*
X125268095Y-93667142D01*
X125315714Y-93714761D01*
X125410952Y-93762380D01*
X125696666Y-93762380D01*
X125791904Y-93714761D01*
X125839523Y-93667142D01*
X121052380Y-89538095D02*
X121861904Y-89538095D01*
X121957142Y-89585714D01*
X122004761Y-89633333D01*
X122052380Y-89728571D01*
X122052380Y-89919047D01*
X122004761Y-90014285D01*
X121957142Y-90061904D01*
X121861904Y-90109523D01*
X121052380Y-90109523D01*
X121052380Y-91014285D02*
X121052380Y-90823809D01*
X121100000Y-90728571D01*
X121147619Y-90680952D01*
X121290476Y-90585714D01*
X121480952Y-90538095D01*
X121861904Y-90538095D01*
X121957142Y-90585714D01*
X122004761Y-90633333D01*
X122052380Y-90728571D01*
X122052380Y-90919047D01*
X122004761Y-91014285D01*
X121957142Y-91061904D01*
X121861904Y-91109523D01*
X121623809Y-91109523D01*
X121528571Y-91061904D01*
X121480952Y-91014285D01*
X121433333Y-90919047D01*
X121433333Y-90728571D01*
X121480952Y-90633333D01*
X121528571Y-90585714D01*
X121623809Y-90538095D01*
X123342857Y-79477142D02*
X123390476Y-79524761D01*
X123533333Y-79572380D01*
X123628571Y-79572380D01*
X123771428Y-79524761D01*
X123866666Y-79429523D01*
X123914285Y-79334285D01*
X123961904Y-79143809D01*
X123961904Y-79000952D01*
X123914285Y-78810476D01*
X123866666Y-78715238D01*
X123771428Y-78620000D01*
X123628571Y-78572380D01*
X123533333Y-78572380D01*
X123390476Y-78620000D01*
X123342857Y-78667619D01*
X122390476Y-79572380D02*
X122961904Y-79572380D01*
X122676190Y-79572380D02*
X122676190Y-78572380D01*
X122771428Y-78715238D01*
X122866666Y-78810476D01*
X122961904Y-78858095D01*
X121914285Y-79572380D02*
X121723809Y-79572380D01*
X121628571Y-79524761D01*
X121580952Y-79477142D01*
X121485714Y-79334285D01*
X121438095Y-79143809D01*
X121438095Y-78762857D01*
X121485714Y-78667619D01*
X121533333Y-78620000D01*
X121628571Y-78572380D01*
X121819047Y-78572380D01*
X121914285Y-78620000D01*
X121961904Y-78667619D01*
X122009523Y-78762857D01*
X122009523Y-79000952D01*
X121961904Y-79096190D01*
X121914285Y-79143809D01*
X121819047Y-79191428D01*
X121628571Y-79191428D01*
X121533333Y-79143809D01*
X121485714Y-79096190D01*
X121438095Y-79000952D01*
X132242857Y-59087142D02*
X132290476Y-59134761D01*
X132433333Y-59182380D01*
X132528571Y-59182380D01*
X132671428Y-59134761D01*
X132766666Y-59039523D01*
X132814285Y-58944285D01*
X132861904Y-58753809D01*
X132861904Y-58610952D01*
X132814285Y-58420476D01*
X132766666Y-58325238D01*
X132671428Y-58230000D01*
X132528571Y-58182380D01*
X132433333Y-58182380D01*
X132290476Y-58230000D01*
X132242857Y-58277619D01*
X131861904Y-58277619D02*
X131814285Y-58230000D01*
X131719047Y-58182380D01*
X131480952Y-58182380D01*
X131385714Y-58230000D01*
X131338095Y-58277619D01*
X131290476Y-58372857D01*
X131290476Y-58468095D01*
X131338095Y-58610952D01*
X131909523Y-59182380D01*
X131290476Y-59182380D01*
X130671428Y-58182380D02*
X130576190Y-58182380D01*
X130480952Y-58230000D01*
X130433333Y-58277619D01*
X130385714Y-58372857D01*
X130338095Y-58563333D01*
X130338095Y-58801428D01*
X130385714Y-58991904D01*
X130433333Y-59087142D01*
X130480952Y-59134761D01*
X130576190Y-59182380D01*
X130671428Y-59182380D01*
X130766666Y-59134761D01*
X130814285Y-59087142D01*
X130861904Y-58991904D01*
X130909523Y-58801428D01*
X130909523Y-58563333D01*
X130861904Y-58372857D01*
X130814285Y-58277619D01*
X130766666Y-58230000D01*
X130671428Y-58182380D01*
X132242857Y-74187142D02*
X132290476Y-74234761D01*
X132433333Y-74282380D01*
X132528571Y-74282380D01*
X132671428Y-74234761D01*
X132766666Y-74139523D01*
X132814285Y-74044285D01*
X132861904Y-73853809D01*
X132861904Y-73710952D01*
X132814285Y-73520476D01*
X132766666Y-73425238D01*
X132671428Y-73330000D01*
X132528571Y-73282380D01*
X132433333Y-73282380D01*
X132290476Y-73330000D01*
X132242857Y-73377619D01*
X131861904Y-73377619D02*
X131814285Y-73330000D01*
X131719047Y-73282380D01*
X131480952Y-73282380D01*
X131385714Y-73330000D01*
X131338095Y-73377619D01*
X131290476Y-73472857D01*
X131290476Y-73568095D01*
X131338095Y-73710952D01*
X131909523Y-74282380D01*
X131290476Y-74282380D01*
X130338095Y-74282380D02*
X130909523Y-74282380D01*
X130623809Y-74282380D02*
X130623809Y-73282380D01*
X130719047Y-73425238D01*
X130814285Y-73520476D01*
X130909523Y-73568095D01*
X132242857Y-54287142D02*
X132290476Y-54334761D01*
X132433333Y-54382380D01*
X132528571Y-54382380D01*
X132671428Y-54334761D01*
X132766666Y-54239523D01*
X132814285Y-54144285D01*
X132861904Y-53953809D01*
X132861904Y-53810952D01*
X132814285Y-53620476D01*
X132766666Y-53525238D01*
X132671428Y-53430000D01*
X132528571Y-53382380D01*
X132433333Y-53382380D01*
X132290476Y-53430000D01*
X132242857Y-53477619D01*
X131861904Y-53477619D02*
X131814285Y-53430000D01*
X131719047Y-53382380D01*
X131480952Y-53382380D01*
X131385714Y-53430000D01*
X131338095Y-53477619D01*
X131290476Y-53572857D01*
X131290476Y-53668095D01*
X131338095Y-53810952D01*
X131909523Y-54382380D01*
X131290476Y-54382380D01*
X130909523Y-53477619D02*
X130861904Y-53430000D01*
X130766666Y-53382380D01*
X130528571Y-53382380D01*
X130433333Y-53430000D01*
X130385714Y-53477619D01*
X130338095Y-53572857D01*
X130338095Y-53668095D01*
X130385714Y-53810952D01*
X130957142Y-54382380D01*
X130338095Y-54382380D01*
X132242857Y-69287142D02*
X132290476Y-69334761D01*
X132433333Y-69382380D01*
X132528571Y-69382380D01*
X132671428Y-69334761D01*
X132766666Y-69239523D01*
X132814285Y-69144285D01*
X132861904Y-68953809D01*
X132861904Y-68810952D01*
X132814285Y-68620476D01*
X132766666Y-68525238D01*
X132671428Y-68430000D01*
X132528571Y-68382380D01*
X132433333Y-68382380D01*
X132290476Y-68430000D01*
X132242857Y-68477619D01*
X131861904Y-68477619D02*
X131814285Y-68430000D01*
X131719047Y-68382380D01*
X131480952Y-68382380D01*
X131385714Y-68430000D01*
X131338095Y-68477619D01*
X131290476Y-68572857D01*
X131290476Y-68668095D01*
X131338095Y-68810952D01*
X131909523Y-69382380D01*
X131290476Y-69382380D01*
X130957142Y-68382380D02*
X130338095Y-68382380D01*
X130671428Y-68763333D01*
X130528571Y-68763333D01*
X130433333Y-68810952D01*
X130385714Y-68858571D01*
X130338095Y-68953809D01*
X130338095Y-69191904D01*
X130385714Y-69287142D01*
X130433333Y-69334761D01*
X130528571Y-69382380D01*
X130814285Y-69382380D01*
X130909523Y-69334761D01*
X130957142Y-69287142D01*
X132242857Y-51387142D02*
X132290476Y-51434761D01*
X132433333Y-51482380D01*
X132528571Y-51482380D01*
X132671428Y-51434761D01*
X132766666Y-51339523D01*
X132814285Y-51244285D01*
X132861904Y-51053809D01*
X132861904Y-50910952D01*
X132814285Y-50720476D01*
X132766666Y-50625238D01*
X132671428Y-50530000D01*
X132528571Y-50482380D01*
X132433333Y-50482380D01*
X132290476Y-50530000D01*
X132242857Y-50577619D01*
X131861904Y-50577619D02*
X131814285Y-50530000D01*
X131719047Y-50482380D01*
X131480952Y-50482380D01*
X131385714Y-50530000D01*
X131338095Y-50577619D01*
X131290476Y-50672857D01*
X131290476Y-50768095D01*
X131338095Y-50910952D01*
X131909523Y-51482380D01*
X131290476Y-51482380D01*
X130433333Y-50815714D02*
X130433333Y-51482380D01*
X130671428Y-50434761D02*
X130909523Y-51149047D01*
X130290476Y-51149047D01*
X132242857Y-66187142D02*
X132290476Y-66234761D01*
X132433333Y-66282380D01*
X132528571Y-66282380D01*
X132671428Y-66234761D01*
X132766666Y-66139523D01*
X132814285Y-66044285D01*
X132861904Y-65853809D01*
X132861904Y-65710952D01*
X132814285Y-65520476D01*
X132766666Y-65425238D01*
X132671428Y-65330000D01*
X132528571Y-65282380D01*
X132433333Y-65282380D01*
X132290476Y-65330000D01*
X132242857Y-65377619D01*
X131861904Y-65377619D02*
X131814285Y-65330000D01*
X131719047Y-65282380D01*
X131480952Y-65282380D01*
X131385714Y-65330000D01*
X131338095Y-65377619D01*
X131290476Y-65472857D01*
X131290476Y-65568095D01*
X131338095Y-65710952D01*
X131909523Y-66282380D01*
X131290476Y-66282380D01*
X130385714Y-65282380D02*
X130861904Y-65282380D01*
X130909523Y-65758571D01*
X130861904Y-65710952D01*
X130766666Y-65663333D01*
X130528571Y-65663333D01*
X130433333Y-65710952D01*
X130385714Y-65758571D01*
X130338095Y-65853809D01*
X130338095Y-66091904D01*
X130385714Y-66187142D01*
X130433333Y-66234761D01*
X130528571Y-66282380D01*
X130766666Y-66282380D01*
X130861904Y-66234761D01*
X130909523Y-66187142D01*
X132242857Y-46387142D02*
X132290476Y-46434761D01*
X132433333Y-46482380D01*
X132528571Y-46482380D01*
X132671428Y-46434761D01*
X132766666Y-46339523D01*
X132814285Y-46244285D01*
X132861904Y-46053809D01*
X132861904Y-45910952D01*
X132814285Y-45720476D01*
X132766666Y-45625238D01*
X132671428Y-45530000D01*
X132528571Y-45482380D01*
X132433333Y-45482380D01*
X132290476Y-45530000D01*
X132242857Y-45577619D01*
X131861904Y-45577619D02*
X131814285Y-45530000D01*
X131719047Y-45482380D01*
X131480952Y-45482380D01*
X131385714Y-45530000D01*
X131338095Y-45577619D01*
X131290476Y-45672857D01*
X131290476Y-45768095D01*
X131338095Y-45910952D01*
X131909523Y-46482380D01*
X131290476Y-46482380D01*
X130433333Y-45482380D02*
X130623809Y-45482380D01*
X130719047Y-45530000D01*
X130766666Y-45577619D01*
X130861904Y-45720476D01*
X130909523Y-45910952D01*
X130909523Y-46291904D01*
X130861904Y-46387142D01*
X130814285Y-46434761D01*
X130719047Y-46482380D01*
X130528571Y-46482380D01*
X130433333Y-46434761D01*
X130385714Y-46387142D01*
X130338095Y-46291904D01*
X130338095Y-46053809D01*
X130385714Y-45958571D01*
X130433333Y-45910952D01*
X130528571Y-45863333D01*
X130719047Y-45863333D01*
X130814285Y-45910952D01*
X130861904Y-45958571D01*
X130909523Y-46053809D01*
X132242857Y-61587142D02*
X132290476Y-61634761D01*
X132433333Y-61682380D01*
X132528571Y-61682380D01*
X132671428Y-61634761D01*
X132766666Y-61539523D01*
X132814285Y-61444285D01*
X132861904Y-61253809D01*
X132861904Y-61110952D01*
X132814285Y-60920476D01*
X132766666Y-60825238D01*
X132671428Y-60730000D01*
X132528571Y-60682380D01*
X132433333Y-60682380D01*
X132290476Y-60730000D01*
X132242857Y-60777619D01*
X131861904Y-60777619D02*
X131814285Y-60730000D01*
X131719047Y-60682380D01*
X131480952Y-60682380D01*
X131385714Y-60730000D01*
X131338095Y-60777619D01*
X131290476Y-60872857D01*
X131290476Y-60968095D01*
X131338095Y-61110952D01*
X131909523Y-61682380D01*
X131290476Y-61682380D01*
X130957142Y-60682380D02*
X130290476Y-60682380D01*
X130719047Y-61682380D01*
X109042857Y-78552380D02*
X109376190Y-78076190D01*
X109614285Y-78552380D02*
X109614285Y-77552380D01*
X109233333Y-77552380D01*
X109138095Y-77600000D01*
X109090476Y-77647619D01*
X109042857Y-77742857D01*
X109042857Y-77885714D01*
X109090476Y-77980952D01*
X109138095Y-78028571D01*
X109233333Y-78076190D01*
X109614285Y-78076190D01*
X108090476Y-78552380D02*
X108661904Y-78552380D01*
X108376190Y-78552380D02*
X108376190Y-77552380D01*
X108471428Y-77695238D01*
X108566666Y-77790476D01*
X108661904Y-77838095D01*
X107519047Y-77980952D02*
X107614285Y-77933333D01*
X107661904Y-77885714D01*
X107709523Y-77790476D01*
X107709523Y-77742857D01*
X107661904Y-77647619D01*
X107614285Y-77600000D01*
X107519047Y-77552380D01*
X107328571Y-77552380D01*
X107233333Y-77600000D01*
X107185714Y-77647619D01*
X107138095Y-77742857D01*
X107138095Y-77790476D01*
X107185714Y-77885714D01*
X107233333Y-77933333D01*
X107328571Y-77980952D01*
X107519047Y-77980952D01*
X107614285Y-78028571D01*
X107661904Y-78076190D01*
X107709523Y-78171428D01*
X107709523Y-78361904D01*
X107661904Y-78457142D01*
X107614285Y-78504761D01*
X107519047Y-78552380D01*
X107328571Y-78552380D01*
X107233333Y-78504761D01*
X107185714Y-78457142D01*
X107138095Y-78361904D01*
X107138095Y-78171428D01*
X107185714Y-78076190D01*
X107233333Y-78028571D01*
X107328571Y-77980952D01*
X109022857Y-76562380D02*
X109356190Y-76086190D01*
X109594285Y-76562380D02*
X109594285Y-75562380D01*
X109213333Y-75562380D01*
X109118095Y-75610000D01*
X109070476Y-75657619D01*
X109022857Y-75752857D01*
X109022857Y-75895714D01*
X109070476Y-75990952D01*
X109118095Y-76038571D01*
X109213333Y-76086190D01*
X109594285Y-76086190D01*
X108641904Y-75657619D02*
X108594285Y-75610000D01*
X108499047Y-75562380D01*
X108260952Y-75562380D01*
X108165714Y-75610000D01*
X108118095Y-75657619D01*
X108070476Y-75752857D01*
X108070476Y-75848095D01*
X108118095Y-75990952D01*
X108689523Y-76562380D01*
X108070476Y-76562380D01*
X107451428Y-75562380D02*
X107356190Y-75562380D01*
X107260952Y-75610000D01*
X107213333Y-75657619D01*
X107165714Y-75752857D01*
X107118095Y-75943333D01*
X107118095Y-76181428D01*
X107165714Y-76371904D01*
X107213333Y-76467142D01*
X107260952Y-76514761D01*
X107356190Y-76562380D01*
X107451428Y-76562380D01*
X107546666Y-76514761D01*
X107594285Y-76467142D01*
X107641904Y-76371904D01*
X107689523Y-76181428D01*
X107689523Y-75943333D01*
X107641904Y-75752857D01*
X107594285Y-75657619D01*
X107546666Y-75610000D01*
X107451428Y-75562380D01*
M02*
